<?xml version="1.0" standalone="no"?>
<!DOCTYPE svg PUBLIC "-//W3C//DTD SVG 20010904//EN"
 "http://www.w3.org/TR/2001/REC-SVG-20010904/DTD/svg10.dtd">
<svg version="1.0" xmlns="http://www.w3.org/2000/svg"
 width="2048.000000pt" height="1365.000000pt" viewBox="0 0 2048.000000 1365.000000"
 preserveAspectRatio="xMidYMid meet">

<g transform="translate(0.000000,1365.000000) scale(0.100000,-0.100000)"
fill="url(#cta-gradient)" stroke="none">
<path d="M5993 13633 c2359 -2 6215 -2 8570 0 2355 1 426 2 -4288 2 -4714 0
-6640 -1 -4282 -2z"/>
<path d="M634 13188 l-19 -23 23 19 c12 11 22 21 22 23 0 8 -8 2 -26 -19z"/>
<path d="M19925 13170 c10 -11 20 -20 23 -20 3 0 -3 9 -13 20 -10 11 -20 20
-23 20 -3 0 3 -9 13 -20z"/>
<path d="M19975 13120 c10 -11 20 -20 23 -20 3 0 -3 9 -13 20 -10 11 -20 20
-23 20 -3 0 3 -9 13 -20z"/>
<path d="M534 13088 l-19 -23 23 19 c21 18 27 26 19 26 -2 0 -12 -10 -23 -22z"/>
<path d="M20040 13046 c0 -2 8 -10 18 -17 15 -13 16 -12 3 4 -13 16 -21 21
-21 13z"/>
<path d="M439 12973 c-13 -16 -12 -17 4 -4 16 13 21 21 13 21 -2 0 -10 -8 -17
-17z"/>
<path d="M10604 12198 c-192 -21 -356 -139 -400 -287 -31 -102 -1 -201 85
-284 25 -24 253 -212 506 -418 506 -410 588 -479 593 -490 2 -5 -776 -10
-1730 -11 l-1733 -3 -80 -29 c-228 -84 -372 -237 -399 -426 -7 -52 14 -147 45
-197 55 -88 144 -146 267 -174 31 -7 341 -10 925 -10 482 0 877 -3 877 -7 0
-4 -37 -35 -83 -69 -45 -34 -244 -187 -442 -338 -198 -152 -421 -322 -495
-378 -74 -56 -137 -105 -140 -108 -3 -3 -39 -31 -80 -62 -41 -30 -149 -113
-240 -182 -91 -70 -208 -159 -260 -198 -52 -40 -97 -75 -100 -78 -3 -3 -63
-50 -135 -104 -71 -54 -149 -114 -173 -133 l-43 -35 -22 20 c-96 84 -168 145
-203 169 -23 16 -71 50 -107 75 -63 45 -382 232 -402 235 -9 2 -85 34 -130 55
-11 5 -67 25 -125 44 -58 20 -112 39 -120 42 -8 3 -18 6 -21 5 -4 -1 -22 3
-40 9 -33 9 -208 47 -259 55 -14 2 -91 7 -171 10 -213 9 -412 -23 -565 -91
-29 -13 -54 -21 -57 -19 -2 3 -10 -2 -17 -11 -7 -8 -16 -15 -21 -15 -5 0 -32
-16 -59 -35 -27 -19 -52 -35 -55 -35 -3 0 -16 -10 -29 -22 -12 -13 -42 -41
-67 -64 -46 -42 -118 -131 -139 -174 -7 -14 -16 -27 -20 -30 -21 -15 -93 -236
-105 -325 -29 -204 40 -493 159 -668 14 -21 26 -40 26 -44 0 -17 246 -248 310
-290 192 -128 431 -211 658 -229 42 -3 97 -7 122 -9 25 -2 110 -5 190 -5 146
-2 191 -11 203 -43 7 -20 -22 -76 -47 -89 -12 -6 -23 -14 -26 -18 -12 -17
-112 -42 -185 -46 -56 -4 -118 1 -210 16 -71 12 -141 23 -155 26 -91 14 -272
15 -352 1 -83 -15 -236 -73 -268 -102 -8 -8 -28 -20 -43 -28 -27 -14 -121
-100 -162 -148 -11 -13 -33 -46 -49 -74 -16 -27 -32 -52 -35 -55 -16 -13 -82
-196 -97 -270 -26 -131 -16 -317 24 -437 17 -50 43 -116 58 -145 23 -46 119
-194 135 -208 30 -27 201 -252 235 -310 97 -164 116 -292 54 -354 -28 -28
-102 -25 -165 7 -75 38 -203 180 -281 313 -25 43 -109 167 -156 231 -21 29
-35 53 -31 53 4 0 3 4 -2 8 -6 4 -22 23 -35 42 -116 169 -306 377 -452 494
-64 52 -267 175 -275 168 -2 -1 -27 7 -55 18 -169 65 -375 78 -544 34 -126
-32 -114 -29 -149 -44 -16 -7 -33 -13 -38 -12 -4 1 -7 -2 -7 -8 0 -5 -4 -10
-10 -10 -43 0 -330 -234 -330 -269 0 -5 -6 -14 -13 -18 -18 -11 -80 -100 -107
-152 -104 -207 -144 -365 -142 -571 3 -356 140 -652 434 -938 105 -102 139
-132 210 -184 32 -24 58 -46 58 -50 0 -5 5 -8 10 -8 6 0 21 -9 33 -21 12 -11
42 -32 67 -47 25 -14 61 -38 81 -54 20 -15 39 -28 42 -28 3 0 52 -28 109 -62
163 -97 459 -237 663 -313 439 -164 918 -236 1273 -191 152 20 147 19 228 40
284 74 513 204 715 405 143 144 232 267 324 449 108 214 166 464 167 716 0
280 -29 427 -141 705 -25 61 -22 81 11 81 61 0 339 91 453 148 64 32 180 101
215 128 72 57 164 139 210 188 30 33 65 70 77 83 42 44 150 218 195 313 69
146 114 295 143 470 10 68 13 286 4 369 -5 46 -18 131 -30 188 l-22 104 21 15
c12 8 27 20 34 27 7 7 60 51 118 97 58 47 107 87 110 91 3 3 120 99 260 213
140 114 279 227 309 252 64 53 76 55 66 12 -13 -60 -13 -272 0 -368 43 -319
137 -589 312 -900 138 -244 372 -517 623 -726 200 -166 495 -345 725 -439 39
-16 75 -32 80 -36 6 -3 82 -29 170 -57 352 -111 619 -155 965 -156 377 -2 680
44 1020 155 260 85 584 244 770 378 70 50 185 136 196 146 6 6 55 48 108 95
116 100 247 243 361 395 263 350 428 744 494 1180 27 180 23 540 -8 725 -83
485 -286 913 -607 1280 -177 202 -223 242 -769 661 -203 157 -408 314 -455
350 -47 36 -117 90 -156 120 -39 30 -398 306 -799 614 -400 308 -762 586 -804
618 -42 32 -97 70 -124 83 -91 47 -212 66 -333 52z m1469 -2357 c280 -48 517
-142 747 -297 101 -68 126 -89 260 -224 215 -215 346 -447 414 -730 99 -417
11 -863 -240 -1216 -64 -90 -218 -256 -304 -328 -112 -94 -438 -286 -485 -286
-7 0 -32 -9 -56 -19 -75 -33 -274 -85 -369 -96 -274 -31 -381 -29 -645 10 -82
13 -264 64 -365 105 -120 47 -244 112 -345 181 -116 78 -243 185 -295 249 -19
23 -46 55 -60 70 -14 16 -33 39 -42 52 -10 13 -33 43 -51 68 -119 159 -226
421 -258 630 -14 92 -17 295 -6 409 39 400 292 823 649 1085 42 31 80 56 84
56 4 0 15 6 23 14 30 27 158 95 267 141 179 77 379 126 604 149 91 9 363 -4
473 -23z"/>
<path d="M11632 9358 c-215 -22 -418 -98 -587 -219 -223 -160 -367 -378 -425
-643 -14 -66 -14 -280 0 -342 81 -343 275 -592 580 -741 364 -178 759 -175
1124 8 389 196 627 634 562 1033 -47 285 -195 521 -430 688 -232 164 -542 245
-824 216z"/>
<path d="M102 12105 c0 -16 2 -22 5 -12 2 9 2 23 0 30 -3 6 -5 -1 -5 -18z"/>
<path d="M20442 12075 c0 -16 2 -22 5 -12 2 9 2 23 0 30 -3 6 -5 -1 -5 -18z"/>
<path d="M15808 6831 c-117 -38 -215 -123 -350 -306 -41 -55 -134 -181 -207
-279 -74 -99 -134 -185 -135 -191 -1 -11 130 -111 704 -538 113 -83 336 -249
495 -367 160 -119 351 -261 425 -316 473 -352 696 -518 706 -525 6 -5 60 58
148 178 76 102 140 192 143 198 2 8 -45 50 -114 101 -169 125 -550 408 -740
550 l-162 120 26 35 c15 18 42 51 62 72 67 71 83 63 461 -219 140 -105 298
-220 350 -256 107 -74 245 -148 282 -151 21 -2 46 26 171 195 81 108 147 200
147 205 0 4 -23 14 -50 20 -105 25 -262 119 -505 301 -272 205 -356 252 -465
260 -58 4 -76 1 -124 -21 -61 -28 -162 -118 -224 -199 -35 -47 -52 -59 -52
-38 0 6 21 45 48 88 82 133 102 188 102 276 0 79 -32 148 -102 223 -29 31
-161 137 -293 236 -378 283 -439 322 -552 351 -78 20 -124 19 -195 -3z m153
-524 c64 -32 708 -516 747 -560 46 -53 43 -86 -15 -169 -30 -44 -50 -65 -57
-59 -12 10 -378 281 -681 505 -110 82 -204 152 -209 157 -10 9 53 99 91 129
33 26 69 25 124 -3z"/>
<path d="M14710 5754 c-168 -152 -306 -277 -308 -279 -1 -1 136 -155 305 -341
169 -186 553 -609 853 -939 764 -842 804 -885 811 -885 8 0 590 525 603 544 7
10 -27 54 -124 160 -73 80 -136 146 -141 146 -7 0 -81 -66 -201 -176 -26 -24
-49 -44 -51 -44 -3 0 -136 145 -297 322 l-293 322 108 102 109 101 -28 34
c-85 101 -241 269 -247 267 -4 -2 -44 -36 -89 -77 -90 -82 -125 -111 -134
-111 -3 0 -127 134 -276 298 l-271 297 38 35 c21 19 78 72 127 116 l89 82
-137 151 c-76 83 -138 151 -139 151 -1 0 -139 -124 -307 -276z"/>
<path d="M8285 5557 c-32 -56 -77 -133 -100 -172 -50 -85 -90 -154 -230 -395
-59 -102 -130 -223 -157 -270 -28 -47 -67 -114 -88 -150 -56 -95 -318 -546
-355 -610 -66 -113 -151 -261 -253 -435 -170 -290 -174 -298 -203 -350 l-28
-50 286 -165 c312 -180 358 -204 439 -225 96 -25 164 -28 237 -11 168 39 293
148 424 368 70 117 241 410 431 738 30 52 86 149 125 215 358 614 372 645 372
836 0 113 -1 117 -37 190 -67 134 -146 207 -357 329 -64 37 -177 102 -251 145
-74 42 -149 86 -165 96 l-31 18 -59 -102z m405 -583 c20 -20 25 -34 24 -73 -1
-58 7 -44 -366 -683 -290 -499 -324 -556 -383 -658 -19 -33 -51 -87 -70 -120
-19 -33 -51 -88 -71 -122 -95 -167 -146 -189 -265 -117 -30 18 -55 33 -57 34
-1 2 27 54 64 116 37 63 92 157 122 209 30 52 86 149 125 215 38 66 95 163
125 215 30 52 86 149 125 215 78 133 99 169 212 365 42 74 106 182 140 240 34
58 81 137 104 177 l41 72 53 -30 c28 -17 63 -42 77 -55z"/>
<path d="M14123 5341 l-202 -117 86 -150 c138 -239 228 -395 448 -774 65 -113
142 -245 170 -295 29 -49 87 -150 129 -223 74 -129 84 -152 68 -152 -5 0 -271
322 -591 715 -321 393 -585 715 -588 715 -6 0 -355 -201 -367 -211 -11 -9 27
-78 439 -784 28 -49 112 -193 185 -320 73 -126 157 -273 188 -325 116 -200
163 -282 292 -505 281 -487 350 -605 355 -605 4 0 159 90 314 181 35 21 68 40
74 42 6 2 -5 29 -25 63 -30 50 -149 255 -263 454 -80 139 -659 1139 -677 1168
-16 26 -17 32 -5 32 8 0 293 -348 632 -772 340 -425 619 -774 621 -776 3 -4
364 204 377 217 4 4 -25 63 -65 132 -99 173 -185 320 -323 559 -65 113 -142
246 -170 295 -64 111 -154 267 -310 535 -65 113 -142 246 -170 295 -29 50 -86
149 -127 220 -42 72 -123 213 -182 314 -58 102 -107 185 -109 187 -1 1 -93
-51 -204 -115z"/>
<path d="M9386 4973 c-8 -27 -62 -201 -120 -388 -223 -726 -601 -1950 -662
-2149 -36 -115 -63 -210 -61 -212 4 -4 777 -244 786 -244 7 0 121 365 121 385
0 6 -68 30 -151 55 -82 24 -155 47 -160 51 -7 4 38 163 117 420 70 228 128
415 130 417 1 2 65 -16 143 -41 122 -39 141 -42 146 -28 16 41 115 357 115
368 0 11 -70 35 -238 84 -31 9 -42 17 -39 28 42 155 235 761 242 761 6 0 79
-21 162 -47 84 -25 155 -44 158 -41 3 3 30 86 61 184 30 99 56 184 58 190 3 6
-66 33 -167 64 -511 159 -613 190 -619 190 -3 0 -13 -21 -22 -47z"/>
<path d="M12757 4795 c-236 -49 -407 -158 -483 -307 -50 -98 -66 -238 -43
-377 8 -51 257 -916 408 -1421 16 -52 50 -167 76 -255 97 -332 198 -478 375
-549 195 -79 566 10 731 175 127 127 163 299 113 529 -12 55 -323 1129 -330
1138 -3 5 -558 -160 -568 -169 -6 -5 -4 -25 3 -49 9 -31 16 -40 29 -36 9 3 36
10 60 17 23 7 44 10 45 8 2 -2 70 -231 152 -509 142 -485 165 -579 151 -634
-9 -35 -64 -66 -119 -66 -37 0 -51 5 -75 30 -17 16 -35 45 -41 62 -53 163
-533 1814 -538 1849 -11 92 42 149 138 149 104 0 168 -153 169 -403 l0 -89 28
6 c15 3 110 19 212 36 102 17 196 33 209 36 l24 5 -6 117 c-17 354 -150 591
-386 691 -69 29 -234 37 -334 16z"/>
<path d="M10557 4674 c-151 -36 -283 -145 -356 -294 -139 -286 -130 -669 24
-980 56 -114 96 -174 204 -310 223 -279 271 -386 271 -595 -1 -273 -67 -404
-187 -373 -76 19 -106 104 -84 234 13 78 45 181 72 235 18 37 18 37 -4 42 -61
16 -421 87 -436 87 -13 0 -25 -21 -44 -77 -84 -245 -84 -480 0 -650 66 -135
209 -239 381 -277 431 -96 715 143 773 650 20 179 -6 396 -67 551 -63 161
-144 289 -356 567 -154 200 -193 321 -170 525 19 164 58 241 133 261 54 15
100 -6 124 -56 39 -80 17 -260 -47 -392 -17 -34 -29 -64 -27 -65 7 -5 434 -97
451 -97 31 0 88 185 109 352 41 338 -115 579 -425 658 -94 24 -250 26 -339 4z"/>
<path d="M11703 4606 c-122 -12 -224 -24 -226 -26 -3 -4 269 -2913 272 -2915
5 -4 474 45 478 49 5 5 -244 2706 -264 2869 -4 35 -10 47 -22 46 -9 -1 -116
-11 -238 -23z"/>
<path d="M20442 1570 c0 -14 2 -19 5 -12 2 6 2 18 0 25 -3 6 -5 1 -5 -13z"/>
<path d="M102 1540 c0 -14 2 -19 5 -12 2 6 2 18 0 25 -3 6 -5 1 -5 -13z"/>
<path d="M111 1454 c0 -11 3 -14 6 -6 3 7 2 16 -1 19 -3 4 -6 -2 -5 -13z"/>
<path d="M20019 573 c-13 -16 -12 -17 4 -4 9 7 17 15 17 17 0 8 -8 3 -21 -13z"/>
<path d="M19894 448 l-19 -23 23 19 c21 18 27 26 19 26 -2 0 -12 -10 -23 -22z"/>
<path d="M670 426 c0 -2 8 -10 18 -17 15 -13 16 -12 3 4 -13 16 -21 21 -21 13z"/>
<path d="M1648 13 c6 -2 18 -2 25 0 6 3 1 5 -13 5 -14 0 -19 -2 -12 -5z"/>
<path d="M18873 13 c9 -2 23 -2 30 0 6 3 -1 5 -18 5 -16 0 -22 -2 -12 -5z"/>
</g>
</svg>
