<?xml version="1.0" standalone="no"?>
<!DOCTYPE svg PUBLIC "-//W3C//DTD SVG 20010904//EN"
 "http://www.w3.org/TR/2001/REC-SVG-20010904/DTD/svg10.dtd">
<svg version="1.0" xmlns="http://www.w3.org/2000/svg"
 width="3020.000000pt" height="2309.000000pt" viewBox="0 0 3020.000000 2309.000000"
 preserveAspectRatio="xMidYMid meet">

<g transform="translate(0.000000,2309.000000) scale(0.100000,-0.100000)"
fill="url(#cta-gradient)" stroke="none">
<path d="M6822 18093 l3 -1078 1000 -5 1000 -5 0 -5195 c0 -4031 -3 -5208 -12
-5252 -7 -32 -27 -92 -44 -135 -56 -133 -183 -240 -334 -280 -116 -31 -177
-33 -1201 -33 -1152 0 -1120 -2 -1262 65 -113 53 -180 131 -243 280 -5 11 -15
51 -24 88 -13 59 -15 228 -15 1268 l0 1199 -1680 0 -1680 0 0 -1409 c0 -1192
2 -1432 15 -1561 31 -301 97 -536 221 -787 42 -84 81 -153 85 -153 5 0 9 -5 9
-10 0 -10 83 -128 125 -179 303 -365 667 -607 1165 -775 108 -36 306 -86 420
-106 36 -6 88 -16 115 -21 108 -19 321 -38 555 -49 319 -15 4483 -8 4730 8
190 12 404 42 560 78 41 9 107 22 145 29 39 6 80 17 92 23 14 8 78 12 180 12
123 1 162 4 177 15 17 13 74 15 342 15 274 0 323 2 334 15 10 12 45 15 198 15
150 0 189 3 202 15 12 11 48 15 143 17 142 3 163 13 174 79 2 19 9 39 15 46 5
6 11 26 13 43 2 17 18 47 35 66 23 27 30 44 30 78 0 27 6 48 15 56 8 7 15 20
15 30 0 10 7 23 15 30 8 7 15 20 15 30 0 10 7 23 15 30 8 7 15 27 15 45 0 18
7 38 15 45 8 7 15 20 15 30 0 10 7 23 15 30 8 7 15 24 15 39 0 20 96 225 150
321 5 8 11 22 14 30 4 8 17 35 31 59 14 24 25 50 25 56 0 7 7 18 15 25 8 7 15
20 15 30 0 10 7 23 15 30 8 7 15 20 15 30 0 10 7 23 15 30 8 7 15 20 15 30 0
10 7 23 15 30 8 7 15 20 15 29 0 10 12 28 26 42 14 13 39 51 54 84 15 33 46
78 69 100 23 21 41 45 41 53 0 8 14 30 30 49 17 18 30 39 30 46 0 8 14 26 30
42 17 16 30 36 30 45 0 18 159 180 177 180 7 0 27 13 45 29 18 15 59 40 90 55
32 15 60 31 63 37 9 14 42 11 59 -6 8 -8 22 -15 32 -15 9 0 34 -18 56 -40 l38
-41 0 -233 c0 -195 -2 -236 -15 -246 -9 -8 -15 -30 -15 -60 0 -30 -6 -52 -15
-60 -8 -7 -15 -25 -15 -39 0 -15 -7 -36 -15 -47 -8 -10 -15 -39 -15 -63 0 -25
-7 -52 -15 -61 -8 -9 -17 -37 -19 -61 -4 -48 -24 -106 -43 -127 -7 -7 -13 -26
-13 -42 0 -16 -8 -37 -18 -47 -10 -10 -19 -34 -20 -53 -2 -19 -10 -42 -18 -51
-9 -10 -13 -22 -10 -27 3 -5 -4 -26 -14 -48 -11 -21 -20 -43 -20 -50 0 -6 -7
-17 -15 -24 -8 -7 -15 -27 -15 -45 0 -18 -7 -38 -15 -45 -8 -7 -15 -20 -15
-30 0 -10 -7 -23 -15 -30 -8 -7 -15 -27 -15 -46 0 -18 -4 -35 -9 -38 -16 -10
-51 -91 -51 -119 0 -14 -4 -28 -9 -31 -12 -8 -81 -150 -81 -168 0 -9 -12 -41
-26 -72 -14 -31 -22 -60 -19 -66 4 -7 146 -10 418 -9 227 0 422 0 435 0 21 -1
22 -4 22 -113 0 -62 4 -119 8 -126 7 -10 793 -12 3898 -10 l3889 3 3 1077 2
1078 -1107 2 -1108 3 0 2080 0 2080 1060 1 c1219 2 1272 -1 1528 -65 46 -11
84 -25 155 -57 29 -13 55 -24 58 -24 2 0 35 -20 72 -45 202 -134 316 -315 385
-610 l21 -90 6 -2715 5 -2715 2142 -3 c2033 -2 2143 -1 2151 15 6 14 9 1940 3
2110 l-1 33 -492 2 -493 3 -6 1580 c-4 916 -11 1618 -17 1670 -12 114 -30 230
-42 275 -5 19 -16 65 -25 101 -84 359 -286 658 -560 829 -95 59 -196 102 -350
149 -76 24 -350 61 -442 61 -42 0 -43 1 -43 35 0 32 3 34 38 40 20 3 51 10 68
15 17 6 37 10 45 10 31 0 207 63 304 109 304 144 543 392 710 736 139 285 215
567 264 973 6 50 16 134 23 185 16 129 23 3550 9 3917 -14 330 -19 380 -67
605 -52 247 -118 431 -230 644 -203 383 -555 697 -974 867 -47 19 -94 39 -105
44 -23 10 -149 52 -210 68 -22 7 -58 17 -80 23 -72 20 -255 57 -345 70 -68 9
-201 24 -360 38 -53 5 -3823 9 -8573 10 l-8477 1 2 -1077z m10473 208 c63 -38
114 -99 155 -186 78 -162 103 -282 129 -595 9 -101 6 -462 -3 -585 -10 -127
-17 -202 -21 -240 -3 -22 -7 -67 -10 -100 -2 -33 -6 -69 -9 -80 -2 -11 -7 -54
-11 -95 -4 -41 -9 -84 -11 -95 -3 -11 -7 -47 -10 -80 -7 -78 -11 -112 -20
-155 -11 -51 -8 -118 5 -134 6 -7 38 -19 70 -25 32 -6 65 -19 73 -29 30 -34
172 -279 219 -377 63 -133 159 -379 166 -424 3 -20 10 -44 15 -54 5 -10 11
-27 14 -38 2 -10 6 -29 9 -41 12 -54 17 -78 31 -158 27 -161 29 -186 29 -420
0 -209 -7 -344 -19 -405 -2 -11 -7 -47 -11 -80 -3 -33 -10 -78 -15 -100 -4
-22 -11 -62 -15 -90 -3 -27 -12 -77 -20 -110 -8 -33 -17 -71 -19 -85 -3 -14
-5 -25 -6 -25 -2 0 -10 -35 -16 -70 -4 -22 2 -40 18 -62 118 -163 173 -261
163 -293 -3 -11 -66 -48 -158 -95 -191 -96 -361 -211 -365 -246 -2 -24 48 -89
69 -89 6 0 39 20 74 45 135 94 388 225 434 225 23 0 38 -29 56 -107 27 -117
45 -292 45 -450 0 -135 -2 -153 -17 -161 -10 -5 -81 -12 -158 -15 -135 -5
-298 -32 -345 -57 -11 -6 -20 -19 -20 -29 0 -26 27 -88 41 -93 6 -2 48 4 93
13 83 17 148 25 272 36 141 11 146 -19 47 -287 -166 -453 -623 -936 -1203
-1273 -103 -60 -281 -152 -345 -179 -22 -9 -78 -33 -125 -53 -225 -96 -578
-196 -830 -234 -275 -43 -412 -50 -820 -46 -212 3 -401 6 -420 9 -19 2 -89 7
-155 10 -163 9 -246 15 -270 20 -29 5 -110 15 -185 21 -36 3 -76 7 -90 10 -13
2 -44 7 -69 10 -25 3 -55 7 -66 9 -11 2 -69 11 -130 20 -110 17 -154 26 -315
66 -47 12 -97 24 -112 26 -15 3 -58 14 -95 25 -38 11 -77 21 -87 24 -11 2 -49
15 -85 29 -36 13 -118 43 -181 66 -120 43 -153 58 -310 134 -126 61 -214 109
-264 143 -29 20 -54 27 -86 28 -44 0 -159 -13 -170 -20 -3 -2 -34 -6 -70 -9
-36 -4 -87 -9 -115 -13 -82 -10 -124 -12 -260 -13 -126 -2 -175 6 -190 30 -11
17 -7 109 9 214 12 76 17 102 32 172 8 39 17 79 19 90 2 10 4 19 5 19 1 0 3 7
5 15 1 8 19 70 39 137 20 67 36 131 36 142 0 33 -31 41 -132 35 -236 -13 -573
-18 -673 -9 -22 2 -92 6 -155 9 -63 3 -125 8 -137 10 -12 3 -53 8 -90 11 -37
4 -86 11 -108 17 -22 5 -58 13 -80 18 -84 16 -199 69 -209 95 -12 33 -5 71 24
132 16 35 34 69 39 75 6 7 34 45 63 83 59 78 297 318 401 404 38 31 94 78 125
104 31 26 114 91 183 143 81 61 128 103 131 117 2 12 -1 58 -8 102 -11 81 -13
645 -1 675 3 8 8 42 12 75 3 33 7 71 10 85 2 14 6 48 10 75 9 77 32 179 82
370 9 33 23 71 31 84 8 13 16 52 18 85 2 34 6 95 8 136 5 82 34 328 40 338 2
4 7 27 10 52 3 25 8 54 10 65 2 11 14 67 26 125 12 58 24 116 26 130 6 30 39
167 55 230 6 25 16 63 21 85 13 52 38 136 45 155 4 8 5 19 4 24 -1 5 1 16 5
25 4 9 8 21 10 28 1 7 16 61 34 120 18 59 34 116 36 127 2 10 11 41 20 68 15
46 15 108 0 163 -3 11 -17 76 -31 145 -14 69 -28 134 -30 145 -8 30 -13 64
-20 125 -4 30 -9 58 -11 61 -2 4 -6 38 -9 75 -2 38 -7 80 -10 94 -16 77 -23
530 -12 695 9 114 26 276 32 284 4 7 7 21 20 94 12 61 68 223 92 261 84 138
227 179 483 141 140 -21 442 -143 706 -286 170 -91 212 -115 248 -141 21 -15
43 -28 48 -28 5 0 14 -5 21 -11 11 -9 205 -139 245 -164 9 -5 21 -14 26 -18 6
-4 64 -45 128 -90 142 -100 282 -199 351 -250 29 -20 62 -44 73 -52 39 -28 62
-26 98 10 18 18 37 46 41 61 6 25 2 33 -32 63 -21 18 -56 45 -78 59 -22 15
-52 36 -68 49 -25 20 -26 23 -10 31 21 11 106 27 219 42 44 6 89 12 100 14 20
4 156 16 234 22 25 1 95 6 155 10 265 18 710 -2 891 -40 12 -2 38 -7 59 -10
50 -8 56 -13 46 -39 -13 -35 -5 -57 31 -88 66 -57 69 -55 208 83 52 51 124
118 160 148 35 30 71 61 80 69 8 7 58 45 110 83 52 38 102 75 111 83 44 35
314 205 327 205 3 0 13 6 21 14 15 13 313 166 324 166 3 0 34 13 69 29 69 31
256 96 303 106 17 3 43 8 60 11 16 3 31 6 32 8 2 1 45 2 96 2 78 -1 99 -5 132
-25z m5220 -1324 c104 -37 148 -64 213 -129 80 -81 128 -177 153 -309 8 -48
12 -429 12 -1504 0 -792 -3 -1478 -7 -1525 -16 -190 -59 -368 -125 -514 -108
-238 -320 -419 -570 -486 -174 -46 -131 -45 -1361 -45 l-1165 0 -3 2260 c-1
1243 0 2266 3 2273 4 10 276 12 1387 10 l1383 -3 80 -28z m-4154 -5566 c23
-26 106 -176 114 -206 15 -55 16 -60 21 -95 7 -50 -19 -101 -70 -133 -24 -15
-50 -27 -58 -27 -9 0 -31 -6 -49 -14 -19 -8 -47 -17 -64 -19 -16 -3 -39 -8
-51 -11 -41 -9 -204 -25 -311 -30 -50 -2 -55 11 -20 46 54 53 167 186 167 196
0 5 3 12 8 14 14 6 92 104 92 115 0 6 4 13 8 15 5 2 32 39 60 83 28 44 61 93
73 108 l22 29 23 -29 c13 -15 29 -34 35 -42z m-877 -898 c21 -60 21 -194 1
-233 -22 -42 -100 -69 -185 -64 -126 9 -187 16 -197 24 -3 3 -7 4 -55 13 -54
11 -41 28 71 93 135 80 202 122 269 171 31 24 62 43 69 43 6 0 18 -21 27 -47z
m-5234 -188 c7 -8 20 -15 30 -15 10 0 23 -7 30 -15 7 -8 24 -15 39 -15 24 0
109 -36 121 -52 3 -3 17 -9 32 -13 15 -4 32 -13 39 -21 6 -8 19 -14 29 -14 10
0 23 -7 30 -15 7 -9 29 -15 53 -15 42 0 177 -57 177 -74 0 -18 -33 -46 -55
-46 -13 0 -60 -20 -106 -45 -46 -25 -91 -48 -99 -51 -8 -3 -55 -26 -103 -50
-49 -24 -93 -44 -98 -44 -6 0 -17 -7 -25 -15 -9 -8 -24 -15 -35 -15 -11 0 -22
-7 -25 -15 -4 -8 -16 -15 -28 -15 -12 0 -27 -5 -33 -11 -29 -29 -33 5 -33 280
0 153 3 281 7 284 11 12 40 8 53 -8z m915 -340 c17 -3 37 -8 45 -12 8 -3 38
-9 65 -14 28 -4 57 -9 65 -12 15 -4 71 -16 100 -21 8 -1 40 -8 70 -14 30 -6
96 -16 145 -22 50 -7 101 -13 115 -15 70 -10 110 -15 165 -20 33 -3 76 -7 95
-9 19 -2 94 -7 165 -11 72 -4 155 -9 185 -12 30 -3 204 -7 385 -9 182 -2 335
-6 342 -8 6 -3 18 -20 26 -38 47 -102 158 -384 162 -408 2 -14 18 -58 30 -85
8 -17 16 -42 18 -55 3 -14 10 -37 16 -52 6 -16 9 -28 6 -28 -2 0 7 -30 21 -67
14 -38 25 -70 25 -73 0 -3 4 -21 9 -40 5 -19 11 -49 13 -67 3 -17 8 -36 11
-41 5 -9 12 -38 26 -117 5 -27 18 -98 29 -158 11 -59 22 -145 25 -190 3 -45 9
-107 13 -137 14 -113 1 -335 -27 -470 -14 -68 -21 -103 -24 -120 -1 -9 -5 -20
-8 -25 -3 -6 -9 -26 -13 -45 -4 -19 -14 -48 -22 -63 -8 -16 -16 -38 -18 -48
-7 -37 -111 -240 -204 -399 -96 -164 -211 -287 -378 -404 -273 -190 -624 -281
-962 -247 -175 18 -392 70 -467 112 -28 16 -58 29 -67 29 -9 0 -31 6 -49 14
-18 8 -71 29 -118 47 -47 18 -116 49 -155 70 -38 20 -78 35 -89 34 -23 -4 -56
-35 -78 -73 -17 -28 -17 -31 2 -55 21 -27 137 -86 323 -166 26 -11 47 -18 47
-15 0 3 6 2 13 -3 6 -4 14 -8 17 -9 33 -6 60 -18 64 -30 3 -8 -17 -32 -51 -61
-31 -26 -77 -70 -102 -97 -25 -27 -51 -54 -57 -60 -62 -65 -268 -371 -344
-511 -24 -44 -62 -111 -85 -150 -22 -38 -43 -74 -45 -80 -2 -5 -34 -73 -72
-150 -38 -77 -80 -166 -94 -198 -14 -32 -41 -93 -60 -135 -20 -42 -42 -90 -50
-107 -16 -36 -107 -265 -140 -353 -48 -130 -42 -126 -201 -136 -54 -4 -125 -9
-158 -11 -77 -6 -227 -15 -330 -21 -44 -2 -107 -6 -140 -8 -33 -3 -105 -8
-160 -11 -127 -7 -226 -14 -290 -20 -27 -2 -106 -7 -175 -10 -69 -3 -135 -7
-146 -9 -25 -5 -124 -13 -264 -22 -58 -3 -114 -8 -125 -10 -43 -8 -163 -6
-181 4 -20 11 -142 136 -183 187 -30 39 -111 162 -111 170 0 3 -8 17 -17 32
-10 14 -18 31 -20 37 -1 6 -14 39 -28 74 -79 190 -65 411 38 607 134 254 422
494 715 596 68 24 185 56 232 64 19 3 43 8 52 11 27 8 257 8 318 -1 167 -22
302 -95 445 -239 73 -74 175 -202 175 -220 0 -3 19 -37 43 -78 24 -40 67 -131
96 -203 29 -71 57 -133 63 -136 6 -4 38 1 71 10 81 22 84 34 41 157 -19 54
-34 103 -34 109 0 5 24 35 53 66 80 85 99 109 144 179 23 36 47 70 52 77 6 7
11 15 11 18 0 3 17 32 39 63 47 69 144 242 167 297 9 22 22 47 29 55 8 8 14
18 15 22 0 4 10 28 21 53 11 24 18 46 17 47 -2 2 7 17 20 35 12 17 22 34 22
38 0 3 11 31 25 61 14 30 25 57 25 60 0 3 9 24 19 47 22 49 47 110 49 117 1 8
62 153 70 170 10 19 6 92 -7 133 -6 18 -21 87 -34 153 -19 97 -23 150 -21 265
1 79 5 155 8 168 9 38 34 58 78 64 58 8 155 59 208 110 54 53 130 151 130 170
0 7 4 17 9 23 12 13 52 123 58 159 2 17 6 37 9 45 6 14 9 32 17 85 6 40 21 52
72 58 181 21 310 101 335 207 16 68 2 140 -34 175 -60 58 -127 78 -276 80
-111 2 -115 2 -118 24 -2 13 2 30 10 39 15 20 32 49 65 112 13 25 42 77 63
115 22 39 78 149 125 245 47 96 90 183 95 192 18 32 12 75 -13 91 -61 40 -130
37 -143 -7 -3 -12 -22 -55 -42 -97 -29 -60 -48 -84 -87 -114 -56 -42 -155 -93
-230 -120 -27 -9 -59 -21 -70 -25 -21 -9 -74 -21 -113 -26 -19 -2 -31 9 -59
54 -20 31 -39 59 -43 62 -3 3 -21 26 -39 52 -40 59 -57 69 -96 53 -37 -16 -85
-59 -85 -77 0 -7 25 -50 55 -96 122 -186 286 -472 269 -472 -3 0 0 -9 6 -21 6
-11 13 -29 16 -40 2 -10 6 -29 9 -41 4 -13 8 -38 11 -57 8 -55 20 -64 83 -56
31 3 72 10 91 15 41 11 135 21 235 24 77 3 138 -12 143 -36 4 -18 -54 -57 -95
-64 -15 -2 -40 -9 -54 -15 -14 -5 -68 -12 -120 -13 -52 -2 -99 -4 -106 -5 -14
-1 -21 -35 -28 -136 -6 -77 -9 -102 -18 -125 -3 -8 -13 -43 -21 -77 -35 -142
-141 -272 -241 -297 -5 -2 -18 -6 -28 -11 -10 -4 -51 -5 -92 -3 -141 9 -197
77 -198 238 0 79 10 189 22 228 1 1 1 3 1 5 0 1 9 31 20 67 11 36 20 72 20 81
0 15 -80 121 -181 240 -43 51 -61 74 -158 200 -35 46 -66 91 -69 99 -3 8 -23
39 -44 69 -21 30 -38 59 -38 64 0 5 -6 23 -14 40 -42 94 -43 208 -3 289 24 48
97 138 112 138 4 0 25 15 48 33 23 18 103 63 177 99 210 103 451 218 455 218
2 0 68 32 147 70 150 74 154 75 253 55z m3130 -265 c0 -311 0 -312 -73 -246
-22 20 -46 36 -54 36 -8 0 -27 14 -43 30 -16 17 -36 30 -45 30 -9 0 -36 20
-60 45 -24 25 -50 45 -58 45 -8 0 -49 33 -91 74 -42 41 -85 76 -96 78 -29 5
-31 49 -4 74 18 16 38 19 125 21 76 1 109 6 126 17 12 9 37 16 54 16 17 0 37
7 44 15 7 8 27 15 45 15 18 0 38 7 45 16 9 10 26 14 49 12 l36 -3 0 -275z
m-707 57 c31 -29 88 -80 127 -113 38 -32 76 -65 83 -72 8 -7 84 -65 170 -129
86 -64 173 -129 193 -144 19 -15 51 -35 70 -46 20 -10 49 -29 65 -41 16 -13
58 -42 94 -65 36 -23 67 -44 70 -47 3 -3 14 -10 25 -17 11 -7 95 -58 187 -115
182 -112 196 -120 278 -163 81 -42 88 -42 110 7 11 24 20 50 20 58 0 8 14 50
32 93 46 113 94 162 163 172 6 0 21 -4 35 -9 73 -30 86 -73 45 -157 -35 -74
-50 -98 -74 -123 -37 -36 -91 -100 -101 -118 -11 -19 12 -50 33 -43 7 2 30 6
52 9 22 3 56 9 75 13 19 4 105 7 190 7 136 0 162 -3 215 -23 70 -26 123 -68
131 -102 34 -147 -63 -330 -214 -404 -114 -56 -232 -74 -358 -55 -128 19 -262
73 -360 146 -115 83 -184 137 -199 154 -17 19 -85 43 -155 55 -19 3 -62 17
-95 31 -34 13 -66 24 -71 24 -17 0 -227 90 -309 132 -141 73 -277 160 -375
239 -149 121 -175 152 -200 239 -12 41 -24 82 -26 90 -3 8 -5 16 -5 17 0 2 -8
23 -19 48 -11 25 -19 48 -19 51 1 2 -4 17 -9 32 -6 15 -25 68 -42 117 -18 50
-47 126 -66 171 -38 91 -42 120 -16 127 9 3 57 5 105 6 l88 1 57 -53z m-6012
-550 c109 -55 209 -209 253 -387 55 -222 290 -679 501 -975 32 -44 68 -100 80
-125 13 -25 33 -55 46 -67 13 -12 24 -26 24 -30 0 -11 279 -283 290 -283 5 0
15 -6 22 -14 23 -22 153 -104 227 -141 180 -92 419 -130 661 -105 47 5 103 10
125 11 22 2 47 6 55 10 8 3 38 9 66 13 121 14 280 59 399 111 67 30 142 53
151 47 5 -4 10 -11 10 -17 1 -5 5 -35 8 -65 4 -30 9 -74 12 -96 3 -23 7 -53
10 -65 24 -109 23 -111 -100 -192 -170 -113 -416 -214 -581 -240 -16 -3 -37
-7 -45 -10 -88 -31 -600 -26 -709 7 -9 3 -32 8 -51 11 -100 17 -190 39 -249
61 -36 14 -79 29 -96 33 -134 36 -452 218 -691 396 -26 19 -211 207 -251 255
-276 329 -531 822 -646 1245 -17 64 -21 107 -21 215 0 151 17 216 78 297 89
117 292 166 422 100z m3568 -186 c3 -4 -1 -17 -9 -27 -8 -10 -15 -26 -15 -35
0 -9 -7 -22 -15 -29 -8 -7 -15 -20 -15 -29 0 -10 -13 -30 -30 -46 -16 -16 -30
-35 -30 -44 0 -19 -29 -51 -47 -51 -7 0 -13 5 -13 12 0 7 -14 27 -31 44 -18
19 -35 49 -39 71 -4 21 -11 46 -15 55 -5 13 -1 19 19 24 14 3 30 12 37 20 6 8
26 14 44 14 18 0 38 7 45 15 14 16 105 21 114 6z m2576 -286 c24 -25 51 -45
60 -45 9 0 29 -13 45 -30 16 -16 36 -30 45 -30 9 0 25 -9 35 -20 21 -23 101
-70 120 -70 7 0 18 -7 25 -15 7 -8 20 -15 30 -15 10 0 23 -7 30 -15 7 -8 24
-15 38 -15 27 0 125 -44 142 -65 7 -8 9 -374 8 -1166 l-3 -1154 -830 0 -830 0
-3 46 c-2 32 2 50 13 59 8 7 15 20 15 29 0 9 7 25 15 35 8 11 15 31 15 44 0
13 13 41 29 61 15 20 33 46 40 59 6 12 18 22 26 22 8 0 34 18 57 41 24 23 57
47 73 54 17 8 52 36 80 64 27 28 56 51 63 51 20 0 162 140 162 160 0 9 20 36
45 60 25 24 45 51 45 60 0 8 18 33 40 54 22 22 52 65 67 95 14 31 39 71 54 89
16 18 29 43 29 56 0 12 11 43 25 67 14 24 27 51 31 59 3 8 12 27 20 42 8 14
14 37 14 50 0 12 7 32 15 42 8 11 15 41 15 67 0 29 6 51 15 59 9 8 15 30 15
60 0 30 6 52 15 60 12 10 15 38 15 135 0 97 3 125 15 135 11 9 15 34 15 95 0
61 -4 86 -15 95 -12 10 -15 38 -15 134 0 92 -4 127 -15 142 -10 13 -14 44 -15
95 0 56 -4 80 -15 89 -15 13 -22 100 -8 113 17 18 53 3 93 -38z m-3468 -332
l38 -37 0 -120 c0 -98 -3 -123 -17 -138 -25 -28 -26 -222 -1 -245 12 -11 18
-31 18 -61 0 -35 6 -51 30 -79 17 -18 30 -40 30 -47 0 -8 21 -24 48 -36 26
-12 54 -26 62 -31 8 -5 27 -15 43 -22 44 -19 40 -67 -11 -119 -27 -29 -44 -38
-68 -38 -18 0 -35 -4 -38 -9 -4 -5 -27 -19 -54 -31 -26 -12 -61 -29 -78 -38
-67 -33 -64 -62 -64 543 0 419 3 545 12 545 7 0 29 -17 50 -37z m276 -1722
c-23 -45 -71 -139 -77 -151 -32 -59 -41 -81 -41 -102 0 -14 -13 -37 -30 -54
-20 -20 -30 -39 -30 -60 0 -17 -7 -37 -15 -44 -8 -7 -15 -17 -15 -23 0 -15
-42 -100 -57 -115 -7 -7 -13 -22 -13 -32 0 -10 -8 -25 -19 -32 -10 -7 -27 -29
-37 -48 l-19 -35 -3 45 c-2 25 1 95 7 156 6 60 11 162 11 225 0 108 1 117 23
138 13 12 37 23 53 26 34 4 98 36 128 64 43 39 149 72 134 42z m1997 -378 c-4
-10 -25 -70 -46 -133 -22 -63 -44 -128 -50 -145 -6 -16 -14 -43 -19 -60 -4
-16 -17 -64 -28 -105 -19 -72 -47 -202 -57 -265 -2 -17 -7 -43 -9 -60 -3 -16
-7 -69 -10 -118 -4 -56 -13 -101 -25 -125 -21 -42 -20 -72 4 -87 9 -5 26 -18
37 -27 41 -35 66 -24 159 70 48 48 100 98 116 112 39 34 206 141 270 174 112
56 297 120 383 132 19 3 51 9 70 14 33 8 84 11 205 13 86 1 207 -11 218 -22 6
-6 21 -11 33 -11 50 0 168 -73 249 -154 89 -90 160 -213 179 -310 2 -6 8 -31
15 -56 25 -88 28 -256 7 -360 -13 -62 -67 -262 -81 -301 -9 -24 -23 -66 -31
-94 -28 -90 -14 -86 -293 -81 -135 3 -507 8 -826 11 -319 3 -647 8 -730 10
-82 2 -301 7 -485 11 -184 3 -338 9 -342 13 -4 4 15 61 43 126 79 186 169 409
169 420 0 6 8 26 19 45 10 19 20 40 21 45 5 18 8 29 51 160 23 72 42 132 42
135 -1 3 3 10 7 15 5 6 12 24 15 40 10 47 10 49 17 60 5 9 20 68 19 80 0 2 5
19 10 37 6 18 12 42 14 53 2 11 9 38 14 60 19 79 24 100 27 120 10 71 15 104
20 135 6 33 6 222 1 320 l-2 45 145 6 c80 4 165 10 190 14 45 6 201 43 206 48
2 1 17 4 35 5 26 2 30 0 24 -15z"/>
<path d="M12005 17752 c-103 -49 -174 -180 -195 -364 -32 -272 21 -605 134
-838 16 -33 23 -62 20 -76 -7 -28 36 -108 66 -124 25 -13 39 -7 140 60 47 31
121 78 165 105 44 26 96 58 115 70 169 108 574 294 810 371 124 41 134 56 95
141 -27 61 -25 60 -132 38 -28 -6 -41 0 -119 61 -48 38 -126 98 -173 133 -47
35 -87 68 -89 73 -2 4 -10 8 -17 8 -7 0 -15 3 -17 8 -1 4 -50 38 -108 76 -58
38 -116 77 -130 86 -14 9 -50 31 -80 48 -30 18 -62 37 -70 42 -8 5 -46 23 -85
40 -38 17 -78 36 -89 41 -10 6 -60 13 -110 15 -75 4 -98 2 -131 -14z m241
-174 c73 -29 292 -157 374 -216 25 -18 104 -75 175 -126 158 -114 226 -172
219 -190 -3 -8 -47 -31 -97 -52 -51 -20 -131 -57 -179 -81 -48 -24 -89 -43
-92 -43 -11 0 -304 -165 -396 -222 -127 -80 -137 -80 -177 2 -41 83 -89 267
-104 400 -16 140 -7 356 18 433 45 139 102 160 259 95z"/>
<path d="M16995 17618 c-38 -10 -77 -21 -85 -24 -8 -4 -19 -8 -25 -9 -29 -7
-172 -84 -263 -142 -103 -66 -275 -224 -347 -318 -33 -44 -59 -69 -102 -102
-35 -26 -62 -97 -46 -121 5 -10 27 -26 49 -37 359 -184 653 -371 854 -543 41
-35 97 -83 124 -106 27 -22 65 -54 84 -70 l34 -30 34 19 c35 19 63 53 69 87 3
12 -8 32 -32 55 -33 34 -35 39 -29 82 9 73 16 113 26 161 6 25 13 74 15 110 3
35 9 80 14 100 5 19 10 59 10 89 1 30 4 58 6 61 2 4 7 54 10 111 25 415 -12
553 -167 624 -66 30 -122 31 -233 3z m186 -151 c25 -20 48 -69 57 -125 19
-107 0 -429 -39 -692 -23 -158 -36 -210 -50 -210 -6 0 -79 51 -163 114 -84 63
-167 123 -184 133 -16 10 -86 52 -154 94 -67 42 -157 95 -200 118 -42 23 -78
48 -81 55 -10 26 28 80 123 177 141 142 366 285 519 330 68 20 150 23 172 6z"/>
<path d="M16665 14679 c-83 -48 -138 -152 -175 -334 -52 -251 -48 -506 11
-755 24 -101 75 -211 106 -225 28 -14 195 6 219 26 20 16 49 81 74 164 15 53
22 87 45 220 9 53 5 381 -5 457 -26 186 -87 353 -152 415 -37 35 -92 49 -123
32z"/>
<path d="M13652 14630 c-58 -35 -114 -144 -147 -284 -46 -203 -55 -424 -25
-631 31 -208 68 -321 135 -400 24 -29 28 -30 92 -27 82 3 107 18 147 91 30 57
46 104 78 246 30 127 32 526 4 655 -37 171 -79 269 -140 333 -43 44 -91 49
-144 17z"/>
<path d="M15287 13514 c-1 -1 -29 -4 -62 -8 -189 -19 -306 -74 -356 -166 -28
-52 -28 -109 -2 -210 61 -237 233 -438 448 -522 185 -72 389 -41 548 85 87 69
107 89 154 154 94 132 134 245 132 374 -1 80 -3 88 -35 131 -48 67 -144 126
-233 143 -13 2 -32 7 -44 11 -18 6 -543 14 -550 8z"/>
<path d="M11768 13015 c-2 -2 -37 -5 -78 -9 -41 -3 -82 -7 -90 -9 -8 -2 -37
-7 -65 -11 -27 -4 -70 -14 -95 -21 -61 -19 -124 -35 -130 -33 -12 3 -92 -44
-96 -57 -9 -23 24 -109 47 -123 18 -11 33 -10 102 11 73 22 141 39 217 52 14
2 36 6 49 9 86 19 299 25 396 10 22 -3 55 -7 74 -9 57 -7 96 -14 188 -34 48
-10 109 -22 134 -25 102 -15 392 -148 535 -247 23 -16 49 -29 57 -29 18 0 77
65 77 85 0 37 -265 195 -445 266 -33 13 -77 34 -99 47 -50 31 -183 72 -306 95
-14 3 -34 7 -45 10 -59 14 -416 32 -427 22z"/>
<path d="M14132 12294 c-29 -20 -29 -63 2 -140 89 -224 225 -427 403 -597 29
-27 62 -56 75 -65 13 -9 25 -19 28 -23 3 -3 40 -30 83 -59 239 -160 566 -243
883 -226 121 7 137 8 234 27 352 68 670 278 870 576 77 114 89 150 65 186 -39
60 -82 39 -160 -79 -168 -255 -372 -415 -650 -508 -331 -112 -738 -85 -1045
69 -121 61 -214 130 -322 239 -144 145 -268 334 -344 526 -33 84 -73 109 -122
74z"/>
<path d="M12069 11976 c-2 -2 -29 -5 -59 -7 -30 -1 -68 -6 -85 -11 -16 -4 -48
-11 -70 -14 -53 -7 -62 -9 -115 -22 -51 -14 -165 -50 -195 -62 -11 -4 -38 -15
-60 -23 -117 -44 -255 -121 -255 -141 0 -23 45 -95 68 -108 28 -17 30 -17 103
20 41 21 101 48 134 61 33 13 75 30 93 38 18 8 41 16 51 18 10 2 54 12 97 23
135 34 192 45 318 56 27 3 54 10 59 15 16 16 312 13 447 -4 63 -8 147 -21 187
-30 39 -8 78 -12 86 -9 17 6 43 97 32 113 -7 13 -59 27 -166 45 -140 24 -149
25 -309 31 -85 3 -200 8 -256 10 -55 3 -102 3 -105 1z"/>
<path d="M2325 18998 c-3 -7 -4 -218 -3 -468 l3 -455 275 0 275 0 3 91 c3 86
4 92 25 95 43 8 1073 3 1085 -5 9 -5 12 -62 12 -211 0 -112 -3 -210 -6 -219
-6 -14 -64 -16 -560 -16 l-554 0 0 83 c0 45 -4 88 -8 95 -7 9 -69 12 -278 10
l-269 -3 0 -1275 0 -1275 275 0 275 0 3 983 2 982 1400 0 1400 0 0 -115 0
-115 278 2 277 3 0 405 0 405 -275 0 -275 0 -3 -92 -3 -93 -559 0 c-441 0
-560 3 -561 13 -5 50 -3 421 3 430 5 8 165 11 545 12 296 0 546 -1 555 -3 15
-4 18 -19 20 -96 l3 -91 275 0 275 0 0 405 0 405 -277 3 -278 2 0 -115 0 -115
-1400 0 -1400 0 -2 173 -3 172 -273 3 c-213 2 -274 0 -277 -10z"/>
<path d="M3800 17039 c-260 -15 -406 -71 -475 -183 l-30 -49 -3 -293 -3 -293
26 -56 c38 -79 135 -149 260 -188 120 -36 194 -39 1215 -34 958 4 1072 7 1148
35 15 5 45 15 67 22 23 6 72 33 110 58 54 36 75 58 95 97 25 49 25 50 25 330
0 273 -1 281 -24 333 -46 102 -157 170 -340 208 -90 19 -568 28 -588 12 -10
-8 -13 -56 -13 -178 0 -93 3 -175 6 -184 5 -14 37 -16 254 -16 l248 0 32 -30
32 -30 -4 -109 c-4 -126 -12 -142 -83 -160 -63 -16 -1933 -15 -1986 1 -63 18
-71 35 -76 148 -9 184 -16 180 305 180 172 0 241 3 250 12 17 17 17 367 0 369
-43 5 -352 3 -448 -2z"/>
<path d="M3288 15553 l-3 -268 -480 -5 -480 -5 -3 -184 c-2 -141 1 -186 10
-193 7 -4 225 -8 485 -8 l472 0 3 -57 3 -58 240 0 240 0 3 57 c3 50 6 59 25
63 12 3 474 6 1027 8 896 3 1013 6 1075 21 185 44 287 112 318 210 7 26 12
107 12 221 0 215 -9 248 -86 320 -45 43 -137 95 -167 95 -7 0 -20 4 -30 9 -53
27 -123 34 -414 38 l-308 5 0 -191 0 -191 178 0 c195 0 244 -8 269 -46 15 -23
15 -28 0 -59 -11 -22 -27 -37 -44 -42 -15 -5 -437 -8 -938 -8 l-910 0 -3 268
-2 267 -245 0 -245 0 -2 -267z"/>
<path d="M2325 14828 c-3 -7 -4 -1102 -3 -2433 l3 -2420 28 -48 c28 -48 90
-101 137 -118 14 -5 34 -13 45 -18 48 -20 102 -33 173 -43 113 -15 1087 -22
1192 -9 217 29 325 68 411 151 26 25 165 170 309 322 144 153 277 287 294 298
69 42 134 50 417 50 274 0 321 -5 339 -40 6 -10 10 -93 10 -184 l0 -165 -26
-20 c-26 -20 -38 -21 -370 -21 l-344 0 0 -200 0 -201 428 4 c262 3 452 9 492
16 199 35 332 127 365 252 23 84 21 637 -2 704 -30 88 -128 166 -256 202 -135
38 -209 42 -753 43 -623 0 -690 -6 -862 -72 -62 -24 -91 -51 -346 -323 -317
-336 -343 -362 -404 -392 l-57 -28 -300 -3 c-269 -3 -303 -2 -332 14 l-33 17
-2 2336 -3 2336 -273 3 c-213 2 -274 0 -277 -10z"/>
<path d="M5678 14643 l-3 -48 -1025 -5 c-1055 -6 -1039 -5 -1158 -46 -64 -21
-93 -38 -135 -80 -65 -64 -67 -75 -67 -370 0 -255 1 -265 23 -316 25 -55 88
-121 135 -140 99 -39 138 -50 227 -61 55 -6 204 -12 330 -12 l230 0 3 188 c2
173 1 187 -15 188 -10 1 -103 2 -208 4 -306 3 -318 8 -320 128 -3 145 -25 138
422 135 l358 -3 5 -220 c5 -239 8 -252 67 -307 58 -55 145 -85 318 -108 124
-16 765 -13 915 5 185 22 309 66 386 137 73 67 74 77 74 560 l0 418 -279 0
-280 0 -3 -47z m160 -525 c3 -98 -12 -144 -51 -153 -12 -3 -40 -9 -62 -13 -22
-4 -215 -8 -430 -7 -408 1 -464 7 -485 45 -11 21 -14 203 -3 213 3 4 236 6
517 5 l511 -3 3 -87z"/>
<path d="M3660 13440 c-96 -8 -151 -22 -230 -57 -97 -44 -140 -99 -140 -181 0
-60 34 -117 110 -185 60 -54 199 -148 248 -167 58 -23 16 -30 -175 -30 l-183
0 0 -245 0 -245 245 0 244 0 3 58 3 57 945 0 945 0 5 -55 5 -55 278 -3 277 -2
0 305 0 305 -280 0 -279 0 -3 -57 -3 -58 -675 -3 c-656 -2 -677 -2 -745 18
-38 12 -79 25 -90 30 -11 5 -55 23 -98 40 -97 38 -152 65 -195 98 -67 51 -58
52 504 52 l514 0 -2 193 -3 192 -570 1 c-313 1 -608 -2 -655 -6z"/>
<path d="M3705 12179 c-111 -14 -163 -27 -237 -62 -82 -38 -127 -79 -158 -143
-19 -41 -20 -63 -20 -329 0 -270 1 -288 21 -330 54 -115 206 -195 414 -218 79
-9 370 -12 1020 -12 928 0 1053 4 1190 39 94 24 199 81 240 129 61 70 67 111
63 405 -3 245 -4 259 -26 304 -39 80 -111 134 -247 187 -70 28 -128 33 -403
38 l-292 5 2 -188 3 -189 250 -5 c138 -4 258 -10 268 -14 33 -16 47 -60 47
-156 0 -97 -15 -145 -47 -153 -98 -26 -175 -28 -1058 -24 -613 2 -935 7 -963
14 -67 17 -74 27 -79 142 -10 189 -18 184 312 191 l250 5 3 188 2 187 -247 -2
c-137 0 -275 -4 -308 -9z"/>
</g>
</svg>
