<?xml version="1.0" standalone="no"?>
<!DOCTYPE svg PUBLIC "-//W3C//DTD SVG 20010904//EN"
 "http://www.w3.org/TR/2001/REC-SVG-20010904/DTD/svg10.dtd">
<svg version="1.0" xmlns="http://www.w3.org/2000/svg"
 width="3464.000000pt" height="2309.000000pt" viewBox="0 0 3464.000000 2309.000000"
 preserveAspectRatio="xMidYMid meet">
<defs>
  <linearGradient id="cta-gradient" x1="0%" y1="0%" x2="100%" y2="0%">
    <stop class="stop1" offset="0%" />
    <stop class="stop2" offset="100%" />
  </linearGradient>
</defs>
<g transform="translate(0.000000,2309.000000) scale(0.100000,-0.100000)"
fill="url(#cta-gradient)" stroke="none">
<path d="M6975 21089 c-228 -17 -435 -41 -595 -70 -1142 -205 -2140 -764
-2816 -1577 -402 -484 -674 -1066 -773 -1654 -48 -286 -46 8 -46 -6248 0
-6253 -2 -5944 46 -6240 138 -843 631 -1651 1369 -2246 676 -545 1574 -918
2465 -1024 50 -5 113 -13 140 -16 28 -4 100 -10 160 -14 136 -10 20828 -7
20870 2 17 4 75 12 130 18 884 96 1713 412 2405 918 161 118 293 234 481 421
321 322 521 594 713 971 198 387 296 716 358 1195 14 109 21 11646 7 11895
-58 1038 -598 1997 -1517 2693 -171 129 -253 185 -429 288 -598 354 -1333 597
-2003 663 -85 8 -177 18 -205 22 -70 11 -20625 13 -20760 3z m20735 -1023 c25
-4 111 -16 191 -27 626 -84 1255 -348 1724 -725 572 -459 917 -1018 1037
-1681 l23 -128 0 -5950 c0 -4822 -2 -5966 -13 -6035 -104 -681 -457 -1276
-1031 -1736 -526 -423 -1158 -673 -1920 -762 -136 -16 -813 -17 -10336 -17
-5604 0 -10248 3 -10320 7 -331 19 -702 92 -1020 202 -1074 370 -1847 1179
-2049 2146 -43 207 -41 -54 -41 6195 l0 5950 23 128 c120 663 464 1220 1037
1681 417 335 967 584 1535 695 102 20 384 57 485 64 104 7 20632 1 20675 -7z"/>
<path d="M7618 18458 c-439 -19 -804 -130 -1125 -342 -390 -258 -685 -624
-891 -1106 -168 -393 -275 -893 -323 -1510 -15 -189 -15 -723 0 -920 61 -815
225 -1406 521 -1878 255 -406 637 -718 1040 -851 110 -37 292 -75 435 -92 129
-16 470 -15 605 0 364 43 724 154 1038 320 228 121 368 225 542 400 220 222
359 463 422 731 29 127 36 404 13 540 -51 310 -193 524 -420 635 -113 56 -181
70 -335 69 -329 -1 -597 -121 -735 -330 -56 -85 -74 -151 -90 -329 -16 -182
-30 -244 -80 -349 -61 -129 -151 -186 -326 -209 -70 -9 -104 -8 -182 5 -154
25 -252 83 -344 206 -242 319 -329 825 -317 1827 7 573 35 851 111 1105 66
221 177 376 322 450 91 45 162 60 286 61 110 0 183 -14 250 -48 123 -63 245
-245 270 -403 3 -19 9 -96 15 -171 19 -280 97 -413 293 -504 101 -47 183 -65
297 -65 279 0 536 90 678 239 104 109 192 337 221 576 16 130 14 399 -4 524
-50 342 -195 624 -451 872 -228 220 -534 385 -869 468 -73 18 -243 49 -370 66
-96 14 -341 20 -497 13z"/>
<path d="M17655 18419 c-283 -19 -556 -70 -731 -138 -187 -72 -341 -195 -411
-326 -121 -230 -189 -643 -235 -1420 -14 -233 -16 -1514 -4 -2090 4 -165 11
-500 16 -745 10 -482 18 -591 55 -776 125 -622 479 -930 1155 -1004 112 -13
478 -16 607 -5 561 45 1010 159 1363 346 557 296 958 774 1205 1439 172 463
248 960 248 1630 0 358 -12 541 -53 815 -96 648 -324 1167 -675 1533 -386 404
-923 639 -1654 723 -201 23 -669 33 -886 18z m930 -1624 c222 -47 400 -233
503 -525 128 -367 147 -1002 47 -1582 -86 -492 -318 -920 -565 -1041 -123 -61
-269 -82 -392 -56 -186 38 -264 186 -288 543 -12 172 -11 1986 1 2109 30 310
167 503 392 552 83 18 216 18 302 0z"/>
<path d="M13137 18364 c-1 -2 -56 -4 -122 -5 -423 -6 -913 -127 -1245 -306
-557 -300 -962 -811 -1195 -1507 -155 -464 -225 -1014 -212 -1656 6 -302 16
-429 48 -655 116 -810 441 -1453 952 -1881 367 -308 828 -482 1427 -539 101
-10 434 -7 560 5 645 58 1152 285 1545 691 419 433 692 1054 805 1829 40 278
53 490 54 855 0 355 -8 507 -45 793 -134 1060 -582 1783 -1319 2131 -302 142
-717 234 -1080 240 -63 1 -127 3 -142 5 -15 2 -29 2 -31 0z m57 -1480 c167
-43 332 -191 473 -424 145 -241 266 -627 318 -1015 34 -254 29 -784 -11 -1100
-51 -406 -180 -717 -380 -917 -111 -112 -234 -163 -419 -174 -212 -13 -378 45
-524 182 -287 270 -469 713 -531 1294 -22 198 -12 582 20 785 85 551 264 958
531 1209 92 87 146 122 239 153 79 27 194 30 284 7z"/>
<path d="M22645 18299 c-225 -29 -432 -129 -602 -292 -150 -144 -251 -282
-354 -483 -199 -391 -304 -856 -361 -1604 -17 -222 -16 -1154 0 -1440 41 -680
162 -1213 368 -1608 192 -371 434 -614 781 -785 176 -87 301 -128 508 -166
176 -33 284 -40 535 -36 360 5 657 51 995 153 396 120 749 373 869 625 50 105
66 176 73 323 10 222 -24 417 -99 574 -32 66 -57 102 -117 161 -110 111 -214
157 -366 164 -160 7 -270 -30 -420 -141 -271 -201 -445 -269 -726 -281 -211
-9 -339 28 -442 130 -153 152 -208 339 -211 722 -2 278 26 368 122 395 23 6
271 10 668 10 697 0 741 3 880 61 135 56 260 172 325 301 47 93 62 175 57 313
-8 201 -69 344 -208 486 -89 91 -179 138 -310 165 -73 15 -122 16 -355 10
-284 -7 -411 -13 -560 -26 -49 -4 -162 -7 -250 -6 -145 1 -164 3 -202 24 -50
26 -87 78 -104 144 -19 78 -7 369 18 438 31 84 58 132 95 166 50 47 90 56 220
49 106 -6 184 -18 438 -66 66 -12 173 -22 285 -26 502 -17 822 120 962 412 46
97 63 187 63 333 1 193 -29 321 -100 431 -140 217 -364 326 -752 366 -119 12
-292 15 -900 14 -414 -1 -784 -6 -823 -10z"/>
<path d="M16025 11228 c-393 -23 -703 -176 -1039 -514 -446 -449 -797 -1191
-1060 -2239 -230 -920 -358 -2151 -296 -2850 43 -482 233 -804 525 -886 73
-20 311 -18 395 4 112 30 200 79 278 158 199 200 314 468 422 984 95 452 173
673 275 778 89 91 177 107 599 107 190 0 326 -4 350 -11 64 -18 121 -79 156
-170 55 -143 85 -305 130 -699 59 -520 143 -755 339 -951 96 -95 151 -127 274
-159 144 -36 341 -30 485 15 298 95 513 383 613 825 20 86 22 128 24 440 5
667 -62 1576 -156 2120 -120 695 -357 1362 -699 1970 -289 516 -613 839 -990
988 -197 78 -380 104 -625 90z m170 -1644 c70 -33 142 -169 211 -397 53 -178
121 -564 138 -792 19 -242 19 -251 -2 -298 -32 -71 -95 -110 -241 -146 -108
-28 -204 -34 -313 -22 -171 19 -274 62 -320 135 -18 29 -19 43 -14 181 13 341
124 816 255 1091 84 175 157 254 244 263 5 1 24 -6 42 -15z"/>
<path d="M6125 11199 c-116 -9 -178 -25 -285 -76 -83 -40 -107 -57 -190 -142
-55 -54 -117 -130 -144 -174 -99 -160 -188 -440 -220 -692 -34 -275 -38 -480
-33 -2230 4 -1850 3 -1810 56 -2084 81 -417 271 -712 561 -874 164 -91 375
-148 610 -163 47 -3 101 -7 120 -10 19 -3 222 -7 450 -9 363 -3 432 -2 552 15
396 53 686 182 920 408 183 178 287 366 339 615 29 139 31 358 5 476 -42 192
-104 337 -199 463 -159 211 -354 296 -562 243 -89 -23 -351 -161 -560 -296
-113 -73 -185 -106 -255 -117 -204 -31 -307 129 -351 543 -10 101 -15 1269 -5
1321 9 43 21 872 21 1369 0 368 -4 563 -13 638 -40 337 -150 550 -359 696 -89
61 -274 94 -458 80z"/>
<path d="M27875 11180 c-119 -17 -231 -68 -307 -143 -134 -130 -238 -378 -294
-697 -75 -437 -46 -1174 77 -1960 43 -276 -2 -431 -91 -309 -52 72 -203 385
-425 879 -94 208 -363 750 -468 940 -364 662 -703 1082 -987 1225 -103 52
-187 68 -310 62 -250 -13 -436 -97 -594 -268 -235 -254 -359 -658 -396 -1294
-11 -179 -19 -2164 -11 -2675 12 -815 103 -1386 280 -1756 110 -231 215 -348
368 -412 231 -97 606 -51 776 96 200 174 296 412 312 773 3 74 8 164 10 201 6
87 -11 343 -30 466 -9 53 -33 180 -55 282 -87 410 -104 764 -42 890 13 27 24
36 48 38 26 3 38 -4 69 -40 42 -50 191 -347 328 -658 470 -1063 745 -1524
1106 -1854 134 -122 235 -180 376 -216 174 -45 471 -8 644 79 206 105 368 309
465 590 115 331 149 635 161 1436 3 198 7 439 10 535 10 344 35 1107 40 1230
10 234 14 1444 5 1606 -20 365 -98 584 -267 745 -148 142 -319 201 -618 212
-66 3 -147 2 -180 -3z"/>
<path d="M20680 11159 c-379 -29 -760 -140 -1026 -298 -357 -213 -584 -509
-653 -848 -33 -159 -55 -512 -60 -919 -1 -106 -4 -202 -6 -215 -3 -12 -7 -547
-11 -1188 -7 -1225 -3 -1408 42 -1936 23 -274 80 -497 160 -632 133 -221 305
-339 544 -374 107 -15 352 -6 435 16 232 64 418 280 504 586 52 186 68 342 80
779 8 289 12 310 60 310 40 0 90 -57 297 -337 352 -476 505 -664 691 -844 410
-397 829 -609 1208 -610 121 0 163 4 245 27 163 46 333 190 408 344 54 110 72
181 78 310 13 235 -55 379 -291 616 -286 288 -561 461 -1415 894 -361 183
-439 231 -427 263 9 25 43 35 217 68 332 63 556 129 799 236 365 161 623 405
805 763 91 177 145 356 178 590 18 127 17 574 -1 695 -55 374 -158 617 -375
885 -281 348 -691 593 -1201 719 -127 31 -236 47 -635 95 -85 11 -535 14 -650
5z m665 -1314 c121 -33 203 -81 295 -174 124 -125 186 -241 217 -404 23 -120
13 -295 -22 -407 -105 -331 -367 -575 -683 -636 -219 -42 -405 23 -442 154
-15 54 -14 1131 2 1207 26 133 138 228 323 274 55 14 237 6 310 -14z"/>
<path d="M10505 11139 c-149 -19 -314 -80 -445 -163 -45 -29 -121 -95 -190
-165 -173 -174 -294 -363 -399 -619 -205 -500 -289 -1074 -296 -2012 -7 -944
42 -1464 184 -1960 126 -438 289 -732 550 -990 289 -286 665 -450 1146 -500
128 -13 537 -4 680 14 333 44 569 100 796 191 229 92 395 195 542 339 177 174
247 344 247 598 0 215 -33 384 -102 528 -32 66 -57 102 -117 161 -42 42 -99
88 -126 102 -159 80 -354 85 -508 14 -40 -19 -118 -68 -175 -111 -254 -189
-472 -266 -757 -265 -105 0 -193 14 -260 43 -97 41 -205 155 -256 270 -79 179
-113 605 -65 809 16 68 53 112 105 127 22 6 281 10 663 10 396 0 655 4 705 11
244 34 455 199 535 420 20 56 23 82 23 214 -1 142 -2 155 -32 238 -89 251
-265 405 -509 446 -88 15 -661 3 -894 -19 -47 -4 -157 -7 -245 -6 -144 1 -164
3 -202 23 -89 48 -113 117 -113 323 0 158 17 255 60 342 31 61 88 117 132 129
76 20 253 2 588 -62 155 -29 441 -36 590 -15 298 44 473 131 600 302 82 110
120 244 120 432 1 192 -29 321 -100 431 -141 217 -363 326 -752 366 -119 12
-292 15 -900 14 -414 -1 -784 -6 -823 -10z"/>
</g>
</svg>
