<?xml version="1.0" standalone="no"?>
<!DOCTYPE svg PUBLIC "-//W3C//DTD SVG 20010904//EN"
 "http://www.w3.org/TR/2001/REC-SVG-20010904/DTD/svg10.dtd">
<svg version="1.0" xmlns="http://www.w3.org/2000/svg"
 width="3020.000000pt" height="2309.000000pt" viewBox="0 0 3020.000000 2309.000000"
 preserveAspectRatio="xMidYMid meet">

<g transform="translate(0.000000,2309.000000) scale(0.100000,-0.100000)"
fill="url(#cta-gradient)" stroke="none">
<path d="M3253 17763 l-343 -3 0 -2820 0 -2820 675 0 675 0 0 1577 c0 867 4
1573 8 1567 5 -5 14 -27 20 -49 6 -22 19 -65 28 -95 8 -30 25 -89 36 -130 20
-79 23 -89 57 -210 12 -41 24 -90 28 -108 3 -18 10 -35 14 -38 5 -3 9 -15 9
-26 0 -12 4 -35 10 -52 9 -31 41 -144 62 -221 6 -22 20 -69 30 -105 21 -70 25
-83 58 -210 12 -47 26 -93 31 -102 5 -10 9 -24 9 -33 0 -8 12 -54 26 -102 29
-98 44 -155 99 -358 21 -77 44 -160 51 -185 41 -142 79 -278 103 -370 16 -58
36 -132 46 -165 9 -33 22 -80 30 -105 22 -79 66 -242 94 -349 16 -57 35 -109
44 -116 11 -8 261 -11 958 -11 l942 1 22 70 c12 39 32 108 45 155 12 47 26 99
31 115 30 100 62 215 69 245 5 19 13 52 19 73 6 20 16 54 22 75 5 20 14 51 19
67 4 17 20 75 34 130 15 55 31 108 36 117 6 10 10 26 10 35 0 10 12 56 26 103
14 47 36 123 49 170 63 233 87 318 130 470 26 91 57 206 70 255 13 50 36 133
50 185 15 52 45 158 67 235 57 205 68 245 82 295 7 25 28 99 45 165 18 66 40
135 49 154 16 32 17 -59 20 -1542 l2 -1577 675 0 675 0 0 2818 0 2819 -512 6
c-281 4 -748 7 -1038 7 l-527 0 -22 -72 c-12 -40 -26 -83 -32 -96 -5 -13 -9
-34 -9 -48 0 -13 -4 -32 -9 -42 -5 -9 -19 -55 -31 -102 -12 -47 -26 -94 -30
-105 -4 -11 -13 -38 -18 -60 -33 -122 -63 -232 -89 -325 -8 -30 -18 -68 -23
-85 -4 -16 -18 -64 -30 -105 -12 -41 -25 -91 -30 -110 -5 -19 -13 -52 -19 -72
-6 -21 -16 -55 -22 -75 -11 -41 -25 -90 -39 -138 -5 -16 -16 -59 -25 -95 -9
-36 -20 -74 -25 -85 -5 -11 -11 -31 -14 -45 -2 -14 -9 -42 -15 -62 -13 -45
-22 -77 -50 -178 -41 -147 -63 -226 -82 -300 -11 -41 -26 -95 -34 -120 -7 -25
-18 -63 -24 -85 -6 -22 -19 -71 -31 -110 -18 -64 -80 -287 -100 -360 -4 -16
-18 -66 -30 -110 -47 -166 -73 -263 -100 -365 -16 -58 -35 -127 -44 -155 -8
-27 -22 -77 -31 -110 -9 -33 -21 -73 -25 -90 -33 -115 -50 -178 -64 -229 -9
-32 -19 -63 -23 -69 -7 -12 -21 20 -33 73 -8 35 -44 166 -80 290 -11 36 -25
88 -31 115 -6 28 -15 59 -20 70 -4 11 -10 31 -13 45 -2 14 -14 59 -26 100 -12
41 -25 89 -30 105 -5 17 -18 64 -30 105 -12 41 -25 91 -30 110 -20 84 -62 237
-70 255 -5 11 -11 31 -13 45 -9 45 -38 155 -47 175 -5 11 -11 31 -14 45 -2 14
-14 59 -26 100 -12 41 -24 86 -27 100 -2 14 -8 34 -13 45 -5 11 -16 49 -25 85
-20 79 -28 109 -75 270 -12 41 -25 91 -30 110 -4 19 -18 69 -30 110 -12 41
-25 91 -30 110 -4 19 -18 69 -30 110 -12 41 -24 86 -26 100 -3 14 -9 34 -14
45 -5 11 -11 31 -14 45 -2 14 -14 59 -26 100 -12 41 -30 109 -42 150 -11 41
-24 89 -28 105 -5 17 -16 57 -24 90 -9 33 -25 89 -36 125 -19 63 -50 175 -70
253 -20 76 -31 114 -56 202 -14 50 -32 114 -39 144 -7 29 -19 57 -26 62 -13 8
-852 9 -1726 2z"/>
<path d="M9957 17753 c-4 -3 -7 -1272 -7 -2820 l0 -2813 675 0 675 0 0 2820 0
2820 -668 0 c-368 0 -672 -3 -675 -7z"/>
<path d="M11930 14940 l0 -2820 673 2 672 3 5 1889 c4 1380 8 1885 16 1875 6
-8 24 -41 39 -74 31 -68 121 -255 250 -520 48 -99 100 -209 116 -244 17 -35
70 -145 118 -245 134 -274 343 -706 426 -881 98 -206 177 -370 272 -565 53
-107 108 -222 123 -255 15 -33 81 -168 145 -300 64 -132 128 -265 142 -295 81
-176 184 -378 195 -382 7 -3 453 -6 991 -7 l977 -2 -2 2818 -3 2818 -680 0
-680 0 -3 -1870 c-1 -1030 -6 -1873 -11 -1878 -5 -5 -15 8 -24 30 -8 21 -56
124 -107 228 -51 105 -116 240 -145 300 -168 348 -205 426 -285 590 -48 99
-117 241 -153 315 -147 306 -218 452 -277 575 -108 224 -184 382 -299 619 -61
125 -111 230 -111 232 0 1 -49 103 -109 226 -59 123 -132 273 -160 333 -29 61
-74 153 -100 205 l-47 95 -982 3 -982 2 0 -2820z"/>
<path d="M17717 17753 c-4 -3 -7 -1272 -7 -2820 l0 -2813 1890 0 1890 0 -2
678 -3 677 -1205 5 -1205 5 -3 388 -2 387 849 0 c680 0 850 3 854 13 2 7 5
309 5 670 0 561 -3 660 -15 673 -12 12 -135 14 -854 14 l-839 0 0 390 0 390
1208 2 1207 3 0 670 0 670 -1881 3 c-1034 1 -1884 -1 -1887 -5z"/>
<path d="M23703 17599 c-28 -14 -45 -30 -52 -51 -6 -18 -11 -111 -11 -219 l0
-189 -82 -2 c-46 -1 -92 -2 -103 -3 -11 -1 -51 -3 -88 -4 -61 -1 -72 -4 -98
-30 l-29 -29 0 -252 c0 -219 2 -256 17 -281 9 -15 24 -32 32 -36 9 -4 90 -10
181 -13 l165 -5 5 -190 c3 -132 9 -197 18 -213 29 -50 32 -50 738 -54 362 -2
720 -5 794 -8 l135 -5 0 -110 0 -110 -183 -5 -184 -5 -24 -30 c-23 -29 -24
-36 -24 -187 0 -143 -2 -158 -17 -159 -10 -1 -85 -2 -168 -4 -208 -3 -201 -2
-232 -29 l-28 -24 -5 -209 -5 -208 -178 -5 -179 -5 -24 -28 c-23 -27 -24 -32
-24 -206 0 -132 -3 -181 -13 -189 -7 -6 -83 -12 -181 -14 l-168 -3 -24 -30
c-23 -29 -24 -35 -24 -217 l0 -188 -149 0 c-109 0 -158 -4 -184 -15 -64 -26
-67 -38 -67 -242 0 -181 0 -183 -22 -188 -13 -2 -103 -6 -201 -7 l-179 -3 -24
-28 c-23 -27 -24 -32 -24 -210 0 -100 -4 -187 -8 -193 -4 -7 -62 -14 -147 -18
-77 -3 -159 -9 -183 -12 -69 -10 -76 -29 -82 -224 l-5 -165 -172 -5 c-172 -5
-173 -5 -200 -33 l-28 -27 0 -491 0 -491 33 -29 32 -29 436 0 c472 0 477 1
502 55 8 17 12 90 12 215 0 132 3 191 12 196 6 4 93 8 194 8 249 2 245 -2 253
256 l6 165 160 5 c229 7 225 3 225 235 0 74 3 140 6 149 5 14 29 16 155 16
248 0 249 1 249 262 l0 188 23 1 c12 0 78 2 147 3 151 4 180 10 211 42 23 25
24 33 29 212 l5 187 190 5 c144 4 196 9 213 20 38 25 52 96 52 272 l0 158 163
0 c252 0 256 4 256 268 l1 162 154 0 c161 0 198 8 224 51 6 9 14 106 17 215 4
110 10 203 14 207 4 4 50 6 102 5 l94 -3 3 -867 2 -866 29 -31 c16 -17 40 -32
53 -32 12 -1 97 -2 188 -3 91 -1 171 -5 178 -9 9 -6 12 -57 12 -196 0 -265
-14 -254 328 -249 l212 3 27 28 28 27 3 188 c2 103 8 191 12 196 5 5 76 11
157 12 82 1 161 7 176 13 18 7 35 26 47 53 19 42 20 78 20 1156 l0 1114 -29
29 -29 29 -167 0 c-163 0 -166 0 -174 23 -5 12 -9 254 -10 537 -1 283 -4 562
-7 620 -5 107 -13 128 -56 151 -10 5 -271 12 -600 15 -321 3 -589 7 -595 9
-10 3 -13 48 -13 177 0 207 -5 240 -38 273 l-25 25 -1061 0 c-1045 -1 -1062
-1 -1103 -21z"/>
<path d="M5590 11198 c-307 -36 -508 -80 -740 -160 -47 -16 -96 -34 -110 -40
-14 -6 -34 -14 -45 -19 -49 -19 -276 -132 -330 -164 -33 -19 -75 -43 -92 -52
-18 -9 -33 -20 -33 -25 0 -4 -6 -8 -12 -8 -7 0 -54 -31 -103 -68 -327 -243
-548 -472 -752 -777 -76 -114 -191 -325 -242 -445 -13 -30 -32 -73 -41 -95
-10 -22 -23 -60 -31 -85 -7 -25 -16 -49 -21 -54 -4 -6 -8 -20 -8 -31 0 -12 -3
-25 -7 -29 -7 -7 -38 -113 -53 -181 -5 -22 -14 -62 -20 -90 -42 -185 -55 -325
-55 -595 1 -326 3 -346 75 -705 10 -47 37 -149 50 -185 5 -14 23 -65 40 -115
17 -49 40 -109 51 -132 10 -24 19 -46 19 -49 0 -11 139 -285 160 -314 11 -15
20 -31 20 -35 0 -9 150 -227 217 -315 89 -118 373 -395 508 -496 112 -84 289
-204 301 -204 3 0 24 -12 47 -28 66 -43 233 -122 387 -181 47 -19 93 -37 102
-42 10 -5 29 -9 42 -9 14 0 27 -4 30 -9 3 -5 18 -11 33 -14 16 -3 46 -11 68
-17 253 -72 430 -94 775 -94 261 0 392 9 505 34 28 6 75 15 105 21 90 15 234
50 275 68 11 4 45 16 75 26 30 10 69 23 85 30 17 7 46 18 65 26 167 61 535
268 655 367 11 9 38 30 60 46 145 106 341 306 509 517 35 44 150 207 162 230
16 31 32 19 -274 207 -20 12 -44 25 -52 29 -8 4 -19 11 -25 16 -9 8 -128 81
-490 302 -82 51 -180 111 -217 133 -37 23 -72 42 -76 42 -5 0 -28 -28 -50 -63
-58 -90 -185 -230 -283 -313 -119 -101 -291 -206 -414 -253 -33 -13 -69 -27
-80 -31 -32 -13 -156 -47 -210 -59 -118 -24 -227 -33 -365 -28 -166 6 -244 16
-350 47 -41 11 -88 25 -105 29 -32 9 -67 23 -125 48 -469 204 -813 624 -925
1128 -38 173 -38 497 0 670 9 40 45 165 55 190 101 257 211 425 392 601 86 84
235 204 254 204 4 0 15 6 23 14 44 39 262 138 371 168 199 54 296 65 520 61
278 -6 596 -110 825 -271 109 -77 117 -84 220 -187 102 -101 120 -122 190
-217 28 -38 54 -68 59 -68 11 0 126 68 208 122 31 21 59 38 62 38 2 0 32 18
65 40 33 22 63 40 66 40 3 0 37 20 75 45 39 25 101 65 140 90 38 25 72 45 76
45 3 0 25 14 49 30 24 17 46 30 50 30 3 0 32 17 63 38 31 21 108 69 170 106
61 38 112 73 112 79 0 33 -199 302 -330 446 -93 102 -212 214 -341 318 -71 59
-245 183 -254 183 -4 0 -27 14 -52 31 -47 32 -288 157 -383 198 -64 28 -202
79 -245 91 -42 11 -232 59 -280 70 -272 60 -624 84 -845 58z"/>
<path d="M9003 11083 l-343 -3 0 -2820 0 -2820 675 0 675 0 0 859 c0 473 3
866 6 875 5 14 51 16 408 16 220 0 406 -4 412 -8 6 -4 25 -34 43 -67 18 -32
41 -71 52 -86 10 -15 19 -30 19 -34 0 -4 8 -19 18 -33 11 -15 32 -52 49 -82
34 -63 86 -152 150 -257 23 -40 43 -75 43 -79 0 -3 8 -18 19 -32 10 -15 28
-44 40 -64 75 -134 159 -276 182 -310 11 -15 19 -29 19 -32 0 -7 345 -599 370
-635 l15 -21 775 0 c2233 -1 2147 -2 2155 18 4 9 11 33 15 52 8 34 40 146 80
280 22 73 48 168 60 220 5 19 18 69 30 110 12 41 24 86 27 100 2 14 8 34 13
45 5 11 15 43 23 70 l14 50 846 3 846 2 14 -27 c8 -16 21 -55 30 -88 15 -58
27 -102 62 -230 9 -33 20 -73 25 -90 4 -16 18 -64 30 -105 12 -41 24 -90 27
-108 3 -18 9 -35 14 -38 5 -3 9 -15 9 -28 0 -12 9 -49 19 -82 11 -32 25 -80
32 -106 l13 -48 698 0 c391 0 698 4 698 9 0 9 -30 126 -54 211 -9 30 -27 98
-42 150 -28 102 -32 116 -64 230 -12 41 -25 91 -30 110 -5 19 -18 69 -30 110
-12 41 -26 91 -30 110 -4 19 -20 73 -34 120 -14 47 -26 95 -26 107 0 12 -4 24
-9 27 -4 3 -11 20 -14 38 -7 33 -25 102 -87 318 -12 41 -26 91 -30 110 -9 35
-23 89 -40 145 -5 17 -13 46 -19 65 -5 19 -19 69 -31 110 -12 41 -25 91 -30
110 -31 125 -67 251 -73 256 -4 4 -7 16 -7 26 0 10 -9 49 -20 86 -12 37 -26
85 -32 107 -6 22 -15 54 -19 70 -26 92 -52 184 -60 215 -5 19 -21 76 -35 125
-14 50 -30 106 -34 125 -5 19 -18 69 -30 110 -12 41 -25 91 -30 110 -4 19 -18
69 -30 110 -12 41 -33 116 -46 165 -13 50 -31 113 -39 140 -52 182 -79 281
-99 361 -13 49 -28 106 -35 125 -10 32 -34 116 -141 509 -23 85 -46 166 -50
180 -9 24 -28 96 -89 327 -15 57 -31 106 -34 110 -4 3 -7 15 -7 25 0 10 -9 49
-20 86 -12 37 -26 85 -31 107 -6 22 -15 50 -20 63 l-9 22 -954 0 c-618 0 -957
-3 -961 -10 -3 -5 -13 -36 -21 -67 -8 -32 -23 -87 -34 -123 -10 -36 -26 -92
-35 -125 -9 -33 -23 -80 -30 -105 -8 -25 -24 -83 -36 -130 -12 -47 -29 -107
-36 -135 -8 -27 -21 -74 -29 -102 -32 -118 -44 -163 -74 -268 -17 -60 -44
-159 -60 -220 -36 -135 -74 -272 -95 -345 -9 -30 -22 -77 -29 -105 -8 -27 -28
-102 -46 -165 -17 -63 -35 -131 -40 -150 -5 -19 -19 -69 -31 -110 -11 -41 -25
-88 -29 -105 -13 -48 -39 -141 -56 -202 -9 -32 -20 -74 -24 -93 -5 -19 -18
-69 -30 -110 -12 -41 -26 -88 -30 -105 -5 -16 -18 -64 -30 -105 -12 -41 -25
-91 -30 -110 -5 -19 -18 -69 -30 -110 -12 -41 -24 -90 -27 -108 -3 -18 -9 -35
-14 -38 -5 -3 -9 -14 -9 -25 0 -11 -9 -50 -20 -87 -12 -37 -25 -83 -30 -102
-6 -19 -22 -75 -36 -125 -14 -49 -30 -106 -34 -125 -4 -19 -18 -69 -30 -110
-12 -41 -24 -86 -26 -100 -3 -14 -9 -34 -14 -45 -5 -11 -11 -31 -14 -45 -2
-14 -9 -42 -15 -62 -6 -21 -16 -55 -22 -75 -6 -21 -14 -54 -19 -73 -5 -19 -18
-69 -30 -110 -12 -41 -25 -91 -30 -110 -5 -19 -18 -69 -30 -110 -12 -41 -25
-88 -30 -105 -5 -16 -18 -64 -30 -105 -21 -74 -29 -105 -49 -185 -11 -47 -45
-163 -54 -185 -3 -8 -8 -26 -10 -40 -3 -14 -15 -59 -26 -100 -12 -41 -30 -107
-41 -146 -30 -108 -44 -146 -55 -145 -8 1 -101 151 -195 316 -31 54 -162 277
-258 440 -52 88 -103 174 -112 190 -10 17 -41 70 -69 118 -28 49 -51 93 -51
98 0 5 -4 9 -10 9 -5 0 -10 5 -10 10 0 6 -11 27 -24 48 -36 56 -216 363 -316
538 -10 17 -37 62 -59 99 -23 37 -41 68 -41 70 0 2 35 28 78 58 380 266 628
586 763 983 147 434 143 860 -11 1299 -136 384 -408 728 -772 973 -26 18 -49
32 -51 32 -3 0 -34 17 -68 38 -72 42 -175 90 -264 122 -33 12 -69 26 -80 30
-49 19 -200 54 -315 72 -63 10 -1740 17 -2517 11z m2427 -1381 c134 -55 234
-130 298 -226 119 -177 139 -386 57 -572 -60 -136 -183 -258 -310 -307 -128
-49 -130 -50 -805 -51 -374 -1 -640 2 -647 7 -10 7 -13 135 -13 577 0 313 3
576 6 585 6 15 63 16 683 13 673 -4 676 -4 731 -26z m4486 -299 c17 -70 45
-175 67 -253 13 -47 27 -94 30 -105 24 -90 141 -514 157 -565 10 -36 29 -101
41 -145 12 -44 33 -120 46 -170 14 -49 29 -106 33 -125 9 -41 55 -202 70 -245
5 -16 6 -33 2 -37 -5 -5 -215 -7 -468 -6 l-459 3 3 25 c3 27 7 45 48 185 14
50 30 106 34 125 4 19 16 62 25 95 34 123 47 172 69 261 13 49 28 106 34 125
6 19 15 52 21 74 13 47 46 169 66 243 26 92 43 154 75 277 17 66 35 131 40
145 4 14 14 46 20 73 14 53 36 62 46 20z"/>
<path d="M20533 11082 l-1853 -2 0 -2820 0 -2820 673 2 672 3 5 1065 5 1065
844 3 c606 1 848 5 858 13 11 10 13 128 11 678 l-3 666 -855 5 c-470 3 -856 6
-858 8 -1 1 -1 176 0 390 l3 387 2094 2 c1666 2 2096 0 2103 -10 4 -6 8 -972
8 -2144 l0 -2133 674 0 c581 0 675 2 679 15 4 8 6 968 6 2135 0 1166 3 2125 6
2130 4 7 331 10 919 10 719 0 916 3 924 13 11 13 14 1308 3 1326 -7 12 -3443
18 -6918 13z"/>
</g>
</svg>
