<?xml version="1.0" standalone="no"?>
<!DOCTYPE svg PUBLIC "-//W3C//DTD SVG 20010904//EN"
 "http://www.w3.org/TR/2001/REC-SVG-20010904/DTD/svg10.dtd">
<svg version="1.0" xmlns="http://www.w3.org/2000/svg"
 width="3020.000000pt" height="2309.000000pt" viewBox="0 0 3020.000000 2309.000000"
 preserveAspectRatio="xMidYMid meet">

<g transform="translate(0.000000,2309.000000) scale(0.100000,-0.100000)"
fill="url(#cta-gradient)" stroke="none">
<path d="M19710 19105 c-79 -16 -137 -32 -170 -48 -74 -35 -157 -97 -220 -164
-201 -215 -236 -528 -89 -798 49 -89 176 -212 269 -258 183 -92 392 -103 570
-30 100 41 154 77 230 153 120 120 200 309 200 475 0 165 -78 351 -198 473
-120 121 -205 164 -387 197 -93 17 -117 17 -205 0z"/>
<path d="M10340 19093 c-547 -30 -871 -66 -1215 -134 -226 -45 -212 -42 -450
-108 -182 -50 -412 -139 -580 -223 -66 -33 -127 -66 -135 -72 -8 -7 -46 -31
-85 -53 -124 -73 -333 -256 -416 -362 -117 -152 -186 -294 -230 -474 -18 -74
-19 -126 -19 -1015 0 -515 4 -943 8 -949 6 -10 388 -13 1833 -15 l1824 -3 0
-255 0 -255 -2720 -6 c-1496 -3 -2731 -8 -2745 -12 -14 -3 -56 -11 -95 -18
-309 -50 -615 -186 -890 -393 -173 -131 -453 -444 -540 -604 -11 -20 -39 -68
-62 -107 -125 -214 -250 -521 -323 -795 -12 -47 -26 -98 -31 -115 -13 -46 -40
-163 -49 -214 -4 -25 -15 -84 -23 -131 -18 -97 -50 -336 -66 -485 -29 -271
-38 -1031 -16 -1325 19 -243 28 -343 46 -480 31 -239 71 -480 89 -534 6 -16
10 -42 10 -57 0 -15 5 -31 10 -34 6 -3 10 -16 10 -28 0 -50 113 -415 183 -587
156 -390 329 -662 582 -916 203 -204 417 -348 640 -431 22 -8 49 -19 60 -23
31 -14 124 -40 194 -56 133 -29 275 -34 921 -34 l658 0 6 28 c3 15 5 455 5
977 -1 603 3 986 10 1050 25 236 72 433 166 695 31 88 135 287 203 390 80 122
120 170 252 301 308 304 758 489 1255 514 66 4 126 8 133 11 7 2 889 4 1960 5
2065 0 1944 -2 2207 45 429 77 837 283 1101 556 83 86 184 212 227 283 87 143
175 366 217 550 56 241 53 140 56 2079 1 984 5 1819 8 1855 12 129 -26 347
-89 516 -193 514 -685 918 -1410 1160 -357 119 -765 202 -1225 249 -331 34
-558 44 -1015 42 -220 0 -420 -2 -445 -3z m-1403 -1178 c231 -54 413 -224 485
-453 17 -53 21 -93 21 -192 0 -122 -6 -158 -46 -264 -19 -50 -103 -169 -153
-217 -201 -192 -510 -233 -767 -103 -100 51 -230 189 -282 298 -71 150 -82
354 -28 501 17 46 72 158 82 165 3 3 23 26 44 52 84 105 225 187 382 221 47
11 205 6 262 -8z"/>
<path d="M15028 19080 c-15 -13 -16 -21 -8 -55 13 -54 12 -784 -1 -864 -14
-88 -10 -91 117 -91 117 0 127 6 113 69 -5 20 -9 64 -9 98 0 73 -5 70 132 76
75 3 91 7 121 30 66 50 70 69 68 361 -2 242 -3 262 -22 293 -48 77 -96 91
-333 95 -131 2 -163 0 -178 -12z m306 -189 c9 -13 10 -366 2 -379 -11 -18 -83
-15 -90 4 -3 9 -6 91 -6 184 0 93 3 175 6 184 7 17 78 23 88 7z"/>
<path d="M15622 19086 c-4 -6 -5 -128 -2 -271 5 -255 6 -261 29 -296 27 -39
75 -75 116 -85 l27 -7 -3 -166 c-2 -91 0 -172 5 -179 10 -17 215 -17 217 1 1
6 2 86 3 177 l1 165 44 22 c24 12 55 33 69 45 47 44 52 71 52 310 0 123 4 229
9 236 13 21 27 -5 43 -78 l14 -65 67 -3 67 -3 0 -403 c0 -336 2 -406 14 -415
16 -14 157 -13 194 0 l22 9 0 405 0 405 84 0 c95 0 104 7 82 62 -8 18 -17 52
-21 75 -4 24 -11 45 -16 48 -12 8 -528 9 -536 1 -3 -3 -13 0 -21 6 -18 15
-210 19 -219 5 -4 -6 -5 -111 -4 -233 l3 -222 -41 -4 c-23 -2 -50 0 -62 4 -21
8 -21 12 -18 227 2 121 0 223 -4 228 -13 12 -206 11 -215 -1z"/>
<path d="M16834 19080 c-5 -8 -7 -208 -4 -445 3 -236 2 -452 -1 -480 -11 -82
-5 -86 119 -83 l106 3 -1 194 c-1 109 3 203 8 213 13 24 120 26 139 3 9 -10
11 -67 9 -209 -2 -107 0 -198 4 -202 10 -10 200 -5 210 5 9 9 11 996 2 1010
-6 11 -201 9 -212 -2 -4 -5 -6 -93 -4 -196 l3 -188 -24 -6 c-35 -10 -97 -8
-118 3 -18 10 -19 23 -17 195 0 101 -2 187 -6 191 -4 4 -52 8 -106 9 -79 0
-101 -2 -107 -15z"/>
<path d="M18204 19089 c-3 -6 -6 -236 -6 -512 l1 -502 108 0 108 0 5 275 5
275 21 -45 c24 -49 41 -89 100 -225 35 -82 39 -98 39 -177 0 -53 5 -91 12 -99
13 -13 193 -13 206 0 9 9 11 996 3 1010 -8 12 -206 10 -214 -3 -4 -6 -5 -94
-3 -195 4 -200 -3 -219 -41 -126 -12 28 -33 77 -48 110 -15 33 -38 89 -50 125
-34 96 -35 97 -145 98 -54 0 -97 -4 -101 -9z"/>
<path d="M6472 19062 c-79 -13 -107 -14 -201 -3 -59 7 -122 10 -138 7 -44 -10
-77 -49 -74 -89 1 -17 4 -198 7 -400 3 -275 2 -368 -7 -365 -10 3 -109 192
-310 590 -32 64 -59 125 -59 135 0 34 -45 96 -83 116 -34 18 -45 18 -137 7
-55 -6 -119 -9 -143 -6 -133 17 -216 17 -247 1 -46 -24 -53 -53 -39 -164 16
-133 15 -1818 -1 -1926 -15 -99 -5 -128 54 -150 33 -12 54 -14 106 -6 36 5
124 7 195 3 212 -9 215 -9 248 28 25 28 28 37 21 69 -10 46 -13 1067 -3 1083
5 7 10 10 12 8 2 -3 54 -104 115 -225 60 -121 133 -263 162 -315 118 -219 120
-224 120 -340 0 -58 -5 -123 -11 -145 -6 -22 -13 -49 -15 -60 -7 -26 34 -86
70 -104 23 -11 45 -11 115 -2 47 6 142 9 211 6 177 -8 192 -7 219 13 34 25 43
65 32 142 -6 38 -11 444 -11 970 -1 837 3 994 25 1030 10 16 -24 70 -58 90
-37 23 -49 23 -175 2z"/>
<path d="M17635 19065 c-45 -24 -62 -42 -84 -91 -20 -42 -21 -60 -21 -401 1
-349 1 -359 23 -403 13 -27 39 -57 65 -75 44 -30 44 -30 185 -30 164 0 184 4
232 47 64 56 65 60 65 467 -1 410 0 406 -73 465 l-39 31 -161 3 c-133 2 -167
0 -192 -13z m240 -495 l0 -315 -57 -3 -58 -3 0 321 0 321 58 -3 57 -3 0 -315z"/>
<path d="M24563 19046 c-55 -26 -113 -92 -113 -130 0 -12 15 -68 34 -126 l34
-105 -5 -520 c-2 -286 -5 -572 -5 -635 -3 -215 13 -725 24 -790 33 -201 228
-424 478 -549 145 -73 239 -100 407 -117 37 -3 72 -13 85 -24 l23 -18 -1 -623
c-2 -610 -2 -625 -23 -679 -45 -118 -37 -195 28 -257 59 -56 113 -75 201 -70
41 3 109 12 150 21 56 12 134 16 306 16 232 0 268 -2 379 -22 132 -24 180 -22
236 8 62 34 116 95 125 140 4 22 -1 57 -15 101 -41 130 -44 185 -45 785 0 657
-7 610 87 622 55 7 75 12 202 46 344 93 584 281 684 536 49 125 50 154 52 915
2 393 2 803 0 912 -1 109 3 213 8 230 5 18 17 68 27 113 15 72 15 83 1 110
-62 119 -200 151 -427 99 -42 -10 -398 -12 -505 -3 -55 4 -126 15 -157 24
-154 45 -349 -46 -351 -163 0 -21 11 -69 23 -108 l24 -70 0 -882 c0 -485 -3
-886 -8 -890 -4 -4 -146 -9 -315 -11 -293 -3 -309 -2 -332 17 l-24 19 0 864
c0 929 -3 852 47 1019 20 70 -24 139 -122 189 -49 25 -183 27 -270 5 -118 -30
-561 -25 -710 9 -101 23 -175 21 -237 -8z"/>
<path d="M21052 19035 c-56 -25 -107 -71 -127 -114 -17 -39 -17 -41 6 -123
l24 -83 3 -1935 2 -1935 -22 -105 c-43 -199 -25 -256 100 -312 60 -27 72 -29
146 -25 45 3 106 10 136 16 79 15 600 16 675 1 33 -6 90 -14 126 -17 57 -4 74
-1 116 21 61 30 108 82 124 136 11 35 9 52 -10 128 -36 135 -38 165 -37 488 1
277 3 305 19 321 16 17 53 18 515 20 541 3 576 6 754 64 246 80 442 235 535
424 33 66 52 163 57 296 3 69 10 148 16 177 13 56 10 139 -10 332 -11 101 -11
243 -2 740 7 338 12 626 13 640 3 48 -22 175 -45 232 -80 197 -254 368 -476
467 -108 48 -107 48 -195 70 -110 27 -208 40 -350 46 -66 3 -138 8 -159 11
-46 6 -935 5 -986 -1 -98 -12 -492 -5 -605 11 -174 24 -302 28 -343 9z m1788
-903 l22 -18 4 -831 c2 -509 0 -842 -6 -857 -18 -48 -53 -56 -242 -56 -160 0
-282 11 -297 26 -3 3 -6 391 -7 862 0 743 1 859 14 875 14 15 39 17 252 17
213 0 240 -2 260 -18z"/>
<path d="M3655 19018 c-67 -15 -178 -76 -232 -127 -47 -45 -59 -63 -92 -144
-12 -30 -27 -189 -25 -277 0 -30 3 -347 6 -705 l5 -650 26 -55 c49 -104 148
-184 294 -237 43 -16 90 -18 423 -18 l375 0 74 27 c141 53 219 120 275 237
l31 66 3 705 c3 749 -2 869 -39 943 -56 109 -170 197 -304 233 -58 16 -752 18
-820 2z m552 -431 c10 -6 13 -153 12 -670 -1 -364 -5 -669 -9 -677 -7 -13 -30
-15 -146 -13 -76 2 -142 7 -147 12 -6 6 -12 1104 -8 1323 1 17 7 28 19 30 34
7 267 3 279 -5z"/>
<path d="M15036 17814 c-15 -7 -20 -17 -17 -35 9 -62 10 -811 1 -878 -14 -102
-10 -106 116 -105 113 0 128 9 113 72 -11 49 -11 143 0 161 7 11 34 15 105 16
84 1 99 4 134 27 71 47 74 66 73 359 -1 143 -5 269 -10 282 -10 25 -54 68 -91
88 -33 17 -394 29 -424 13z m304 -196 c4 -159 1 -368 -4 -376 -9 -16 -69 -15
-84 0 -13 13 -18 369 -5 381 12 13 93 8 93 -5z"/>
<path d="M15623 17817 c-7 -12 -4 -471 4 -515 8 -46 79 -122 123 -131 l35 -7
1 -177 c0 -97 4 -180 7 -184 4 -3 52 -7 108 -7 75 -1 103 2 108 12 4 8 6 81 3
162 -6 178 -2 195 37 203 38 8 100 63 117 104 10 24 14 91 14 255 0 123 4 229
9 236 12 20 27 -4 42 -71 7 -31 18 -62 26 -68 7 -7 37 -12 66 -13 l52 -1 3
-399 c1 -274 6 -403 13 -413 12 -14 171 -19 203 -7 14 5 16 51 16 416 l0 410
81 -3 c68 -3 82 -1 90 14 6 10 6 23 1 34 -6 10 -15 44 -23 76 -7 32 -16 60
-21 63 -13 8 -527 8 -535 1 -3 -4 -12 -2 -20 4 -14 12 -197 19 -215 8 -7 -5
-11 -80 -12 -231 l-1 -223 -55 0 -55 0 0 222 c-1 122 -4 225 -8 229 -10 11
-207 12 -214 1z"/>
<path d="M16838 17819 c-10 -6 -12 -816 -3 -842 3 -6 1 -43 -3 -80 -7 -58 -6
-72 8 -89 14 -18 22 -19 61 -11 24 5 61 6 82 1 73 -15 73 -15 71 207 -2 219
-1 223 62 219 22 -1 52 -2 67 -3 l29 -1 -3 -205 c-2 -149 0 -208 9 -217 8 -8
23 -9 54 -2 26 6 60 6 87 1 76 -15 72 -43 72 517 0 273 -2 500 -5 505 -6 9
-203 7 -213 -3 -4 -4 -7 -91 -8 -194 l0 -187 -69 -3 c-48 -2 -72 1 -78 10 -5
7 -8 93 -6 190 2 97 -1 180 -5 184 -8 9 -195 11 -209 3z"/>
<path d="M18580 17798 c-167 -35 -269 -88 -375 -193 -81 -79 -132 -164 -169
-279 -22 -66 -26 -97 -26 -194 0 -202 58 -341 199 -482 88 -87 193 -151 272
-166 19 -4 42 -11 52 -16 32 -16 255 -11 326 7 36 10 72 21 80 25 9 4 30 14
46 21 83 37 188 127 245 209 147 216 170 447 66 692 -15 36 -103 159 -135 188
-164 153 -395 227 -581 188z"/>
<path d="M19930 17609 c-93 -10 -130 -24 -213 -79 -86 -57 -154 -143 -192
-240 -21 -56 -25 -82 -25 -176 0 -125 18 -188 85 -288 137 -207 421 -271 657
-149 67 35 163 136 200 210 101 205 66 417 -96 578 -121 121 -240 162 -416
144z"/>
<path d="M15026 16581 c-11 -12 -12 -27 -6 -61 13 -67 12 -794 -1 -862 -17
-84 -11 -88 117 -88 118 0 132 8 114 71 -14 47 -12 153 2 167 8 8 47 12 108
12 74 0 101 4 122 18 30 20 61 57 72 87 4 11 7 136 7 279 -2 296 -4 309 -81
359 -33 21 -91 27 -283 31 -132 2 -159 0 -171 -13z m315 -293 c2 -222 1 -257
-4 -273 -9 -21 -83 -21 -91 1 -8 21 -8 369 1 377 3 4 26 7 50 7 l43 0 1 -112z"/>
<path d="M15618 16587 c-2 -7 -1 -129 2 -273 l5 -261 29 -37 c33 -44 81 -76
114 -76 l24 0 -3 -173 c-2 -95 0 -178 5 -185 9 -15 197 -17 212 -2 7 7 9 63 6
159 -3 82 -2 160 1 173 4 16 19 28 42 37 47 17 95 58 111 96 13 32 24 521 11
541 -9 15 -204 16 -213 2 -4 -6 -8 -110 -8 -232 l-1 -221 -55 0 -55 0 0 220
c-1 121 -4 225 -8 232 -10 16 -214 17 -219 0z"/>
<path d="M19290 16560 c-124 -21 -223 -129 -236 -259 -14 -129 48 -246 159
-301 112 -55 201 -49 309 19 99 63 152 199 122 315 -42 163 -185 254 -354 226z"/>
<path d="M17435 16510 c-144 -20 -256 -79 -370 -194 -62 -62 -90 -100 -120
-161 -54 -111 -53 -109 -70 -215 -13 -83 -13 -107 0 -191 14 -99 20 -118 62
-204 45 -94 56 -109 127 -179 80 -80 149 -124 248 -160 75 -27 215 -49 268
-43 99 13 138 22 199 44 268 97 441 346 441 634 -1 192 -64 344 -200 479 -89
88 -173 139 -286 174 -63 19 -218 27 -299 16z"/>
<path d="M19943 16450 c-65 -32 -96 -62 -140 -138 -24 -40 -27 -56 -27 -132 0
-68 5 -94 22 -127 48 -93 110 -141 220 -169 46 -12 65 -13 107 -3 106 26 182
84 223 172 17 36 22 65 22 127 0 44 -4 88 -9 98 -5 9 -15 30 -22 45 -7 15 -31
46 -53 69 -90 92 -225 115 -343 58z"/>
<path d="M4435 16371 l-90 -6 -5 -140 c-3 -79 -9 -139 -14 -139 -6 1 -42 64
-82 140 l-72 139 -108 0 -108 0 -1 -413 c0 -359 2 -413 15 -416 24 -7 198 -2
205 6 4 3 8 96 8 205 1 109 6 199 11 201 5 2 40 -56 78 -129 66 -128 68 -134
68 -205 0 -61 3 -73 18 -78 22 -6 200 -1 207 6 3 3 6 187 5 409 0 366 -2 405
-17 417 -9 6 -19 11 -22 10 -3 -1 -46 -4 -96 -7z"/>
<path d="M3436 16355 c-54 -14 -90 -37 -113 -72 -16 -25 -18 -57 -18 -333 1
-355 0 -352 94 -398 51 -24 64 -26 186 -26 161 0 211 15 256 77 l29 40 0 299
c0 330 -1 335 -63 382 -18 14 -55 30 -82 36 -60 13 -227 10 -289 -5z m204
-409 c0 -238 -1 -254 -18 -258 -32 -9 -84 -1 -93 13 -9 15 -11 463 -2 486 3 8
24 13 59 13 l54 0 0 -254z"/>
<path d="M18540 16312 c-64 -24 -152 -114 -173 -176 -40 -117 -14 -231 72
-317 38 -38 72 -61 105 -72 210 -72 419 85 404 304 -10 160 -141 280 -303 278
-33 0 -80 -8 -105 -17z"/>
<path d="M19260 15848 c-118 -24 -149 -31 -205 -50 -68 -23 -143 -59 -259
-126 -106 -60 -280 -232 -360 -354 -48 -74 -71 -118 -127 -243 -8 -19 -33
-114 -58 -222 -15 -64 -16 -374 -2 -402 6 -11 11 -31 11 -44 0 -34 50 -185 90
-272 74 -162 264 -388 405 -482 377 -252 832 -284 1235 -87 292 143 525 422
621 744 109 366 35 765 -199 1075 -166 219 -436 393 -687 444 -33 6 -79 16
-103 21 -52 12 -301 11 -362 -2z"/>
<path d="M15017 15264 c-4 -4 -7 -432 -7 -951 0 -952 -5 -1121 -40 -1288 -86
-414 -171 -632 -353 -908 -104 -157 -293 -350 -447 -456 -276 -191 -611 -305
-1015 -347 -33 -3 -958 -8 -2055 -10 -1302 -2 -2019 -7 -2065 -14 -391 -57
-617 -125 -874 -262 -125 -66 -158 -88 -274 -176 -196 -150 -362 -357 -472
-587 -103 -217 -146 -366 -182 -640 -15 -105 -17 -345 -20 -1975 -4 -1693 -3
-1863 12 -1950 58 -329 198 -595 440 -835 210 -208 439 -357 774 -505 355
-155 960 -300 1441 -345 36 -3 103 -10 150 -15 404 -43 1223 -45 1770 -4 1005
75 1807 327 2264 713 245 206 399 454 451 726 16 83 17 165 11 1005 -4 526
-11 919 -16 924 -6 6 -745 10 -1825 10 -1602 1 -1817 3 -1825 16 -11 16 -14
458 -4 484 6 15 251 16 2678 16 2577 0 2676 1 2802 20 231 33 409 87 610 184
364 176 664 450 904 826 105 164 262 499 319 680 71 225 106 361 157 615 19
95 50 307 64 440 6 61 13 124 15 140 2 17 7 84 10 150 4 66 9 131 11 145 2 14
7 144 10 290 6 260 -11 700 -37 950 -5 52 -14 142 -20 200 -5 58 -12 112 -14
120 -2 8 -7 38 -10 65 -17 156 -98 526 -169 780 -61 216 -229 606 -330 765
-135 212 -219 323 -340 449 -264 274 -566 447 -931 534 -87 20 -115 21 -825
24 -405 2 -739 1 -743 -3z m-1913 -8830 c123 -27 259 -110 343 -211 191 -229
205 -582 32 -818 -82 -113 -193 -193 -334 -241 -67 -23 -98 -27 -190 -28 -129
-1 -189 12 -303 65 -160 74 -303 253 -346 435 -54 223 11 458 170 619 99 101
180 148 309 178 122 29 188 29 319 1z"/>
<path d="M26624 13709 c-89 -34 -156 -121 -156 -203 0 -22 10 -75 22 -116 20
-74 21 -91 20 -870 0 -638 -3 -797 -13 -808 -11 -10 -95 -13 -383 -15 -203 -1
-379 2 -390 6 -12 4 -25 20 -29 35 -4 15 -9 363 -11 773 -5 731 -5 747 16 845
31 143 34 177 20 219 -13 40 -66 97 -115 123 -36 19 -153 22 -210 5 -22 -6
-64 -16 -93 -22 -65 -13 -494 -15 -536 -2 -147 44 -235 45 -314 4 -31 -17 -70
-47 -87 -67 -27 -34 -30 -44 -30 -109 0 -40 6 -99 12 -132 34 -175 36 -278 37
-2350 1 -2109 2 -2058 -35 -2223 -15 -66 -13 -146 4 -178 26 -49 89 -100 150
-123 74 -27 97 -26 212 4 86 23 117 26 303 28 228 2 295 -3 392 -33 36 -11 79
-20 97 -20 43 0 142 59 187 112 56 64 58 103 15 233 l-23 70 2 868 c0 477 3
871 6 876 3 5 20 11 38 15 51 9 332 10 548 1 173 -6 197 -9 215 -26 20 -19 20
-32 19 -872 0 -785 -2 -857 -18 -912 -10 -33 -21 -74 -26 -91 -4 -18 -10 -36
-14 -42 -3 -5 1 -32 9 -60 18 -59 81 -122 153 -153 58 -25 127 -22 262 10 145
36 459 35 643 0 76 -15 185 -7 223 16 43 27 104 86 120 117 18 35 18 76 -2
168 -8 41 -20 98 -25 125 -7 32 -9 829 -7 2220 3 2005 5 2175 20 2235 33 123
34 135 26 166 -12 46 -90 129 -140 149 -49 20 -153 23 -226 6 -85 -20 -264
-34 -422 -34 -150 0 -197 5 -325 38 -75 18 -79 18 -141 -6z"/>
<path d="M20942 13670 c-91 -31 -152 -110 -139 -180 4 -15 29 -63 57 -105 69
-107 105 -226 135 -449 27 -197 48 -237 151 -287 58 -27 77 -31 148 -31 44 0
94 5 109 11 17 7 108 11 221 11 168 0 195 -2 207 -17 12 -13 14 -338 14 -2032
0 -1927 1 -2018 18 -2044 10 -16 32 -37 50 -47 31 -19 55 -20 590 -20 649 0
614 -5 662 96 29 61 29 76 5 224 -15 93 -16 367 -10 2315 3 825 9 1506 13
1513 6 9 82 12 322 12 286 0 321 -2 397 -21 46 -12 95 -23 109 -26 55 -10 164
61 194 127 21 46 15 76 -25 140 -78 123 -137 316 -160 530 -15 134 -16 136
-66 191 -54 57 -128 89 -207 89 -29 0 -104 -10 -167 -22 -115 -23 -118 -23
-1145 -23 -1082 0 -1119 1 -1283 45 -88 24 -131 24 -200 0z"/>
<path d="M20840 12278 c-15 -6 -63 -8 -118 -4 -84 5 -94 4 -113 -15 -15 -15
-19 -27 -14 -42 10 -29 19 -363 11 -384 -12 -31 -29 -6 -145 224 -38 76 -73
150 -76 166 -4 15 -16 32 -27 38 -29 15 -297 17 -310 2 -15 -18 -12 -1201 3
-1219 17 -20 291 -20 308 0 9 10 12 101 11 325 0 171 3 311 8 311 5 0 27 -37
50 -82 23 -46 74 -144 113 -218 77 -145 77 -148 53 -277 -5 -23 -1 -36 15 -52
19 -19 32 -21 159 -21 122 0 141 2 156 18 15 17 16 72 16 615 l-1 596 -22 16
c-25 17 -42 18 -77 3z"/>
<path d="M19300 12251 c-76 -9 -103 -19 -148 -57 -39 -33 -56 -63 -67 -119
-11 -56 -6 -842 5 -886 13 -47 71 -106 134 -135 49 -23 60 -24 266 -23 181 0
222 3 258 18 66 26 111 68 138 125 l24 51 0 421 0 420 -25 50 c-25 51 -74 97
-130 124 -34 16 -340 23 -455 11z m271 -243 c14 -22 11 -722 -3 -736 -7 -7
-41 -12 -80 -12 -59 0 -70 3 -76 19 -6 16 -8 627 -3 718 1 26 17 30 95 27 35
-2 62 -8 67 -16z"/>
<path d="M20093 10799 c-33 -12 -40 -35 -31 -97 4 -31 7 -296 7 -588 -1 -292
1 -536 5 -542 9 -15 279 -17 305 -2 17 8 18 32 19 312 0 167 1 306 1 311 2 25
24 -5 69 -95 28 -57 76 -149 106 -204 63 -117 68 -140 53 -228 -10 -59 -9 -67
8 -86 17 -18 30 -20 160 -20 112 0 145 3 155 14 17 22 16 1201 -1 1223 -10 12
-24 13 -68 7 -31 -4 -97 -6 -147 -5 -80 2 -92 0 -99 -16 -4 -10 -7 -114 -5
-230 1 -117 -2 -213 -7 -213 -4 0 -21 24 -36 53 -56 104 -175 342 -182 365
-10 35 -34 41 -158 41 -64 -1 -120 1 -124 4 -4 3 -18 1 -30 -4z"/>
<path d="M19375 10779 c-74 -4 -111 -11 -141 -27 -54 -28 -101 -82 -114 -133
-8 -27 -11 -182 -10 -462 1 -474 1 -474 77 -534 77 -62 106 -67 338 -67 196 0
213 1 260 22 28 13 65 37 83 55 67 64 66 60 70 505 4 435 0 482 -45 540 -34
46 -106 90 -157 97 -62 8 -248 11 -361 4z m229 -245 c3 -9 6 -174 6 -369 0
-291 -2 -355 -14 -364 -9 -7 -41 -11 -83 -9 l-68 3 -3 365 c-1 201 0 371 3
377 7 21 151 18 159 -3z"/>
<path d="M20840 9279 c-9 -6 -52 -8 -115 -4 -92 6 -102 5 -119 -14 -16 -17
-17 -26 -7 -71 13 -59 15 -339 2 -358 -6 -11 -10 -11 -19 0 -18 23 -202 388
-202 402 0 33 -30 40 -176 41 -79 1 -149 -2 -155 -6 -14 -8 -15 -1207 -1
-1221 10 -10 281 -11 307 -2 13 5 15 50 15 320 0 182 4 314 9 314 5 0 28 -37
52 -82 23 -46 73 -143 110 -215 72 -138 77 -161 58 -238 -14 -56 -6 -91 24
-101 33 -11 290 -4 304 8 10 8 13 141 13 608 0 566 -1 598 -18 613 -21 19 -59
22 -82 6z"/>
<path d="M19258 9251 c-85 -17 -160 -94 -174 -176 -8 -55 -7 -808 2 -867 7
-48 63 -112 128 -146 50 -26 55 -26 256 -29 227 -2 272 5 341 53 30 21 50 46
71 90 l29 62 -3 428 -3 429 -27 42 c-15 23 -42 53 -61 67 -65 50 -102 56 -321
55 -110 -1 -218 -5 -238 -8z m311 -235 c8 -9 11 -117 9 -377 l-3 -364 -77 -3
c-66 -2 -78 0 -86 15 -5 10 -8 177 -8 371 1 301 3 354 16 362 24 15 136 12
149 -4z"/>
<path d="M27775 7740 c-11 -5 -78 -9 -149 -8 -116 0 -130 -2 -149 -20 -18 -19
-19 -25 -8 -97 13 -91 15 -484 1 -505 -6 -11 -18 6 -45 65 -21 44 -64 136 -97
205 -82 171 -128 278 -128 300 0 42 -34 50 -216 50 l-171 0 -13 -25 c-11 -20
-11 -37 -1 -92 14 -77 11 -1342 -3 -1401 -6 -23 -4 -39 7 -55 15 -24 18 -24
192 -24 172 0 177 1 191 23 12 18 13 30 5 61 -11 40 -15 778 -5 795 7 10 18
-9 51 -88 32 -74 86 -191 165 -353 79 -164 88 -207 64 -316 -13 -61 -13 -73 0
-92 24 -37 49 -45 107 -34 28 5 100 8 158 5 85 -3 109 -1 118 10 9 11 12 201
12 788 0 425 -1 776 -1 780 0 7 -54 39 -62 37 -2 0 -12 -4 -23 -9z"/>
<path d="M22403 7730 c-28 -11 -38 -47 -24 -83 7 -17 11 -155 11 -365 0 -187
4 -352 9 -370 14 -47 46 -96 88 -133 43 -37 132 -79 169 -79 l25 0 -4 -232
c-2 -128 -7 -247 -11 -263 -6 -23 -3 -37 12 -55 18 -22 27 -24 69 -21 83 7
186 6 234 -2 38 -6 50 -4 69 11 20 16 22 26 19 78 -2 32 -4 153 -4 268 l0 208
63 23 c34 12 80 35 102 49 44 29 100 99 100 126 0 9 4 20 10 26 5 5 10 157 12
371 3 381 8 421 43 353 23 -45 45 -119 45 -156 0 -19 9 -39 23 -52 21 -20 34
-22 125 -22 l102 0 0 -277 c0 -153 0 -436 0 -630 0 -308 1 -353 15 -367 14
-13 43 -16 176 -16 95 0 168 4 180 11 19 10 20 20 19 152 -1 78 -2 364 -1 635
l1 493 139 -2 c104 -2 143 1 155 10 20 17 20 40 0 69 -9 13 -24 64 -34 114
-11 50 -23 95 -29 101 -6 6 -171 10 -418 11 -224 1 -423 6 -441 10 -27 7 -37
5 -56 -14 l-24 -21 -14 20 c-14 19 -24 21 -154 20 -76 -1 -150 2 -164 5 -14 3
-36 0 -50 -7 l-24 -12 -1 -355 0 -355 -95 0 -95 0 -1 353 c0 218 -4 356 -10
362 -11 11 -19 12 -176 10 -64 0 -127 2 -140 4 -13 3 -33 1 -45 -4z"/>
<path d="M25114 7715 c-23 -23 -25 -31 -18 -63 11 -47 12 -501 1 -524 -7 -16
-23 -18 -127 -18 -116 0 -120 1 -125 23 -8 32 0 497 9 530 6 20 4 33 -8 46
-14 16 -36 18 -193 18 -143 1 -180 -2 -192 -14 -12 -12 -13 -30 -5 -106 12
-109 11 -1320 0 -1392 -10 -65 11 -89 76 -84 62 4 196 3 245 -1 59 -6 88 20
77 70 -13 66 -16 571 -3 587 10 11 37 14 118 12 58 -1 114 -5 124 -11 15 -8
17 -31 17 -263 0 -162 -4 -272 -12 -306 -12 -51 -12 -52 17 -76 24 -21 33 -23
64 -16 20 4 93 8 163 8 80 0 131 4 138 11 15 15 16 1562 1 1577 -5 5 -47 8
-93 7 -142 -5 -152 -5 -200 3 -43 7 -50 6 -74 -18z"/>
<path d="M21364 7706 c-12 -19 -12 -36 -3 -102 11 -87 7 -1346 -6 -1399 -5
-23 -2 -37 13 -55 18 -23 25 -24 103 -21 138 6 152 6 201 -2 40 -7 50 -5 67
12 18 18 19 29 14 190 -5 143 -4 171 8 172 8 1 64 2 124 3 192 4 265 26 336
99 69 70 72 92 71 511 -1 204 -6 386 -11 403 -20 67 -74 129 -146 166 -62 31
-129 37 -493 41 -262 4 -263 4 -278 -18z m544 -589 l2 -308 -77 3 -78 3 -3
285 c-1 157 0 295 3 308 5 22 10 23 78 20 l72 -3 3 -308z"/>
<path d="M25878 7696 c-56 -15 -119 -57 -158 -104 -54 -66 -55 -79 -55 -687 1
-627 -3 -595 74 -678 24 -26 66 -56 104 -73 l62 -29 245 0 c243 0 245 0 300
26 75 35 123 79 154 141 l26 52 0 577 0 577 -28 53 c-33 64 -105 123 -176 144
-65 20 -477 20 -548 1z m377 -781 l0 -490 -102 -3 -103 -3 -1 31 c-4 80 -4
899 0 928 l3 33 102 -3 101 -3 0 -490z"/>
<path d="M4430 7610 l-85 -5 -3 -140 c-1 -77 -6 -143 -10 -147 -5 -5 -42 58
-84 139 l-76 148 -108 0 -109 0 0 -408 c0 -261 4 -412 10 -417 15 -12 203 -11
211 2 4 6 7 98 8 206 1 122 5 197 11 199 6 2 39 -54 75 -124 60 -119 65 -134
70 -208 l5 -80 107 -2 c59 -1 110 3 113 7 9 14 6 813 -3 821 -13 13 -47 15
-132 9z"/>
<path d="M3417 7593 c-15 -2 -45 -21 -66 -41 -33 -31 -40 -45 -45 -92 -12 -96
0 -572 14 -602 33 -69 139 -103 300 -96 132 7 187 28 224 87 l26 41 0 296 c0
283 -1 298 -21 330 -11 19 -40 45 -63 59 -41 24 -50 25 -192 24 -82 -1 -162
-4 -177 -6z m223 -408 c0 -197 -3 -255 -12 -256 -112 -13 -108 -23 -108 251 0
126 3 235 6 244 5 12 20 16 60 16 l54 0 0 -255z"/>
<path d="M20725 7570 c-196 -39 -252 -42 -415 -19 -162 23 -184 23 -228 0 -49
-25 -92 -84 -92 -127 0 -17 7 -53 15 -80 12 -41 15 -138 15 -573 0 -473 -2
-522 -16 -511 -8 8 -23 30 -33 49 -9 20 -51 101 -93 181 -102 195 -312 605
-364 710 -23 47 -50 110 -59 140 -49 156 -79 192 -179 215 -48 11 -69 11 -139
-1 -90 -17 -289 -13 -451 8 -70 9 -96 8 -125 -2 -61 -21 -99 -68 -102 -127 -2
-27 10 -123 16 -133 15 -26 19 -327 18 -1480 -1 -1185 -3 -1343 -17 -1408 -26
-120 -23 -149 24 -193 49 -46 90 -56 185 -41 74 11 420 9 541 -3 79 -8 113 3
159 52 28 31 32 74 14 133 -13 43 -16 1633 -3 1637 5 2 73 -126 151 -285 133
-268 284 -562 331 -642 11 -19 48 -90 82 -158 l63 -123 1 -142 c0 -80 -4 -157
-11 -177 -32 -103 -37 -147 -18 -195 20 -54 76 -100 133 -110 20 -3 73 1 117
10 97 18 349 20 476 3 111 -15 152 -4 204 53 37 41 37 42 32 108 -3 36 -10 92
-16 124 -15 89 -16 2767 -1 2837 7 30 14 81 17 113 4 54 3 61 -24 89 -63 66
-122 86 -208 68z"/>
<path d="M16578 7499 c-188 -11 -238 -22 -354 -79 -76 -38 -117 -66 -170 -117
-81 -79 -118 -140 -144 -238 -25 -92 -49 -332 -42 -420 6 -83 12 -588 16
-1390 2 -570 3 -581 25 -649 73 -226 315 -402 596 -435 44 -6 294 -9 555 -7
427 2 481 4 530 20 30 10 82 27 115 37 160 50 304 174 374 322 61 129 62 145
61 1307 -1 1002 -5 1148 -34 1225 -27 73 -62 130 -113 185 -132 143 -269 214
-466 240 -87 11 -738 11 -949 -1z m656 -656 c9 -23 6 -2007 -3 -2022 -5 -8
-68 -11 -227 -9 l-219 3 -8 55 c-10 72 -4 1961 6 1978 6 9 63 12 227 12 193 0
219 -2 224 -17z"/>
<path d="M5108 6422 c-30 -4 -78 -53 -78 -80 0 -9 5 -57 11 -107 11 -86 16
-1832 6 -1880 -23 -108 -16 -151 29 -175 32 -17 519 -19 550 -2 32 17 47 61
36 108 -7 31 -10 1024 -3 1069 3 19 23 -17 159 -285 76 -151 164 -323 196
-381 l56 -107 1 -112 c0 -77 -5 -127 -16 -160 -15 -44 -15 -52 -1 -78 35 -67
35 -67 326 -65 l263 2 26 25 c20 21 25 34 23 68 -1 24 -6 455 -10 958 -7 860
-4 1027 17 1091 10 31 -12 76 -50 103 -27 18 -93 21 -159 5 -58 -14 -171 -13
-264 1 -94 14 -134 0 -160 -55 -15 -32 -16 -44 -7 -75 7 -24 11 -158 11 -386
0 -295 -2 -346 -14 -334 -29 32 -362 685 -371 730 -11 54 -32 88 -65 105 -23
12 -60 14 -197 11 -92 -3 -195 -1 -228 2 -33 4 -72 6 -87 4z"/>
<path d="M3765 6379 c-124 -7 -135 -9 -210 -45 -102 -50 -184 -129 -213 -206
-22 -60 -48 -308 -37 -358 3 -15 7 -313 9 -662 l2 -633 29 -63 c47 -106 166
-195 315 -239 85 -24 602 -31 740 -9 190 30 304 104 375 241 l40 78 0 776 c0
727 -1 780 -18 832 -45 136 -197 261 -342 284 -68 10 -531 13 -690 4z m443
-442 c13 -16 15 -1312 2 -1337 -8 -14 -28 -16 -149 -15 -77 0 -143 4 -146 7
-9 8 -8 1334 0 1348 10 16 280 13 293 -3z"/>
<path d="M22390 5740 c-17 -17 -20 -28 -14 -48 4 -15 9 -189 11 -386 3 -354 3
-360 27 -410 42 -90 116 -148 216 -171 l45 -10 3 -220 c2 -147 -1 -232 -9
-256 -8 -27 -8 -41 0 -57 21 -39 48 -46 123 -32 56 11 83 11 154 0 82 -13 86
-13 106 7 11 11 20 31 19 44 -1 13 -4 132 -7 263 -6 223 -5 241 12 253 10 7
27 13 39 13 64 0 171 84 210 165 l25 54 0 340 c0 223 4 351 12 372 l11 32 22
-37 c13 -21 28 -65 35 -99 6 -34 13 -72 16 -84 8 -39 55 -55 142 -48 42 3 83
2 90 -3 10 -7 13 -135 12 -632 0 -448 3 -627 11 -636 16 -20 351 -20 368 -1 7
10 11 198 11 636 0 343 3 628 7 634 4 6 51 8 139 4 112 -5 136 -4 149 9 19 19
19 31 0 68 -18 35 -45 135 -45 168 0 14 -9 33 -19 42 -17 16 -57 17 -467 18
-378 0 -450 -2 -457 -14 -8 -11 -15 -9 -39 15 -21 21 -35 28 -51 23 -54 -15
-169 -18 -226 -6 -52 11 -62 10 -83 -4 l-23 -16 4 -354 c2 -290 1 -354 -10
-358 -12 -4 -117 -3 -172 1 -18 1 -19 18 -16 351 3 347 2 351 -19 372 -20 20
-24 21 -75 8 -52 -12 -155 -10 -234 6 -24 5 -36 1 -53 -16z"/>
<path d="M24475 5737 l-29 -24 11 -109 c17 -160 18 -1243 2 -1340 l-13 -75 26
-26 27 -26 70 13 c65 12 133 10 206 -5 23 -5 37 -1 59 16 25 19 27 26 21 58
-14 66 -17 572 -4 587 14 17 192 20 233 4 l26 -10 0 -254 c0 -159 -4 -274 -12
-305 -11 -48 -10 -52 13 -77 21 -23 29 -25 69 -19 112 16 156 17 206 6 44 -10
57 -10 83 3 34 18 40 36 29 91 -4 22 -7 362 -7 755 0 393 0 720 0 726 -2 25
-51 35 -118 23 -36 -6 -92 -8 -126 -5 -118 13 -118 13 -139 -16 -18 -23 -19
-31 -9 -75 16 -65 9 -499 -8 -516 -19 -19 -229 -16 -241 3 -12 18 -8 501 4
542 7 22 3 32 -18 53 -22 22 -32 25 -54 18 -34 -10 -230 -10 -258 1 -15 5 -29
1 -49 -17z"/>
<path d="M26816 5739 c-27 -21 -28 -25 -20 -73 8 -48 10 -1349 3 -1445 -4 -38
0 -46 22 -63 24 -18 32 -19 103 -8 57 8 95 9 148 0 66 -10 74 -9 98 8 19 15
24 27 21 48 -6 51 -12 807 -6 823 6 16 18 -2 45 -69 20 -51 69 -156 148 -321
109 -226 116 -257 87 -370 -14 -53 -14 -62 0 -88 20 -40 42 -45 142 -31 66 10
98 10 145 0 55 -10 64 -10 85 7 l24 18 0 774 c0 886 7 820 -86 805 -67 -10
-159 -11 -216 -1 -41 7 -50 5 -74 -16 l-27 -23 11 -84 c13 -101 14 -479 1
-500 -7 -11 -23 15 -66 105 -31 66 -79 167 -106 225 -44 92 -84 188 -102 242
-3 10 -19 26 -36 36 -25 16 -39 18 -83 10 -48 -8 -163 -4 -212 8 -13 3 -32 -4
-49 -17z"/>
<path d="M21374 5726 c-24 -21 -24 -22 -14 -101 12 -88 8 -1346 -5 -1401 -5
-24 -2 -36 17 -58 l23 -27 105 8 c58 4 131 4 163 -1 52 -8 61 -6 78 11 11 11
20 28 20 39 -1 10 -4 83 -7 162 -4 89 -3 147 3 153 5 5 75 11 154 13 156 3
200 13 266 58 53 36 86 80 103 138 17 61 16 763 -2 822 -17 57 -88 132 -156
164 -54 25 -67 27 -227 31 -93 2 -244 5 -334 7 -154 3 -164 2 -187 -18z m536
-590 c0 -268 -2 -305 -16 -310 -28 -11 -120 -6 -132 6 -9 9 -12 90 -12 303 0
161 3 295 7 298 3 4 39 7 80 7 l73 0 0 -304z"/>
<path d="M25890 5716 c-81 -24 -101 -35 -150 -86 -80 -82 -81 -94 -77 -730 3
-603 -1 -571 82 -659 35 -37 64 -56 114 -75 64 -25 74 -26 293 -26 147 0 237
4 255 11 77 32 98 44 136 77 22 21 51 60 63 87 l24 50 0 575 c0 537 -2 578
-19 616 -25 54 -84 110 -151 142 -54 27 -58 27 -290 29 -171 1 -247 -2 -280
-11z m370 -780 c0 -377 -3 -486 -13 -494 -17 -14 -185 -13 -194 2 -8 11 -12
928 -5 959 4 15 18 17 108 17 l104 0 0 -484z"/>
</g>
</svg>
