<?xml version="1.0" standalone="no"?>
<!DOCTYPE svg PUBLIC "-//W3C//DTD SVG 20010904//EN"
 "http://www.w3.org/TR/2001/REC-SVG-20010904/DTD/svg10.dtd">
<svg version="1.0" xmlns="http://www.w3.org/2000/svg"
 width="3020.000000pt" height="2309.000000pt" viewBox="0 0 3020.000000 2309.000000"
 preserveAspectRatio="xMidYMid meet">

<g transform="translate(0.000000,2309.000000) scale(0.100000,-0.100000)"
fill="url(#cta-gradient)" stroke="none">
<path d="M1362 13543 l3 -3908 13738 -3 13737 -2 0 3910 0 3910 -13740 0
-13740 0 2 -3907z m6233 2459 c33 -12 78 -23 99 -27 22 -3 44 -9 50 -14 6 -5
47 -16 91 -26 44 -9 94 -22 110 -28 17 -6 35 -13 40 -14 6 -1 41 -9 79 -17 37
-9 73 -19 80 -24 6 -5 40 -15 76 -22 36 -7 83 -20 105 -27 46 -17 60 -20 138
-35 32 -5 63 -15 70 -22 7 -6 28 -13 47 -15 49 -4 58 -6 130 -31 65 -22 92
-30 120 -34 42 -7 86 -19 95 -27 6 -4 47 -15 90 -25 102 -21 96 -19 126 -32
15 -6 46 -14 70 -17 24 -4 51 -11 61 -16 10 -5 18 -7 18 -4 0 3 12 -1 28 -8
15 -8 45 -17 67 -21 22 -4 67 -16 100 -26 33 -11 74 -22 90 -24 63 -11 90 -19
103 -28 6 -6 12 -8 12 -4 0 3 16 -1 36 -9 20 -8 47 -15 60 -15 12 0 35 -5 51
-12 15 -6 30 -12 33 -12 3 -1 23 -6 45 -13 86 -25 163 -46 240 -64 81 -19 170
-43 305 -84 41 -13 98 -26 125 -30 28 -4 56 -12 63 -17 7 -6 34 -14 60 -19 26
-5 83 -20 127 -33 44 -13 107 -32 140 -40 33 -9 89 -25 125 -34 47 -13 66 -23
69 -37 4 -23 -23 -146 -55 -248 -13 -43 -24 -89 -24 -102 0 -13 -8 -46 -18
-72 -10 -26 -24 -75 -31 -108 -7 -33 -21 -85 -32 -115 -10 -30 -21 -73 -25
-95 -3 -22 -14 -62 -24 -90 -9 -27 -20 -66 -24 -85 -12 -66 -14 -75 -29 -115
-8 -22 -21 -69 -28 -105 -6 -36 -16 -70 -21 -76 -5 -7 -15 -45 -24 -85 -8 -41
-23 -103 -34 -139 -11 -36 -26 -90 -34 -120 -8 -30 -23 -88 -34 -127 -11 -40
-18 -73 -16 -73 3 0 -2 -12 -10 -28 -8 -15 -17 -41 -20 -57 -17 -90 -64 -265
-92 -345 -9 -25 -17 -54 -19 -65 -1 -11 -6 -38 -10 -60 -5 -22 -9 -42 -10 -45
0 -3 -8 -27 -17 -55 -9 -27 -19 -67 -23 -89 -3 -21 -11 -50 -17 -65 -14 -31
-64 -215 -79 -286 -16 -77 -32 -129 -41 -140 -4 -5 -8 -18 -8 -30 0 -11 -7
-45 -15 -75 -19 -68 -19 -69 -33 -103 -7 -16 -12 -38 -12 -50 0 -13 -11 -56
-24 -97 -14 -41 -27 -86 -30 -100 -15 -80 -54 -214 -69 -237 -9 -14 -54 -11
-87 7 -14 7 -27 13 -30 12 -10 -4 -77 10 -136 28 -33 11 -74 22 -92 25 -17 3
-42 9 -56 15 -15 5 -26 7 -26 4 0 -4 -11 1 -24 9 -13 9 -46 19 -73 22 -55 7
-104 20 -150 41 -17 8 -42 14 -56 14 -13 0 -43 7 -66 15 -22 8 -41 12 -41 9 0
-2 -10 2 -23 10 -19 13 -55 23 -117 30 -8 1 -28 8 -45 15 -16 7 -55 17 -85 22
-52 9 -88 20 -135 39 -11 5 -51 16 -90 24 -90 21 -88 20 -100 28 -6 3 -38 11
-72 18 -34 6 -79 18 -99 26 -20 9 -70 22 -111 30 -40 7 -86 20 -101 27 -15 8
-56 20 -92 27 -36 6 -76 18 -90 25 -23 12 -88 26 -135 29 -11 1 -30 7 -42 14
-12 7 -30 13 -40 15 -10 1 -22 5 -28 9 -5 3 -30 9 -55 13 -25 4 -56 13 -70 20
-21 10 -144 38 -167 37 -5 0 -12 3 -18 8 -10 8 -113 35 -168 44 -16 3 -34 9
-40 14 -7 6 -47 17 -90 26 -43 9 -86 20 -96 25 -10 6 -29 12 -42 15 -13 2 -44
9 -69 16 -25 6 -52 12 -60 14 -9 1 -20 5 -27 9 -6 4 -42 14 -79 22 -38 9 -91
23 -119 33 -27 9 -52 17 -55 17 -3 1 -25 5 -49 9 -24 5 -60 15 -80 23 -34 15
-63 22 -106 28 -11 1 -23 3 -27 4 -19 3 -47 46 -43 65 8 35 37 149 48 191 6
22 14 45 17 50 4 6 11 28 15 50 4 22 9 51 11 64 3 13 9 32 15 43 5 10 7 18 3
18 -3 0 -2 6 4 13 6 7 14 33 17 57 4 25 16 72 27 105 21 63 23 71 32 128 3 19
14 59 25 89 11 29 22 71 26 93 3 22 15 65 26 95 12 30 23 71 26 90 2 19 13 59
23 87 11 29 24 83 30 120 6 37 15 72 19 78 5 5 16 44 25 85 10 41 25 102 36
135 21 70 29 99 36 140 3 17 11 36 16 43 6 6 8 12 5 12 -3 0 0 21 8 48 8 26
17 62 20 81 3 19 9 39 13 45 11 17 31 98 32 126 0 15 5 31 12 38 7 7 8 12 4
12 -5 0 -3 6 3 13 6 8 19 54 30 103 10 49 24 103 30 119 6 17 19 64 30 105 11
41 29 113 41 160 12 47 27 93 32 104 5 10 11 26 12 35 21 118 30 158 37 167 5
6 15 42 23 80 8 38 24 97 35 131 11 34 23 79 27 100 4 21 12 49 19 63 7 14 18
57 24 96 6 39 19 91 30 115 17 37 26 72 30 112 1 10 42 25 61 22 8 -2 42 -12
75 -23z m14300 -236 c33 -4 71 -10 85 -16 14 -5 54 -14 90 -19 36 -6 103 -22
150 -37 100 -31 109 -34 113 -31 1 1 18 -8 37 -19 19 -12 51 -27 70 -34 63
-23 165 -72 172 -84 4 -6 8 -8 8 -4 0 9 174 -92 178 -104 2 -4 10 -8 18 -8 8
0 14 -4 14 -8 0 -4 13 -15 29 -25 85 -50 298 -251 389 -367 28 -36 59 -74 69
-86 10 -12 25 -33 33 -47 8 -13 31 -49 51 -78 19 -30 42 -67 51 -84 8 -16 34
-63 57 -104 23 -41 44 -86 48 -100 4 -14 17 -47 30 -72 13 -26 23 -55 23 -64
0 -10 11 -41 24 -69 13 -28 29 -78 35 -111 5 -33 17 -89 25 -124 8 -35 18
-104 21 -154 4 -50 9 -100 11 -111 18 -82 -7 -458 -37 -580 -11 -44 -23 -97
-26 -119 -3 -22 -15 -62 -28 -91 -12 -28 -25 -64 -29 -81 -4 -16 -16 -49 -28
-73 -11 -25 -21 -52 -23 -61 -8 -32 -116 -233 -174 -320 -88 -135 -262 -331
-374 -423 -28 -24 -56 -48 -62 -54 -5 -6 -26 -22 -45 -35 -19 -13 -46 -33 -59
-45 -13 -12 -35 -28 -50 -35 -14 -7 -33 -19 -41 -25 -8 -7 -35 -23 -60 -37
-25 -13 -72 -40 -105 -58 -68 -38 -149 -74 -215 -96 -25 -8 -56 -20 -70 -28
-14 -7 -50 -18 -80 -25 -30 -6 -75 -18 -100 -26 -25 -7 -92 -20 -150 -29 -58
-8 -116 -18 -130 -22 -31 -8 -436 -9 -468 0 -12 3 -25 8 -30 10 -4 3 -41 8
-82 11 -70 6 -115 12 -115 16 0 1 -7 3 -15 5 -156 39 -275 80 -341 115 -20 11
-43 20 -51 20 -15 0 -144 65 -168 84 -8 7 -30 18 -47 26 -18 7 -33 16 -33 20
0 4 -14 13 -31 20 -16 7 -57 34 -89 59 -33 25 -79 61 -103 78 -54 41 -233 215
-273 266 -16 21 -40 51 -54 66 -29 32 -96 126 -125 175 -104 175 -155 273
-155 295 0 9 -7 27 -16 39 -8 13 -24 52 -34 88 -11 36 -23 71 -28 77 -5 7 -14
39 -21 72 -7 33 -18 80 -26 105 -16 53 -23 98 -36 245 -17 187 -16 298 6 500
3 22 7 66 10 99 3 32 8 63 12 70 4 6 8 18 10 25 7 49 36 160 47 181 8 14 21
51 30 82 9 31 21 60 26 63 6 3 10 13 10 22 0 19 68 160 110 228 17 28 36 61
42 75 7 14 25 40 40 58 15 18 28 37 28 42 0 5 10 20 23 33 21 24 35 40 80 102
25 35 195 206 248 250 19 17 57 48 83 70 26 22 69 54 95 70 27 17 68 43 92 59
24 17 64 40 89 53 25 13 52 27 60 32 44 28 224 101 309 125 29 9 59 20 65 25
7 6 43 15 81 21 90 14 103 17 145 29 19 6 78 14 130 17 52 4 96 8 97 9 6 4
372 -4 428 -9z m-17080 -68 c6 -3 46 -9 90 -13 44 -4 89 -9 100 -12 11 -2 38
-6 60 -8 53 -5 94 -14 114 -24 9 -5 45 -16 81 -25 36 -9 94 -28 130 -43 70
-27 273 -140 278 -154 2 -5 7 -9 12 -9 24 0 242 -216 267 -265 9 -16 19 -32
22 -35 13 -11 81 -129 81 -142 0 -7 12 -31 25 -53 14 -22 25 -48 25 -57 0 -9
5 -29 11 -45 6 -15 10 -29 10 -31 -1 -1 6 -16 14 -33 9 -16 18 -51 21 -77 4
-45 18 -100 33 -132 11 -22 16 -162 13 -347 -1 -131 -7 -183 -26 -265 -13 -57
-24 -110 -23 -118 1 -19 -55 -165 -95 -250 -45 -94 -129 -219 -201 -295 -90
-97 -100 -107 -137 -135 -18 -14 -38 -29 -44 -35 -26 -24 -85 -65 -94 -65 -17
0 -92 -72 -92 -88 0 -9 27 -66 60 -127 33 -60 70 -130 83 -155 56 -105 80
-146 93 -161 8 -8 14 -21 14 -29 0 -7 10 -29 22 -49 33 -52 53 -90 78 -143 12
-27 26 -48 31 -48 5 0 9 -6 9 -13 0 -7 14 -34 30 -60 17 -26 30 -52 30 -58 0
-6 18 -40 40 -77 23 -37 54 -94 71 -127 17 -33 41 -78 54 -100 13 -22 36 -64
51 -94 l27 -54 -22 -18 c-20 -17 -62 -18 -644 -17 -574 1 -667 5 -667 27 0 3
-11 19 -25 35 -14 16 -25 35 -25 43 0 7 -11 30 -24 51 -12 20 -27 48 -31 62
-4 14 -11 27 -15 30 -4 3 -29 46 -56 95 -26 50 -50 92 -54 95 -3 3 -12 21 -20
40 -7 19 -19 42 -25 50 -6 8 -33 58 -59 110 -27 52 -52 100 -56 105 -5 6 -41
73 -80 150 -40 77 -79 147 -86 156 -8 8 -14 21 -14 27 0 6 -15 27 -34 46 l-33
36 -276 0 c-271 0 -277 0 -297 -22 -12 -13 -20 -36 -21 -57 0 -20 0 -261 1
-536 0 -420 -2 -504 -14 -520 -14 -19 -30 -20 -591 -21 -679 -2 -615 -15 -615
124 -1 148 -1 3855 -1 3890 1 20 10 42 24 55 l22 23 1180 -1 c649 0 1185 -3
1190 -7z m9480 -7 c50 -7 114 -15 143 -17 29 -3 74 -11 100 -19 26 -7 74 -21
107 -30 246 -69 475 -234 587 -422 26 -43 52 -91 59 -108 6 -16 18 -44 26 -62
17 -41 60 -210 72 -288 17 -112 8 -299 -19 -390 -1 -5 -4 -14 -5 -20 -2 -5 -8
-38 -15 -72 -16 -93 -77 -228 -151 -339 -24 -35 -173 -184 -227 -226 -12 -10
-22 -24 -22 -31 0 -17 59 -77 76 -77 20 0 127 -82 186 -142 81 -83 122 -143
178 -262 55 -117 72 -206 75 -401 4 -186 -8 -314 -36 -404 -11 -35 -22 -71
-24 -80 -4 -22 -65 -150 -85 -181 -97 -148 -179 -231 -300 -307 -106 -66 -286
-137 -377 -148 -29 -4 -55 -10 -58 -15 -3 -4 -25 -11 -51 -15 -25 -3 -56 -9
-67 -12 -26 -7 -2625 -13 -2660 -6 -14 3 -29 15 -34 26 -6 14 -10 755 -9 2025
l1 2004 21 16 c19 16 113 17 1220 16 890 -1 1222 -4 1289 -13z m3002 6 c12 -5
25 -18 30 -30 4 -12 8 -638 9 -1392 1 -753 2 -1384 3 -1400 1 -23 9 -35 30
-48 26 -15 96 -17 882 -17 512 0 860 -4 869 -10 13 -8 15 -85 18 -579 3 -548
2 -571 -16 -589 -19 -19 -62 -19 -1491 -19 -1181 0 -1474 2 -1488 13 -17 12
-18 118 -19 2018 -1 1861 0 2008 16 2033 l17 28 559 0 c307 -1 569 -4 581 -8z
m7870 -1 c32 -7 52 -29 91 -96 11 -19 47 -78 80 -130 34 -52 74 -117 90 -145
53 -92 174 -290 182 -295 3 -3 13 -18 22 -35 8 -16 41 -70 71 -120 31 -49 69
-111 83 -137 15 -27 30 -48 35 -48 4 0 9 -10 13 -22 3 -13 15 -29 26 -36 18
-11 26 -11 47 3 13 9 31 32 39 50 7 19 18 36 23 39 5 4 28 41 52 84 23 42 53
91 66 108 12 17 23 35 23 40 0 6 7 19 15 29 16 21 175 286 175 292 0 3 108
183 181 302 21 34 39 67 39 71 0 5 15 19 33 32 l32 23 670 1 c725 1 724 1 711
-50 -5 -19 -97 -168 -125 -202 -5 -6 -17 -26 -26 -45 -10 -19 -34 -56 -54 -84
-20 -27 -44 -67 -53 -87 -10 -21 -21 -38 -26 -38 -5 0 -16 -17 -26 -37 -10
-21 -46 -81 -80 -133 -35 -52 -69 -106 -76 -119 -7 -14 -17 -30 -22 -35 -5 -6
-32 -47 -60 -91 -77 -121 -113 -177 -134 -210 -10 -16 -24 -40 -30 -52 -7 -12
-17 -28 -23 -35 -15 -18 -70 -102 -106 -163 -35 -59 -44 -73 -69 -111 -11 -16
-29 -45 -41 -64 -12 -19 -47 -74 -78 -121 -32 -47 -57 -91 -57 -98 0 -6 -4
-11 -10 -11 -5 0 -22 -23 -37 -51 -76 -141 -73 -132 -62 -174 6 -22 19 -49 30
-61 10 -11 19 -23 19 -27 0 -5 39 -71 70 -117 46 -68 100 -154 100 -158 0 -2
29 -48 64 -101 35 -53 72 -112 82 -131 10 -19 23 -39 27 -45 5 -5 41 -62 82
-125 41 -63 79 -120 84 -127 6 -7 11 -15 11 -18 0 -4 13 -25 29 -48 15 -23 54
-85 86 -137 32 -52 67 -104 77 -116 10 -11 18 -24 18 -28 0 -4 14 -27 30 -51
17 -24 30 -46 30 -50 0 -3 5 -11 10 -18 6 -7 29 -42 53 -79 23 -36 60 -94 82
-128 22 -34 53 -84 68 -111 16 -27 32 -49 38 -49 5 0 9 -5 9 -12 0 -7 11 -28
23 -47 54 -81 63 -95 77 -116 8 -13 32 -51 52 -86 33 -57 36 -66 22 -79 -13
-13 -105 -15 -697 -16 -502 -1 -690 1 -711 10 -18 7 -40 30 -55 57 -49 87
-114 194 -142 236 -16 23 -29 44 -29 46 0 3 -19 34 -42 69 -42 62 -52 79 -95
155 -12 22 -40 68 -63 102 -23 34 -48 78 -56 96 -7 19 -18 36 -24 40 -6 3 -19
23 -30 43 -12 20 -34 57 -50 82 -16 25 -34 55 -40 68 -5 13 -21 38 -35 56 -14
18 -25 37 -25 43 0 14 -60 73 -75 73 -7 0 -26 -17 -42 -37 -42 -54 -139 -203
-154 -235 -7 -16 -15 -28 -19 -28 -4 0 -12 -11 -18 -25 -9 -20 -79 -131 -190
-301 -6 -10 -17 -30 -24 -44 -6 -14 -19 -34 -28 -45 -14 -17 -88 -130 -125
-193 -6 -9 -19 -30 -30 -47 -99 -155 -128 -196 -145 -208 -17 -12 -131 -14
-710 -14 -717 0 -739 1 -732 41 3 15 99 164 130 201 5 6 17 24 28 40 10 17 22
35 27 40 4 6 20 29 35 52 15 24 72 108 127 188 55 80 106 158 114 173 8 15 27
42 43 60 16 18 42 57 59 85 17 29 57 90 90 137 72 104 210 307 224 329 18 28
137 205 167 246 27 37 79 116 103 156 6 9 17 25 25 34 8 9 19 25 25 35 5 10
36 54 68 98 99 139 100 154 20 269 -24 34 -43 66 -43 72 0 5 -4 11 -8 13 -7 3
-20 23 -82 127 -13 22 -43 69 -115 183 -26 41 -90 136 -106 158 -10 14 -26 41
-34 60 -9 19 -28 51 -44 70 -15 19 -40 58 -56 85 -16 28 -32 52 -36 55 -3 3
-16 23 -28 45 -36 66 -66 112 -84 133 -9 10 -17 22 -17 27 0 4 -11 23 -25 41
-14 18 -25 37 -25 43 0 5 -10 22 -23 38 -24 29 -147 227 -147 237 0 3 -10 16
-23 30 -12 13 -29 37 -37 53 -8 15 -43 73 -78 128 -36 55 -76 118 -90 140 -14
22 -33 52 -44 67 -19 29 -25 94 -8 100 22 7 1346 2 1377 -6z"/>
<path d="M8473 14332 c-37 -5 -63 -56 -84 -159 -11 -53 -26 -108 -33 -122 -8
-14 -17 -51 -21 -81 -4 -29 -16 -73 -26 -97 -10 -24 -18 -44 -17 -46 3 -5 -24
-114 -36 -147 -8 -19 -19 -66 -26 -105 -7 -38 -16 -75 -21 -80 -14 -19 -41
-156 -35 -180 6 -22 66 -66 66 -49 0 4 6 1 14 -5 7 -6 55 -21 107 -32 51 -11
98 -24 104 -28 10 -8 38 -16 100 -27 17 -3 53 -13 80 -24 28 -10 64 -20 80
-23 69 -12 101 -21 125 -32 14 -7 43 -15 65 -18 22 -3 67 -15 100 -27 78 -27
151 -41 180 -34 32 8 61 78 82 197 2 16 13 49 23 73 11 24 19 47 19 49 -2 18
14 96 26 125 8 19 21 70 31 113 9 42 20 79 24 82 9 5 27 80 34 142 3 17 9 40
14 50 6 11 18 56 27 101 14 68 15 85 4 98 -19 23 -79 51 -123 58 -63 10 -88
17 -141 36 -27 11 -64 21 -81 23 -17 3 -64 16 -105 30 -41 14 -87 28 -104 31
-16 2 -61 14 -100 25 -38 11 -83 21 -100 23 -16 2 -41 10 -55 18 -31 17 -167
46 -197 42z"/>
<path d="M21450 14573 c-14 -2 -39 -10 -55 -18 -17 -8 -46 -17 -65 -20 -54
-10 -187 -81 -279 -150 -53 -39 -141 -140 -192 -218 -32 -50 -59 -96 -59 -102
0 -5 -7 -23 -15 -38 -8 -16 -24 -61 -35 -100 -11 -40 -25 -88 -30 -107 -6 -19
-12 -86 -14 -148 -3 -98 1 -141 19 -202 3 -8 10 -35 16 -60 7 -25 18 -58 25
-75 6 -16 24 -58 38 -93 25 -60 78 -142 121 -189 11 -12 31 -34 45 -49 24 -26
149 -124 201 -156 44 -28 198 -88 225 -88 14 0 53 -7 87 -16 101 -26 339 -1
434 45 23 12 48 21 56 21 8 0 25 8 38 19 13 10 40 26 59 36 42 22 110 75 166
130 117 116 205 274 243 435 19 80 34 166 35 200 2 41 -16 195 -25 218 -6 15
-15 49 -20 75 -10 55 -99 242 -132 280 -12 13 -37 44 -56 68 -19 24 -52 58
-73 74 -21 17 -44 35 -51 40 -43 36 -96 75 -101 75 -4 0 -25 12 -49 27 -23 14
-71 34 -107 44 -36 9 -81 24 -100 32 -25 10 -75 14 -180 14 -80 0 -156 -2
-170 -4z"/>
<path d="M3706 14653 c-2 -2 -39 -10 -57 -12 -3 -1 -11 -13 -18 -28 -9 -20
-12 -123 -12 -387 l1 -360 26 -27 27 -28 421 0 c232 0 448 3 481 8 93 13 161
35 199 64 19 15 37 27 40 27 17 0 82 83 109 140 31 63 32 70 32 195 0 127 -1
131 -32 190 -67 126 -159 189 -306 211 -45 6 -905 13 -911 7z"/>
<path d="M13008 14733 c-14 -3 -32 -10 -38 -18 -12 -14 -17 -537 -6 -573 4
-10 16 -23 29 -29 26 -12 850 -10 912 2 92 18 160 70 210 159 32 58 35 69 35
147 0 72 -4 94 -26 140 -40 82 -114 140 -209 166 -22 6 -865 11 -907 6z"/>
<path d="M13013 13222 c-20 -2 -37 -11 -44 -23 -6 -12 -10 -123 -10 -302 l0
-282 26 -22 c14 -13 36 -23 48 -24 12 0 221 -1 463 -1 294 0 448 3 461 11 11
5 35 13 53 16 98 17 187 104 204 198 2 15 7 31 11 36 12 20 6 117 -10 180 -20
76 -62 134 -120 164 -22 12 -42 21 -45 22 -3 0 -16 7 -30 15 -20 11 -114 14
-500 14 -261 1 -490 0 -507 -2z"/>
<path d="M1367 8933 c-4 -3 -7 -147 -7 -320 l0 -313 13740 0 13740 0 -2 318
-3 317 -13731 3 c-7552 1 -13734 -1 -13737 -5z"/>
<path d="M1367 7603 c-4 -3 -7 -147 -7 -320 l0 -313 13740 0 13740 0 -2 318
-3 317 -13731 3 c-7552 1 -13734 -1 -13737 -5z"/>
<path d="M1365 6267 c-3 -7 -4 -152 -3 -322 l3 -310 13735 0 13735 0 0 320 0
320 -13733 3 c-11037 2 -13734 0 -13737 -11z"/>
</g>
</svg>
