<?xml version="1.0" standalone="no"?>
<!DOCTYPE svg PUBLIC "-//W3C//DTD SVG 20010904//EN"
 "http://www.w3.org/TR/2001/REC-SVG-20010904/DTD/svg10.dtd">
<svg version="1.0" xmlns="http://www.w3.org/2000/svg"
 width="3020.000000pt" height="2309.000000pt" viewBox="0 0 3020.000000 2309.000000"
 preserveAspectRatio="xMidYMid meet">

<g transform="translate(0.000000,2309.000000) scale(0.100000,-0.100000)"
fill="url(#cta-gradient)" stroke="none">
<path d="M8200 20157 c-3 -2 -45 -7 -95 -10 -98 -7 -232 -23 -255 -31 -8 -2
-40 -7 -70 -11 -195 -21 -662 -161 -891 -268 -391 -181 -584 -301 -957 -597
-35 -28 -72 -50 -84 -50 -30 0 -376 -86 -488 -122 -223 -70 -344 -114 -505
-183 -769 -329 -1415 -830 -1912 -1483 -422 -553 -718 -1188 -882 -1892 -12
-52 -26 -111 -31 -130 -9 -37 -10 -40 -41 -220 -59 -343 -80 -598 -84 -1010
-2 -195 0 -418 5 -495 11 -187 29 -438 36 -500 3 -27 9 -95 14 -150 20 -218
41 -413 50 -465 5 -30 14 -93 21 -140 17 -129 47 -299 81 -460 17 -80 33 -156
35 -170 8 -36 60 -233 82 -310 11 -36 27 -92 36 -125 9 -33 32 -105 51 -159
l35 -99 -20 -81 c-51 -209 -75 -353 -110 -656 -12 -96 -12 -529 0 -640 26
-260 37 -341 68 -495 64 -322 125 -665 171 -955 4 -30 17 -107 29 -170 31
-177 58 -344 76 -465 8 -60 19 -128 24 -150 5 -22 14 -69 20 -105 27 -158 141
-722 199 -980 57 -249 172 -693 204 -780 10 -30 28 -80 38 -110 54 -165 194
-470 297 -650 122 -213 299 -461 459 -645 187 -215 486 -486 700 -635 268
-187 580 -358 834 -458 87 -34 311 -112 355 -123 17 -4 56 -14 88 -23 166 -46
186 -50 397 -87 234 -41 602 -58 860 -40 662 45 1295 252 1836 600 109 70 277
189 309 219 11 9 56 46 100 82 86 69 320 299 427 418 l65 72 104 29 c306 85
474 142 694 233 52 21 73 31 260 116 121 55 348 171 407 209 21 12 39 23 42
23 5 0 199 119 289 177 397 259 854 655 1170 1013 186 212 473 594 593 792
168 274 211 352 319 575 106 218 226 512 285 698 7 22 21 63 30 90 10 28 23
68 29 90 6 22 19 72 30 110 58 206 124 530 152 745 56 427 64 994 18 1310 -5
36 -13 110 -18 165 -5 55 -12 107 -15 115 -3 8 -12 53 -21 100 -18 107 -56
283 -89 425 -25 102 -35 138 -56 190 -5 11 -16 49 -25 85 -31 117 -115 353
-194 542 -101 244 -318 651 -453 850 -35 51 -65 98 -68 103 -6 13 -162 228
-170 235 -3 3 -24 27 -45 55 -22 27 -64 78 -92 112 -54 65 -58 73 -68 158 -3
28 -10 83 -15 123 -6 39 -14 105 -19 145 -5 39 -26 180 -46 312 -39 255 -43
280 -75 475 -11 69 -23 145 -26 170 -2 25 -9 68 -14 95 -5 28 -19 109 -30 180
-12 72 -25 150 -30 175 -10 48 -54 312 -69 420 -6 36 -28 169 -50 295 -48 271
-57 324 -72 408 -6 34 -14 82 -19 107 -5 25 -14 79 -20 120 -6 41 -15 93 -20
115 -5 22 -16 81 -25 130 -61 351 -144 622 -292 955 -225 507 -564 970 -988
1349 -336 301 -696 529 -1135 719 -137 59 -377 140 -510 172 -52 13 -104 26
-115 31 -11 4 -33 10 -50 12 -16 3 -93 16 -170 30 -77 13 -180 30 -230 37 -87
12 -655 27 -665 17z m565 -1890 c449 -73 843 -271 1169 -587 130 -125 197
-207 299 -358 165 -244 274 -520 331 -832 25 -139 67 -381 76 -440 5 -30 18
-109 30 -175 12 -66 25 -145 30 -175 13 -92 109 -662 120 -715 13 -68 61 -347
70 -415 16 -113 40 -267 50 -315 5 -27 23 -135 40 -240 97 -618 120 -796 120
-915 0 -63 -16 -229 -37 -381 -4 -33 -1 -39 48 -80 274 -230 447 -417 674
-734 96 -133 266 -457 346 -657 112 -281 193 -581 240 -893 31 -203 45 -551
30 -730 -20 -223 -51 -446 -81 -570 -5 -22 -19 -80 -31 -130 -41 -172 -135
-442 -221 -635 -38 -86 -159 -324 -179 -351 -10 -15 -19 -30 -19 -33 0 -15
-189 -298 -278 -415 -129 -172 -238 -296 -402 -458 -253 -251 -569 -486 -895
-665 -84 -47 -359 -178 -372 -178 -3 0 -19 -6 -36 -14 -48 -22 -185 -73 -247
-91 -30 -9 -86 -27 -125 -39 -196 -64 -434 -113 -655 -136 -177 -18 -162 -9
-216 -113 -148 -288 -319 -498 -564 -696 -375 -302 -828 -458 -1321 -454 -184
2 -451 42 -579 88 -19 6 -53 18 -75 24 -22 7 -50 17 -62 22 -13 5 -33 13 -45
18 -422 173 -788 484 -1031 879 -81 131 -146 269 -202 427 -36 104 -162 596
-188 735 -3 14 -19 90 -37 170 -77 354 -145 720 -200 1072 -6 38 -15 98 -21
135 -11 73 -24 147 -40 228 -5 28 -23 131 -39 230 -16 99 -38 234 -50 300 -12
66 -25 143 -30 170 -7 45 -42 224 -70 360 -34 171 -50 325 -50 485 0 103 20
300 39 390 5 25 14 68 20 95 29 140 101 337 176 484 l54 104 -39 77 c-45 90
-119 260 -167 385 -132 347 -247 812 -293 1195 -5 41 -14 111 -20 155 -6 44
-15 132 -21 195 -5 63 -13 162 -18 220 -5 58 -15 175 -22 260 -7 87 -13 301
-13 485 1 388 12 529 73 865 100 551 354 1090 698 1481 121 139 121 139 250
255 255 232 581 430 923 562 120 46 379 122 520 151 136 29 389 61 481 61 l78
0 57 72 c80 99 234 258 324 333 67 55 233 175 244 175 2 0 34 18 71 40 135 83
374 174 555 212 62 12 151 27 235 37 99 12 414 5 520 -12z"/>
<path d="M8395 16653 c-233 -52 -395 -241 -395 -461 0 -58 44 -316 70 -413 6
-20 10 -47 10 -59 0 -13 4 -37 10 -54 13 -42 70 -345 70 -373 0 -13 -2 -23 -4
-23 -2 0 -51 31 -108 69 -333 222 -631 358 -903 411 -33 6 -82 17 -109 22 -68
15 -348 14 -421 -1 -33 -7 -82 -17 -110 -23 -71 -14 -218 -57 -270 -78 -313
-130 -524 -318 -671 -596 -73 -136 -129 -301 -155 -454 -42 -238 -42 -244 -43
-580 -1 -312 4 -419 34 -695 6 -49 17 -155 25 -235 15 -139 44 -329 66 -435
10 -50 13 -61 44 -185 45 -172 147 -447 213 -570 68 -127 85 -156 144 -243
263 -382 623 -614 1083 -693 108 -19 180 -20 920 -16 242 1 451 0 465 -3 14
-2 75 -9 135 -15 373 -37 637 -108 855 -233 134 -76 256 -197 326 -323 64
-114 70 -128 93 -222 35 -141 44 -239 31 -348 -21 -182 -47 -268 -136 -444
-189 -373 -562 -665 -974 -763 -129 -31 -175 -38 -294 -42 -232 -9 -402 14
-541 74 -11 5 -58 24 -105 42 -226 88 -500 245 -638 366 -159 139 -300 376
-405 678 -53 152 -59 174 -87 320 -30 151 -64 221 -147 304 -99 98 -202 141
-340 141 -132 0 -239 -47 -336 -149 -96 -100 -146 -238 -133 -365 3 -33 24
-152 45 -265 46 -238 111 -595 121 -661 4 -25 24 -144 44 -265 20 -121 43
-263 51 -315 8 -52 20 -120 25 -150 5 -30 22 -127 36 -215 30 -182 35 -209 58
-320 9 -44 21 -105 27 -135 6 -30 15 -73 19 -95 5 -22 12 -56 15 -75 4 -19 18
-84 31 -145 14 -60 32 -139 40 -175 8 -36 21 -90 29 -120 8 -30 22 -86 31
-125 48 -196 64 -248 97 -307 40 -70 55 -89 119 -140 189 -154 450 -142 628
28 142 135 176 297 113 534 -17 63 -45 178 -62 255 -18 77 -41 176 -51 220
-36 154 -70 328 -66 332 2 2 63 -16 136 -41 137 -48 352 -107 455 -126 217
-39 266 -46 470 -65 248 -23 472 -16 660 21 44 9 100 20 125 24 165 31 412
115 550 188 229 121 316 177 465 298 360 292 643 700 778 1119 53 166 64 210
88 364 25 161 20 492 -10 631 -11 52 -23 109 -26 125 -4 17 -25 86 -47 155
-137 426 -408 769 -793 1003 -170 103 -407 203 -610 257 -158 42 -182 48 -295
68 -126 23 -139 25 -315 46 -261 31 -571 37 -1265 25 -222 -4 -268 0 -375 38
-188 66 -335 208 -433 416 -18 37 -32 70 -32 73 0 2 -9 23 -19 47 -35 79 -96
322 -120 484 -6 40 -16 101 -21 135 -5 35 -12 97 -15 138 -4 41 -10 118 -15
170 -4 52 -16 232 -26 399 -15 260 -16 322 -5 433 28 290 99 418 270 489 174
73 346 70 536 -8 105 -44 129 -56 200 -104 39 -26 142 -94 230 -152 302 -197
456 -355 638 -654 134 -220 179 -327 302 -713 53 -167 89 -234 162 -299 247
-222 633 -135 761 171 23 54 27 78 27 168 0 58 -5 137 -12 175 -7 39 -17 98
-23 133 -5 34 -14 88 -20 120 -5 31 -16 102 -25 157 -8 55 -24 152 -36 215
-11 63 -27 156 -35 205 -8 50 -21 126 -29 170 -8 44 -21 130 -30 190 -14 94
-48 292 -85 505 -6 30 -21 129 -35 220 -14 91 -33 201 -41 245 -25 137 -63
364 -84 510 -12 77 -26 154 -31 171 -5 17 -9 44 -9 61 0 67 -78 213 -152 283
-48 45 -158 103 -228 119 -45 11 -137 13 -175 4z"/>
<path d="M15940 18359 c-120 -19 -162 -28 -270 -62 -146 -45 -405 -175 -501
-251 -14 -12 -41 -32 -59 -46 -103 -76 -223 -193 -323 -314 -169 -203 -280
-387 -409 -676 -46 -102 -143 -392 -169 -505 -6 -27 -15 -58 -20 -67 -5 -10
-9 -29 -9 -42 0 -13 -7 -53 -16 -88 -77 -301 -114 -930 -80 -1373 9 -115 21
-248 27 -295 10 -84 13 -101 45 -275 9 -49 20 -110 24 -135 13 -71 31 -142 61
-247 6 -21 14 -54 19 -73 24 -103 125 -391 178 -510 97 -218 176 -364 294
-540 164 -245 372 -463 573 -602 209 -145 388 -227 615 -282 58 -14 130 -28
160 -31 119 -12 377 -17 425 -7 28 6 82 16 120 22 375 64 738 292 972 611 81
111 134 207 213 384 14 31 57 173 74 245 42 173 54 436 28 606 -24 158 -106
287 -201 318 -53 17 -186 22 -195 7 -3 -4 -18 -11 -33 -14 -89 -18 -229 -158
-354 -352 -32 -49 -63 -95 -69 -102 -5 -7 -10 -14 -10 -17 0 -8 -42 -67 -85
-122 -134 -166 -265 -268 -430 -334 -102 -41 -266 -59 -373 -41 -123 22 -156
32 -275 90 -111 55 -186 111 -278 209 -64 69 -179 214 -179 227 0 2 -17 33
-38 67 -88 146 -167 341 -227 558 -7 25 -20 70 -28 100 -8 30 -23 98 -32 150
-9 52 -20 111 -26 131 -5 20 -9 54 -9 76 0 22 -4 64 -9 94 -38 220 -38 687 0
944 53 355 101 524 224 781 147 305 359 506 615 583 41 12 89 27 106 32 42 12
287 11 338 -2 132 -34 167 -48 239 -91 98 -60 196 -139 331 -269 175 -168 250
-218 352 -237 193 -34 326 65 379 285 15 60 17 102 12 250 -5 173 -12 219 -52
343 -21 67 -95 224 -106 228 -5 2 -9 9 -9 15 0 34 -185 246 -294 335 -81 68
-301 194 -377 217 -13 4 -37 13 -54 20 -48 20 -133 44 -240 67 -140 29 -423
33 -585 7z"/>
<path d="M19816 18349 c-171 -13 -314 -38 -461 -79 -44 -12 -95 -25 -113 -30
-89 -22 -232 -119 -232 -157 0 -7 -3 -13 -8 -13 -17 0 -62 -149 -81 -265 -24
-154 -32 -254 -46 -575 -4 -69 -10 -163 -14 -210 -4 -47 -9 -146 -11 -220 -14
-751 -17 -1058 -13 -1370 6 -493 20 -1016 32 -1180 6 -74 16 -241 22 -370 23
-475 38 -701 59 -910 6 -58 15 -152 21 -210 16 -155 27 -251 34 -285 55 -267
144 -418 282 -483 50 -23 71 -26 158 -27 84 0 107 4 146 23 90 44 155 135 179
252 7 30 16 71 21 91 5 21 9 487 9 1088 0 832 3 1053 13 1056 56 19 150 11
207 -18 104 -51 231 -236 353 -512 136 -309 399 -830 548 -1083 27 -45 49 -85
49 -88 0 -3 14 -25 30 -49 17 -24 30 -48 30 -54 0 -6 5 -11 10 -11 6 0 10 -5
10 -10 0 -14 163 -262 199 -303 134 -155 160 -182 246 -247 76 -57 151 -95
249 -125 78 -24 107 -27 225 -28 123 -1 140 2 181 22 133 68 182 180 155 351
-25 156 -44 209 -160 435 -50 99 -101 196 -112 215 -11 19 -41 76 -68 125 -26
50 -62 115 -80 145 -18 30 -44 75 -57 100 -14 25 -36 65 -50 90 -81 145 -105
190 -315 590 -218 414 -413 799 -413 816 0 7 10 19 23 25 100 54 347 306 455
466 86 128 192 339 192 382 0 9 4 21 8 27 10 12 27 65 42 134 7 30 16 64 21
75 4 11 10 38 13 60 3 22 10 67 16 100 5 33 16 141 23 240 19 261 -4 557 -62
810 -13 56 -40 146 -52 170 -5 11 -17 43 -27 70 -16 46 -52 118 -99 202 -63
113 -196 274 -308 373 -61 54 -217 156 -298 193 -125 59 -166 77 -177 77 -6 0
-18 4 -28 9 -53 29 -302 84 -432 96 -113 10 -431 13 -544 4z m651 -1180 c238
-58 353 -149 454 -361 5 -9 17 -52 29 -96 29 -115 29 -363 -1 -483 -70 -286
-266 -476 -584 -567 -139 -40 -208 -50 -417 -58 l-157 -7 -7 28 c-4 15 -4 192
0 393 17 998 19 1077 29 1084 12 8 191 53 262 66 73 14 337 14 392 1z"/>
<path d="M25122 18340 c-162 -24 -301 -166 -435 -444 -64 -131 -78 -163 -107
-236 -12 -30 -27 -68 -35 -85 -15 -36 -63 -162 -100 -265 -14 -41 -31 -86 -37
-100 -5 -14 -23 -63 -40 -110 -32 -93 -65 -184 -78 -215 -5 -11 -21 -54 -35
-95 -28 -83 -67 -191 -145 -410 -29 -80 -54 -155 -57 -168 -3 -12 -9 -25 -14
-28 -5 -3 -9 -13 -9 -23 0 -16 -9 -41 -50 -146 -4 -11 -34 -96 -65 -190 -31
-93 -60 -179 -65 -190 -4 -11 -18 -51 -31 -90 -13 -38 -26 -74 -31 -79 -4 -6
-8 -20 -8 -31 0 -12 -3 -24 -6 -28 -8 -8 -215 -615 -221 -650 -3 -15 -9 -30
-14 -33 -5 -3 -9 -12 -9 -21 0 -9 -13 -53 -29 -97 -16 -45 -54 -160 -85 -256
-31 -96 -63 -195 -72 -220 -9 -25 -22 -67 -31 -95 -8 -27 -19 -58 -24 -67 -5
-10 -9 -23 -9 -31 0 -7 -17 -66 -39 -132 -38 -120 -84 -267 -116 -380 -40
-137 -57 -191 -66 -213 -5 -13 -9 -34 -9 -47 0 -13 -4 -26 -9 -29 -4 -3 -11
-22 -14 -43 -3 -21 -16 -72 -28 -113 -21 -76 -26 -93 -53 -230 -23 -110 -46
-295 -46 -365 0 -136 35 -263 89 -326 43 -51 92 -76 177 -89 163 -26 297 19
403 138 72 79 168 258 231 432 23 63 45 124 50 135 5 11 27 81 50 155 81 263
132 425 137 440 3 8 41 118 83 244 43 125 82 232 87 237 6 6 27 3 54 -6 75
-27 147 -41 359 -69 65 -8 218 -14 405 -15 165 -1 343 -6 395 -11 52 -5 147
-10 210 -10 63 0 133 -5 155 -10 21 -5 76 -10 122 -11 100 -2 194 -17 209 -33
5 -6 20 -38 33 -71 29 -77 40 -107 91 -240 23 -60 55 -146 72 -190 16 -44 34
-89 38 -100 4 -11 22 -56 38 -100 17 -44 51 -133 76 -197 25 -65 46 -120 46
-122 0 -20 137 -301 182 -372 47 -76 129 -154 196 -188 106 -54 283 -58 373
-9 70 38 104 80 147 183 40 96 41 287 2 450 -81 338 -88 363 -201 715 -22 66
-39 127 -39 135 0 9 -4 20 -8 25 -5 6 -19 44 -32 85 -13 41 -40 127 -60 190
-21 63 -63 196 -95 295 -31 99 -60 189 -65 200 -4 11 -39 117 -78 235 -175
537 -414 1267 -422 1285 -5 11 -18 52 -30 90 -12 39 -25 79 -29 90 -5 11 -13
36 -19 55 -129 389 -166 498 -173 515 -4 11 -22 65 -40 120 -17 55 -35 109
-40 120 -11 28 -116 337 -141 415 -11 36 -24 74 -29 85 -5 11 -18 47 -29 80
-12 33 -25 69 -30 80 -4 11 -18 47 -30 80 -12 33 -26 70 -31 83 -5 12 -13 32
-18 45 -64 160 -129 296 -191 397 -139 227 -280 316 -458 290z m11 -1967 c3
-10 42 -115 87 -233 45 -118 91 -240 102 -270 11 -30 24 -64 28 -75 8 -21 28
-75 75 -205 15 -41 33 -88 40 -105 7 -16 21 -55 31 -85 10 -30 22 -59 26 -65
4 -5 8 -17 8 -27 0 -10 4 -26 9 -36 5 -9 19 -44 31 -77 12 -33 26 -69 30 -80
5 -11 19 -49 31 -85 12 -36 26 -69 30 -75 4 -5 10 -28 13 -51 l7 -40 -68 3
c-37 2 -104 8 -148 13 -122 15 -204 19 -535 26 -168 3 -310 7 -317 9 -13 4 -6
42 26 130 12 33 37 105 56 160 18 55 48 141 65 190 18 50 74 212 125 360 116
334 144 415 155 440 4 11 18 47 30 80 46 123 52 133 63 98z"/>
<path d="M20999 11156 c-3 -3 -43 -10 -90 -15 -46 -6 -117 -17 -158 -26 -77
-17 -268 -78 -311 -100 -14 -7 -52 -24 -85 -39 -210 -96 -474 -309 -651 -526
-167 -206 -317 -463 -409 -700 -20 -52 -41 -104 -45 -115 -5 -11 -23 -65 -41
-120 -17 -55 -35 -108 -40 -117 -5 -10 -9 -25 -9 -34 0 -10 -6 -40 -14 -68
-29 -101 -45 -173 -61 -266 -9 -52 -21 -117 -26 -145 -5 -27 -11 -70 -14 -95
-2 -25 -12 -106 -20 -180 -11 -97 -16 -234 -16 -485 0 -337 7 -468 42 -728 20
-158 47 -320 64 -387 7 -30 21 -89 30 -130 16 -76 31 -135 45 -180 4 -14 18
-59 30 -100 23 -77 75 -229 90 -265 75 -183 114 -268 161 -360 83 -163 123
-230 198 -340 197 -287 429 -517 668 -661 92 -56 276 -144 353 -169 30 -10 64
-21 75 -26 27 -10 56 -16 215 -45 118 -22 157 -24 305 -21 154 4 278 19 370
47 146 42 193 60 325 124 237 113 508 369 648 611 20 36 68 134 107 220 36 81
89 266 107 380 15 87 21 432 9 480 -5 22 -15 63 -22 90 -13 51 -59 146 -88
179 -25 29 -91 63 -149 76 -69 16 -148 0 -225 -44 -109 -61 -188 -151 -349
-396 -176 -267 -314 -402 -498 -487 -110 -50 -202 -66 -353 -61 -116 4 -144 9
-226 37 -51 18 -114 44 -140 58 -213 118 -406 338 -540 618 -144 299 -234 647
-281 1080 -10 100 -15 679 -5 695 3 4 9 52 15 107 11 116 50 333 78 433 52
188 149 421 210 507 12 17 22 34 22 37 0 35 274 326 307 326 3 0 14 6 22 14
67 58 255 122 391 133 130 11 286 -6 371 -40 36 -15 69 -27 72 -27 12 0 110
-63 171 -109 33 -25 98 -82 145 -126 220 -209 273 -250 366 -284 127 -47 264
-20 342 69 31 35 78 134 94 200 27 107 14 426 -21 515 -4 11 -18 52 -30 90
-101 316 -368 597 -714 754 -45 21 -101 43 -126 50 -25 7 -54 17 -65 22 -27
11 -154 39 -235 51 -75 11 -383 22 -391 14z"/>
<path d="M24203 11121 c-87 -22 -178 -111 -228 -225 -45 -102 -99 -303 -116
-431 -4 -33 -12 -96 -18 -140 -34 -257 -47 -481 -60 -1010 -23 -921 -1 -2328
44 -2940 3 -33 7 -127 10 -210 4 -82 10 -180 16 -217 5 -37 9 -105 9 -152 0
-47 4 -129 9 -183 6 -54 15 -159 21 -233 30 -351 107 -520 277 -606 53 -26 67
-29 158 -28 120 0 173 21 236 92 46 52 60 81 87 172 32 106 42 200 52 495 5
154 12 334 15 400 2 66 7 338 10 605 3 267 8 542 11 612 l6 126 62 5 c72 6
1270 -1 1306 -7 14 -2 86 -7 160 -11 74 -4 155 -10 180 -14 43 -6 45 -8 51
-46 4 -22 9 -119 13 -215 10 -270 24 -596 30 -690 4 -47 11 -168 16 -270 6
-102 13 -212 16 -245 3 -33 9 -125 15 -205 25 -381 47 -489 126 -620 43 -72
59 -90 113 -126 67 -45 98 -55 175 -61 129 -10 237 37 298 131 51 78 97 256
97 376 0 30 4 93 9 140 19 166 25 785 26 2340 0 1509 -7 2006 -35 2570 -11
220 -37 447 -51 456 -5 3 -9 16 -9 30 0 13 -4 32 -9 42 -4 9 -22 47 -40 85
-59 127 -139 190 -268 208 -179 25 -286 -66 -388 -331 -17 -43 -25 -73 -45
-165 -32 -152 -46 -256 -60 -438 -5 -71 -11 -136 -14 -145 -3 -10 -8 -116 -12
-237 -3 -121 -8 -222 -10 -226 -1 -3 -6 -266 -10 -585 -3 -318 -9 -582 -13
-585 -7 -8 -393 11 -744 36 -38 2 -278 8 -533 11 -255 4 -464 10 -465 13 -2
11 -7 481 -9 891 -3 423 -21 898 -39 1036 -6 44 -11 98 -11 120 -1 33 -12 94
-56 294 -8 36 -51 128 -85 181 -32 51 -96 100 -149 117 -50 16 -140 22 -177
13z"/>
<path d="M16070 11099 c-378 -7 -513 -13 -625 -30 -308 -45 -430 -130 -485
-340 -6 -24 -16 -59 -21 -77 -14 -45 -14 -331 0 -345 6 -6 11 -19 11 -29 0
-32 50 -119 96 -168 97 -104 309 -175 596 -200 54 -5 101 -11 105 -13 5 -3
143 -8 308 -12 165 -3 303 -10 307 -14 4 -3 8 -177 9 -386 1 -366 12 -1117 23
-1605 3 -129 8 -363 11 -520 3 -157 8 -314 11 -350 3 -36 10 -182 15 -325 10
-303 24 -561 39 -765 6 -80 15 -199 20 -265 28 -387 39 -472 71 -580 32 -107
75 -179 143 -243 78 -72 152 -97 261 -89 125 9 210 63 267 167 28 51 68 206
68 262 0 20 4 59 9 85 5 26 12 197 15 378 4 182 9 470 13 640 8 372 10 2750 3
3265 l-5 365 155 6 c85 3 196 9 245 12 50 4 135 9 190 12 180 10 259 17 295
26 19 5 54 9 76 9 68 0 235 38 300 69 78 36 137 89 166 149 19 41 22 61 20
150 -2 148 -31 245 -108 362 -132 202 -384 319 -794 369 -275 33 -966 45
-1810 30z"/>
</g>
</svg>
