<?xml version="1.0" standalone="no"?>
<!DOCTYPE svg PUBLIC "-//W3C//DTD SVG 20010904//EN"
 "http://www.w3.org/TR/2001/REC-SVG-20010904/DTD/svg10.dtd">
<svg version="1.0" xmlns="http://www.w3.org/2000/svg"
 width="1080.000000pt" height="1080.000000pt" viewBox="0 0 1080.000000 1080.000000"
 preserveAspectRatio="xMidYMid meet">

<g transform="translate(0.000000,1080.000000) scale(0.100000,-0.100000)"
fill="#000000" stroke="none">
<path d="M2241 9929 c-657 -58 -1213 -567 -1322 -1209 -19 -113 -19 -181 -16
-3330 l2 -3215 23 -97 c72 -314 217 -569 447 -787 222 -210 475 -336 798 -398
87 -17 263 -18 3222 -18 2997 0 3134 1 3230 18 381 71 685 243 921 522 84 100
137 182 202 310 85 169 134 349 152 550 14 167 14 6174 0 6316 -25 250 -80
417 -210 640 -92 156 -273 346 -432 450 -239 157 -450 228 -745 249 -170 12
-6134 11 -6272 -1z m1167 -2792 l2 -1019 59 79 c204 272 590 496 937 543 121
17 468 8 589 -14 485 -89 908 -392 1123 -805 216 -413 281 -892 191 -1396 -90
-501 -373 -957 -750 -1207 -260 -173 -484 -251 -801 -280 -268 -25 -627 36
-840 143 -169 84 -341 226 -449 371 -41 55 -59 73 -63 62 -3 -9 -6 -126 -6
-260 l0 -244 -429 0 -429 0 -5 43 c-8 66 -8 4142 -1 4600 l7 407 431 -2 431
-3 3 -1018z m3882 -17 l0 -590 450 0 450 0 0 -365 0 -365 -451 0 -451 0 5
-772 c4 -838 5 -845 61 -955 27 -55 105 -131 159 -157 83 -39 158 -51 322 -51
139 0 209 7 338 31 l27 6 -2 -378 -3 -378 -115 -28 c-456 -111 -920 -55 -1228
149 -241 160 -381 410 -423 753 -8 67 -13 621 -16 1887 l-5 1793 284 3 c156 1
354 3 441 5 l157 2 0 -590z"/>
<path d="M4361 5989 c-231 -27 -453 -134 -612 -294 -95 -96 -134 -148 -193
-260 -88 -167 -126 -330 -126 -545 0 -214 31 -353 119 -529 60 -121 105 -185
196 -277 191 -193 414 -284 699 -284 139 0 212 12 351 55 229 71 401 209 535
429 231 380 218 941 -29 1299 -53 77 -167 196 -236 246 -189 138 -427 192
-704 160z"/>
</g>
</svg>
