<?xml version="1.0" standalone="no"?>
<!DOCTYPE svg PUBLIC "-//W3C//DTD SVG 20010904//EN"
 "http://www.w3.org/TR/2001/REC-SVG-20010904/DTD/svg10.dtd">
<svg version="1.0" xmlns="http://www.w3.org/2000/svg"
 width="1024.000000pt" height="1024.000000pt" viewBox="0 0 1024.000000 1024.000000"
 preserveAspectRatio="xMidYMid meet">

<g transform="translate(0.000000,1024.000000) scale(0.100000,-0.100000)"
fill="#000000" stroke="none">
<path d="M2525 9309 c-461 -37 -774 -160 -1075 -423 -297 -259 -493 -626 -555
-1043 -34 -231 -36 -407 -32 -2873 2 -1858 6 -2456 16 -2525 69 -508 225 -835
541 -1138 273 -261 582 -403 987 -452 86 -10 631 -13 2668 -13 1408 0 2610 4
2670 9 399 30 706 152 995 395 286 239 482 561 569 934 70 299 71 321 71 2858
0 2592 -2 2667 -70 2957 -97 410 -303 737 -615 976 -180 138 -423 249 -640
293 -82 16 -91 18 -235 38 -103 14 -5119 21 -5295 7z m2806 -2053 c581 -78
1083 -449 1349 -998 32 -66 73 -165 91 -219 l32 -98 46 -6 c298 -37 481 -102
693 -244 513 -345 759 -965 632 -1591 -48 -235 -179 -490 -353 -689 -230 -263
-588 -453 -926 -492 -60 -7 -674 -9 -1830 -7 -1740 4 -1740 4 -1830 25 -141
34 -222 61 -332 113 -452 213 -773 647 -848 1145 -17 116 -20 330 -4 442 39
291 162 565 360 798 211 251 536 433 855 481 60 9 114 18 119 19 6 1 23 42 39
91 67 211 216 471 370 646 279 319 680 534 1096 587 105 14 326 12 441 -3z"/>
<path d="M4946 6530 c-238 -38 -472 -161 -638 -338 -80 -85 -131 -159 -187
-269 -90 -180 -125 -340 -125 -574 l0 -155 -140 29 c-184 38 -368 41 -491 8
-290 -77 -515 -295 -597 -577 -32 -109 -32 -321 0 -436 64 -234 219 -421 437
-528 191 -93 15 -85 1920 -85 l1680 0 85 23 c302 80 520 297 601 597 29 108
32 308 6 410 -42 161 -153 334 -282 437 -69 56 -194 123 -279 150 -79 25 -277
35 -372 19 -55 -10 -230 -70 -335 -115 -14 -6 -17 15 -22 191 -10 283 -40 420
-137 613 -145 289 -400 497 -705 576 -112 29 -313 40 -419 24z"/>
</g>
</svg>
