<?xml version="1.0" standalone="no"?>
<!DOCTYPE svg PUBLIC "-//W3C//DTD SVG 20010904//EN"
 "http://www.w3.org/TR/2001/REC-SVG-20010904/DTD/svg10.dtd">
<svg version="1.0" xmlns="http://www.w3.org/2000/svg"
 width="1024.000000pt" height="1024.000000pt" viewBox="0 0 1024.000000 1024.000000"
 preserveAspectRatio="xMidYMid meet">

<g transform="translate(0.000000,1024.000000) scale(0.100000,-0.100000)"
fill="#000000" stroke="none">
<path d="M3795 9319 c-698 -3 -1281 -8 -1295 -12 -14 -3 -70 -13 -125 -22
-405 -67 -718 -227 -968 -497 -123 -132 -176 -201 -243 -314 -127 -216 -198
-424 -246 -721 -21 -135 -22 -165 -27 -1213 -11 -2005 -7 -3866 7 -3960 23
-151 62 -333 93 -435 80 -259 329 -643 527 -812 201 -170 506 -315 785 -373
223 -45 189 -45 2722 -45 2152 0 2592 3 2730 21 215 27 375 66 515 126 237
101 364 183 506 323 272 270 447 590 519 949 59 292 58 268 62 2571 5 2422 0
2662 -53 2985 -68 407 -358 881 -682 1113 -298 214 -581 298 -1062 317 -214 9
-1794 8 -3765 -1z m934 -2289 c255 -61 445 -197 607 -435 l58 -86 93 100 c151
161 306 281 451 348 328 152 943 128 1245 -49 192 -112 398 -381 481 -629 62
-185 59 -116 63 -1585 4 -1315 3 -1341 -16 -1365 l-19 -24 -436 -3 -436 -3
-25 25 -25 25 0 1123 c0 687 -4 1156 -10 1208 -15 123 -55 241 -112 326 -113
169 -258 244 -468 244 -180 0 -302 -50 -426 -174 -120 -120 -180 -244 -203
-414 -7 -49 -12 -486 -13 -1194 l-3 -1117 -23 -23 -23 -23 -423 -3 -424 -3
-27 23 -26 23 1 1060 c0 1062 -6 1328 -35 1440 -52 203 -197 356 -373 394
-281 59 -577 -87 -705 -349 -77 -156 -79 -172 -87 -545 -4 -181 -6 -705 -5
-1164 l2 -835 -21 -21 c-20 -20 -36 -22 -196 -29 -96 -3 -285 -4 -420 0 -231
5 -246 7 -268 26 l-22 21 0 1783 c0 1739 0 1782 19 1805 l19 24 407 0 407 0
19 -24 c17 -21 19 -41 19 -234 l0 -212 46 55 c86 101 259 264 336 318 143 98
325 169 493 191 124 17 397 7 504 -19z"/>
</g>
</svg>
