<?xml version="1.0" standalone="no"?>
<!DOCTYPE svg PUBLIC "-//W3C//DTD SVG 20010904//EN"
 "http://www.w3.org/TR/2001/REC-SVG-20010904/DTD/svg10.dtd">
<svg version="1.0" xmlns="http://www.w3.org/2000/svg"
 width="1024.000000pt" height="1024.000000pt" viewBox="0 0 1024.000000 1024.000000"
 preserveAspectRatio="xMidYMid meet">

<g transform="translate(0.000000,1024.000000) scale(0.100000,-0.100000)"
fill="#000000" stroke="none">
<path d="M2675 9320 c-244 -14 -426 -46 -618 -110 -667 -223 -1058 -749 -1159
-1560 -10 -84 -13 -600 -13 -2555 l0 -2450 23 -144 c43 -268 107 -477 203
-660 267 -512 726 -821 1344 -905 22 -3 101 -9 175 -13 169 -10 4686 -10 4910
-1 377 16 649 85 912 234 142 80 249 163 368 283 133 135 221 259 310 436 109
217 171 435 212 740 19 146 19 4867 0 5030 -64 534 -254 945 -570 1228 -216
194 -499 336 -797 398 -267 55 -118 52 -2740 54 -1331 1 -2483 -1 -2560 -5z
m3337 -1341 c452 -31 774 -127 1058 -314 188 -125 294 -234 401 -413 161 -271
217 -495 206 -827 -20 -583 -196 -1051 -534 -1420 -285 -311 -680 -533 -1137
-640 -274 -65 -490 -82 -1161 -93 -431 -8 -452 -9 -491 -29 -47 -25 -104 -85
-122 -128 -6 -17 -36 -174 -67 -350 -30 -176 -71 -410 -90 -520 -19 -110 -50
-294 -70 -410 -41 -241 -55 -292 -93 -328 -60 -58 -53 -57 -647 -57 -603 0
-586 -2 -625 63 -13 20 -20 50 -20 81 0 27 58 380 130 785 124 704 265 1510
370 2121 28 157 68 389 90 515 23 127 95 538 161 915 66 377 129 737 140 800
31 174 60 222 149 248 49 14 2151 15 2352 1z"/>
<path d="M4862 6943 c-58 -20 -127 -91 -146 -150 -9 -27 -49 -246 -90 -488
-41 -242 -91 -536 -111 -654 -38 -225 -39 -261 -4 -305 44 -57 61 -59 314 -52
451 13 629 23 719 42 365 77 611 255 742 538 141 307 96 681 -106 876 -112
109 -228 166 -397 195 -124 22 -858 20 -921 -2z"/>
</g>
</svg>
