<?xml version="1.0" standalone="no"?>
<!DOCTYPE svg PUBLIC "-//W3C//DTD SVG 20010904//EN"
 "http://www.w3.org/TR/2001/REC-SVG-20010904/DTD/svg10.dtd">
<svg version="1.0" xmlns="http://www.w3.org/2000/svg"
 width="1024.000000pt" height="1024.000000pt" viewBox="0 0 1024.000000 1024.000000"
 preserveAspectRatio="xMidYMid meet">

<g transform="translate(0.000000,1024.000000) scale(0.100000,-0.100000)"
fill="#000000" stroke="none">
<path d="M2505 9229 c-207 -16 -433 -78 -633 -174 -556 -267 -920 -771 -1004
-1392 -19 -145 -19 -4981 0 -5127 85 -621 447 -1132 997 -1405 195 -97 369
-152 581 -183 133 -19 5250 -19 5374 0 731 115 1328 655 1504 1362 58 235 56
96 56 2785 0 2660 2 2541 -51 2768 -161 688 -720 1210 -1434 1337 -60 11 -175
24 -255 30 -173 12 -4984 11 -5135 -1z m3357 -1429 c405 -29 713 -154 959
-388 571 -543 579 -1472 18 -2218 -341 -454 -847 -742 -1394 -794 -60 -5 -354
-10 -651 -10 -533 0 -542 0 -568 -21 -14 -11 -31 -29 -36 -40 -10 -18 -68
-316 -205 -1049 -36 -195 -73 -365 -81 -378 -8 -13 -29 -32 -47 -42 -31 -19
-54 -20 -502 -20 -448 0 -471 1 -502 20 -51 30 -67 63 -60 120 3 26 73 390
156 807 82 417 209 1057 281 1423 72 366 164 834 205 1040 41 206 122 618 181
915 58 297 112 551 119 565 18 34 47 59 81 70 41 12 1879 12 2046 0z m1586
-1922 c137 -173 203 -388 204 -658 0 -204 -28 -356 -99 -535 -103 -263 -312
-526 -553 -697 -114 -81 -319 -185 -450 -228 -223 -72 -385 -90 -846 -90 -252
0 -324 -3 -339 -13 -14 -11 -40 -124 -127 -563 -117 -592 -117 -593 -189 -633
-35 -20 -52 -21 -461 -21 l-425 0 -23 25 c-20 21 -22 31 -17 73 10 83 296
1542 307 1561 20 38 52 40 600 44 495 4 544 6 650 26 710 132 1300 636 1584
1351 39 98 101 300 121 393 3 15 7 27 9 27 3 0 27 -28 54 -62z"/>
<path d="M4698 6810 c-10 -6 -22 -20 -28 -30 -11 -20 -270 -1366 -270 -1401 0
-11 11 -31 25 -45 l25 -25 473 3 c531 5 544 6 712 87 373 178 589 652 470
1028 -45 144 -142 259 -271 323 -134 66 -113 64 -639 67 -320 2 -486 0 -497
-7z"/>
</g>
</svg>
