<?xml version="1.0" standalone="no"?>
<!DOCTYPE svg PUBLIC "-//W3C//DTD SVG 20010904//EN"
 "http://www.w3.org/TR/2001/REC-SVG-20010904/DTD/svg10.dtd">
<svg version="1.0" xmlns="http://www.w3.org/2000/svg"
 width="1024.000000pt" height="1024.000000pt" viewBox="0 0 1024.000000 1024.000000"
 preserveAspectRatio="xMidYMid meet">

<g transform="translate(0.000000,1024.000000) scale(0.100000,-0.100000)"
fill="#000000" stroke="none">
<path d="M2635 9324 c-16 -2 -79 -9 -140 -15 -320 -32 -581 -120 -818 -275
-117 -76 -309 -262 -399 -384 -202 -276 -323 -598 -373 -995 -11 -87 -25
-2600 -22 -3840 3 -1169 3 -1192 25 -1317 52 -305 135 -542 263 -755 255 -421
601 -669 1082 -772 271 -59 139 -56 2782 -53 1331 2 2445 5 2475 7 30 2 98 7
150 11 52 3 102 8 111 9 9 2 40 6 70 10 69 8 185 31 274 55 240 63 466 186
639 350 102 96 102 96 159 166 92 113 128 169 211 334 115 230 181 443 202
655 3 39 8 79 10 90 15 80 19 428 22 2370 4 2617 2 2675 -83 3018 -85 340
-234 606 -475 847 -221 222 -439 344 -745 419 -126 30 -221 44 -420 61 -93 7
-4933 11 -5000 4z m3195 -1281 c557 -106 1016 -420 1273 -868 300 -524 327
-1264 64 -1790 -159 -319 -416 -563 -782 -741 -66 -33 -121 -59 -122 -60 -2 0
48 -86 111 -190 394 -656 1097 -1836 1115 -1871 37 -74 23 -142 -36 -172 -34
-17 -1103 -15 -1146 2 -49 21 -95 79 -179 227 -358 628 -1067 1826 -1091 1844
-28 20 -41 21 -418 24 l-389 3 -25 -25 -25 -25 0 -1002 0 -1003 -22 -23 -21
-23 -543 0 c-298 0 -550 3 -559 6 -47 19 -45 -132 -45 2862 0 2387 2 2801 14
2817 10 14 31 21 73 25 32 3 638 5 1348 5 1287 0 1290 0 1405 -22z"/>
<path d="M4234 7003 c-54 -10 -53 1 -54 -533 -1 -1004 -2 -975 18 -999 l17
-22 600 -2 c585 -2 602 -1 692 20 169 40 279 95 390 197 103 94 175 212 215
353 33 117 30 304 -6 428 -43 142 -88 216 -196 326 -81 81 -109 102 -190 142
-182 89 -179 89 -865 91 -330 1 -610 1 -621 -1z"/>
</g>
</svg>
